<?xml version="1.0" standalone="no"?>
<!DOCTYPE svg PUBLIC "-//W3C//DTD SVG 1.1//EN" "http://www.w3.org/Graphics/SVG/1.1/DTD/svg11.dtd" >
<svg xmlns="http://www.w3.org/2000/svg" xmlns:xlink="http://www.w3.org/1999/xlink" version="1.1">
<metadata>
Created by FontForge 20150824 at Thu Mar  3 21:09:26 2016
 By Everything Fonts
Copyright (c) 2015 by Swistblnk. All rights reserved.
</metadata>
<defs>
<font id="SwistblnkNeaments" horiz-adv-x="348" >
  <font-face 
    font-family="Swistblnk Neaments"
    font-weight="400"
    font-stretch="normal"
    units-per-em="1000"
    panose-1="0 0 0 0 0 0 0 0 0 0"
    ascent="750"
    descent="-250"
    x-height="298"
    cap-height="637"
    bbox="-134.167 -421.154 592.667 752.5"
    underline-thickness="50"
    underline-position="-100"
    unicode-range="U+000D-007E"
  />
<missing-glyph 
 />
    <glyph glyph-name=".notdef" 
 />
    <glyph glyph-name="nonmarkingreturn" unicode="&#xd;" 
 />
    <glyph glyph-name="space" unicode=" " 
 />
    <glyph glyph-name="e" unicode="e" horiz-adv-x="266" 
d="M351 298q4 0 6.5 1.5t6.5 0.5q-2 -12 -10 -29.5t-13 -29.5q-7 -15 -13.5 -26.5t-14.5 -25.5l-27 -47q0 -2 -8.5 -12t-19.5 -22t-21 -21t-13 -8q-8 -5 -23.5 -15t-23.5 -12q-5 -1 -10 -0.5t-10 -0.5l-30 2q-1 0 -1.5 -0.5t-1.5 -0.5q-8 2 -16 4.5t-15 5.5q-9 3 -18 8
l-10 6q-11 12 -19.5 24.5t-13.5 27.5q-1 1 -1.5 3.5t-2.5 3.5q-4 7 -6 22.5t-2 30.5q1 11 1 21.5v21.5q0 14 2 26.5t5 25.5q5 15 11 28.5t11 26.5q3 8 7.5 13.5t8.5 10.5q3 2 4.5 4t3.5 5q2 4 6 6t7 5l7 6q12 9 24.5 17t28.5 12q39 7 74 -10q13 -8 21 -21.5t6 -29.5
q-1 -11 -3 -22.5t-6 -21.5q-2 -5 -4.5 -11t-6.5 -11q-4 -6 -11 -14t-15 -16.5t-16 -16t-14 -12.5q-7 -7 -13.5 -12.5t-14.5 -10.5q-9 -8 -16.5 -14.5t-18.5 -12.5l-10 -4q4 -8 2 -11.5t3 -11.5q2 -2 2 -4.5t2 -4.5q6 -17 23.5 -33.5t34.5 -18.5q19 -2 32.5 2t23 10.5
t15.5 13t11 9.5q17 13 28 31.5t19 32.5q8 17 16 26.5t15 26.5q6 15 13.5 28t8.5 24zM93 235q-1 -8 0 -16t3 -17q7 3 13 5.5t11 6.5q11 8 29 22.5t29 23.5q7 6 12.5 14t13.5 15q4 4 7.5 10t6.5 12q5 8 8.5 16t5.5 18l1 10q2 17 -7 27q-8 12 -19.5 15.5t-22.5 5.5l-15 -12
l-3 -2q-7 -8 -13 -15.5t-9 -16.5q-7 -16 -18 -33t-18 -34q-5 -10 -9.5 -27t-5.5 -28z" />
    <glyph glyph-name="f" unicode="f" horiz-adv-x="269" 
d="M259 240q5 5 12 17t14.5 25t14.5 25t12 17v-21q-3 -11 -9 -25t-13.5 -27t-15 -23.5t-11.5 -13.5q-8 -5 -20 -12t-20 -12q-14 -4 -19.5 -5t-9 -1h-8h-15.5q-14 0 -34 8t-36 17h-1q3 -4 7.5 -9t9 -9.5l7.5 -7.5l3 -3q4 -7 13.5 -22t19.5 -31t19 -30t12 -20q5 -8 11.5 -22
t11.5 -22t7 -17.5t5 -17.5l3 -12t4.5 -16t4 -14.5t2.5 -8.5q3 -9 5 -18t4 -17q0 -5 0.5 -18.5t2.5 -22.5q-1 -7 0 -13.5t0 -12.5q0 -5 -2 -18t-5.5 -26.5t-7.5 -25.5t-7 -15q-2 -2 -7 -6.5t-16 -0.5q-8 2 -15 4.5t-15 5.5q-11 5 -21 9.5t-21 9.5q-14 6 -24.5 18.5
t-21.5 25.5q-13 21 -20 46.5t-15 48.5q-5 19 -9 36q0 4 -1 14t-2 22t-2.5 23.5t-1.5 17.5q-2 8 -1.5 17t-0.5 18q0 4 -0.5 7.5t-0.5 6.5q0 21 -0.5 44t-0.5 45.5t0.5 43t2.5 35.5v13v21.5t0.5 23t0.5 17.5q0 7 0.5 23t2.5 36q1 9 1.5 17.5t1.5 17.5q0 6 2 20t5.5 32t8 37
t9.5 34q1 8 7.5 19t14 21t14 17.5t8.5 9.5q4 5 11.5 11t14.5 11t12 9l5 4q4 1 7 1.5t7 0.5t7.5 -1t7.5 -2q7 -7 11.5 -12.5t6.5 -10.5l3 -4q6 -9 8 -19.5t2 -21t-0.5 -20.5t-0.5 -19q0 -7 -1.5 -24.5t-3.5 -27.5q1 -2 -3.5 -29.5t-18.5 -78.5q-5 -18 -14.5 -38.5
t-20.5 -38.5q-8 -11 -16 -23.5t-16 -23.5q0 -1 -1 -2v-1q-8 -9 -12.5 -15t-4.5 -5q3 -4 6 -5q13 -7 25 -13t22 -10q3 -1 10 -1h18t12 0.5t9.5 1.5t9.5 3q10 4 15 7t9 6.5t8 8t12 12.5zM101 179q0 -8 -0.5 -22t-0.5 -22t0.5 -15.5t1.5 -15.5q0 -6 0.5 -12t1.5 -13
q0 -5 0.5 -18.5t2 -30t2.5 -32.5t2 -25t2 -17.5t2 -16.5q2 -19 4 -31.5t5 -23t8.5 -20.5t13.5 -24q3 -7 11 -15q5 -6 12.5 -13.5t16 -13.5t17 -10t14.5 -3q8 24 13 52t2 53q-1 1 -1 4q1 10 -1 19.5t-5 18.5q-1 2 -3 10.5t-4.5 17.5t-4 16l-1.5 7q-5 13 -8.5 26t-9.5 24
q-5 9 -12 23t-12 22q-14 25 -26 46t-32 46q-2 3 -11 12v-3zM107 402q0 -5 -0.5 -21t-1.5 -35t-1.5 -38t-0.5 -29l-1 -23q3 2 12 13v1q8 11 15.5 24t11.5 21q11 24 20.5 44.5t13.5 43.5q7 40 11.5 57.5t6.5 29.5q1 5 3 20t2 26q0 13 1.5 19.5t-3.5 22.5q-2 10 -3.5 19
t-7.5 17q-1 1 -2 1.5t-2 1.5q-5 -2 -8 -3.5t-5 -3.5q-4 -4 -10 -12q-2 -2 -7 -8.5t-10 -15.5t-9 -19t-5 -20q-4 -13 -8 -32t-6.5 -38.5t-4 -36.5t-1.5 -26z" />
    <glyph glyph-name="r" unicode="r" horiz-adv-x="315" 
d="M345 269q10 -2 15 -4q-3 -13 -8 -25t-8 -25q-1 -5 -3.5 -15.5t-6 -22t-7 -22.5t-4.5 -15q-5 -20 -10 -37.5t-12 -37.5l-14 -40q-4 -14 -10.5 -30t-14.5 -25q-2 -5 -7.5 -11t-11.5 -8q-11 -2 -24.5 -0.5t-26.5 18.5q-6 6 -13 23.5t-9 26.5q-3 11 -5.5 22t-4.5 21
q-1 6 -1 11.5v10.5q1 47 9 97l12 32l7 59q0 8 -1 16l-2 16q-3 10 -19 16.5t-26 6.5q-8 0 -11 -6q-5 -9 -13 -26t-10 -27q0 -2 -1.5 -4t-2.5 -4q-8 -21 -13.5 -27.5t-8.5 -4.5t-3.5 9t1.5 13q8 16 12 28q3 6 9.5 20.5t8.5 20.5q2 9 -6 10q-37 7 -54 42q-5 9 -6.5 18t0.5 20
l3 9q5 6 9.5 11t9.5 10l2 2q9 3 18.5 6.5t18.5 5.5q8 2 14 -2t10 -11l8 -16t5 -18q1 -8 0 -17t-2 -17q-1 -7 -2 -13.5t1 -12.5q34 4 58.5 -7.5t41.5 -23.5q2 -1 6 -5q11 -13 13 -28t1 -32q-1 -11 -2.5 -27t-3.5 -32.5t-4 -30.5t-5 -21l-4 -36q-3 -16 -6 -27.5t-4.5 -23
t-1 -25t3.5 -32.5q4 -11 11 -9t11 8q6 9 13 20.5t10 21.5q2 6 4 11.5t3 11.5l3 13q2 9 5 17t7 18q2 10 6 25.5t8.5 32t9 32t7.5 25.5q3 12 8 23.5t8 23.5h2zM112 346q6 5 4 16v8q-1 11 -1 22t-2 22q0 5 -2.5 9.5t-4.5 8.5q-5 5 -10 4.5t-11 -2.5q-20 -4 -26 -19.5t2 -29.5
q16 -35 51 -39z" />
    <glyph glyph-name="s" unicode="s" horiz-adv-x="231" 
d="M268 236q-11 -19 -18.5 -30t-13.5 -19t-10.5 -15t-8.5 -16q-7 -10 -6.5 -17t2.5 -12q1 -10 0.5 -24t-2.5 -22q-5 -30 -16 -51q-3 -6 -11.5 -15t-18 -18t-18 -16.5t-12.5 -9.5q-8 -3 -15.5 -5.5t-15.5 -4.5q-10 -1 -19.5 -1.5t-17.5 1.5q-9 0 -16 6q-24 9 -33 30
q-2 8 -3 23.5t2 22.5t9.5 17t14.5 17t16.5 12.5t19.5 13.5q5 2 10.5 6t10.5 6v1q3 4 12.5 6.5t9.5 7.5q2 5 2 13q0 6 -2.5 6t-4.5 6q-2 7 -4.5 10t-4.5 10l-38 49q-2 6 -8 12.5t-12.5 12.5t-13 12.5t-8.5 12.5v4l-2 4t-1 4q-5 11 -6 22t-1 23q0 2 0.5 3t0.5 5q3 17 18 37
l7.5 7.5t8.5 6.5q4 0 8 4q6 2 16 4.5t21 4.5q15 0 29 -9t20 -25q0 -5 1.5 -15t1.5 -14l-2 -9q0 -1 -1 -4.5t-2.5 -7.5t-3 -7.5t-2.5 -3.5q-8 2 -13 5t-3 10q0 1 2.5 10.5t-0.5 22.5q-2 10 -3 14t-5 7q-5 4 -21 1q-11 -4 -17 -10q-1 0 -5 -8q-3 -3 -4 -7t-3 -9v-10
q2 -5 3 -10t6 -10q9 -12 29 -26.5t34 -28.5q14 -16 26.5 -31.5t25.5 -32.5q6 -8 7.5 -10.5t6.5 -13.5q15 25 26.5 39.5t23.5 34.5q14 23 17 33t7 16q2 4 10.5 6t10.5 3zM110 55q6 15 7.5 29.5t3.5 19.5q-4 -3 -13 -8t-19 -10.5t-19 -10.5t-12 -7q-5 -3 -13 -13.5t-10 -13.5
q-2 -4 -0.5 -13.5t1.5 -12.5q2 -7 7.5 -8.5t12.5 2.5q3 2 11 7.5t17 12t16.5 13.5t9.5 13z" />
    <glyph glyph-name="d" unicode="d" horiz-adv-x="328" 
d="M425 287q10 -2 15 -4q-4 -12 -9.5 -23t-8.5 -23q-1 -5 -4.5 -17t-7 -25t-7.5 -25t-5 -16q-5 -19 -10.5 -37t-12.5 -37l-14 -39q-4 -14 -14 -28.5t-14 -27.5q-2 -5 -6 -11t-6 -10q-2 -5 -5.5 -9t-12.5 -7q-4 -1 -2.5 -0.5t-3.5 -0.5q-2 -1 -3.5 -2.5t-4.5 -1.5h-1h-1
q-2 1 -5 1.5t-7 2.5l-6 4q-1 -1 -3 -1l-7.5 7.5l-7.5 7.5q-1 1 -3.5 6.5t-5 12t-5 12.5t-4.5 8q-2 4 -3 7l-2 6q-4 11 -6 22.5t-5 22.5q-3 10 -3 22q-1 5 -1 13q-10 -7 -19 -18t-17 -11q-6 0 -11.5 -1t-10.5 -3h-8q-9 0 -13 2q-12 0 -21 5q-3 3 -7 4t-7 3q-9 1 -19 11
q-9 7 -15.5 16t-13.5 18q-5 5 -8 9.5t-4 12.5v1q-8 13 -7 26.5t1 27.5v13q0 5 1 11.5t1 11.5q2 6 2.5 15.5t0.5 19.5t1 20t4 16v1q1 0 1 1q5 14 11 25t12 23q5 9 10.5 16t11.5 13q9 8 12 11.5t14 5.5q10 2 16 4t16 0t15 -1h3q12 0 20 -2.5t13 -5.5t9 -6.5t8 -4.5
q-2 25 2 50.5t5 50.5l-18 11q-8 6 -13.5 14.5t-10.5 16.5q-2 9 -5.5 16t-8.5 15q-2 4 -3.5 9t-3.5 10q-1 0 -1 1v2q-3 2 -6.5 10t-3.5 10t-1 8.5t-3 20.5q-1 19 1.5 34.5t7 27t9 19t7.5 10.5q9 16 27 23l17 6q16 2 27 -4q4 -3 10 -3q8 -2 12.5 -7.5t11.5 -7.5q-1 -6 1 -9
l4 -6t3 -8q3 -14 5.5 -26.5t4.5 -26.5q2 -16 3.5 -30t6.5 -28q1 -5 0.5 -11.5t-0.5 -12.5v-28t-2 -28v-35v-28t-1 -28q-1 -40 -6 -81q0 -9 -0.5 -18t-0.5 -17v-8t-2 -7q-2 -10 -1.5 -20t0.5 -21v-31t1 -31v-70v-14.5t2 -13.5q1 -13 6 -28q1 -1 1 -3q1 -14 6.5 -26.5
t10.5 -23.5q1 -2 2 -5.5t3 1.5q5 12 12.5 23.5t12.5 20.5q2 6 4 10.5t3 11.5l5 12q2 9 5.5 17t6.5 18t7.5 26.5t9.5 35t10 35t8 26.5q2 12 8 22t9 21h3zM217 280q-2 3 -2 7v7v74q-6 11 -17 15t-26 4q-4 0 -7 -2q-4 -3 -6.5 -4t-3.5 -6q-5 -9 -8.5 -18.5t-7.5 -17.5
q-2 -8 -3.5 -15.5t-4.5 -15.5q-2 -8 -4 -14.5t-3 -14.5q0 -5 -1 -12t-1 -13q-1 -11 -1.5 -23t-0.5 -23q-2 -23 3 -43t14 -40q4 -9 12.5 -14t17.5 -9q7 -2 16 -2.5t21 10.5q5 3 6 4.5t0 6.5q0 8 -1 17t-1 18v10q0 13 5 26q0 3 0.5 7t-0.5 8v23v1l1 2q0 4 0.5 8.5t0.5 9.5
t1 11t1 12v6zM226 579q2 8 2 16v16v8.5t-2 9.5q0 8 -1.5 16t-3.5 16q-6 11 -8 24q-2 5 -3 8t-3 6q-2 8 -7.5 12t-10.5 7q-2 2 -4.5 1t-4.5 -2l-6 -10t-5 -12q-1 -8 -3 -16l-4 -16q-6 -22 1 -45v-6q2 -7 4 -13.5t5 -12.5l10 -18t9 -17l9 -21q4 -15 23 -25q0 14 2 19
q0 15 0.5 28t0.5 27z" />
    <glyph glyph-name="g" unicode="g" 
d="M444 291q10 -2 14 -4q-3 -12 -7.5 -23t-7.5 -23q-2 -10 -8 -18.5t-10 -16.5q-9 -18 -18.5 -31.5t-18.5 -31.5l-16 -31q-14 -20 -27 -40t-31 -34q-4 -5 -7.5 -10t-7.5 -7q-3 -4 -6.5 -8t-6.5 -9q-2 -4 -2 -7q0 -33 -1 -55t-3 -45v-11.5t-1 -11.5q-1 -20 -1 -35t-5 -37
q-4 -12 -5.5 -24t-4.5 -24q-3 -11 -8.5 -21.5t-12.5 -19.5q-8 -11 -16 -20.5t-20 -15.5q-8 -6 -15 -7q-12 -4 -26.5 -6.5t-27.5 -1.5q-5 5 -11 13q-5 7 -12 18.5t-15 30.5q-3 8 -3 21.5t1 21.5q1 14 8 39t14 39q9 19 14.5 31t10 21t9 17.5t11.5 21.5q5 11 14.5 24t17.5 23
q5 7 10 15.5t5 16.5q0 4 -0.5 3.5t-0.5 -2t0.5 -2t0.5 4.5q0 15 0.5 20t1.5 20q0 5 -0.5 10t-1.5 10q-6 -2 -12 -10t-14 -10t-14.5 -3t-13.5 -3q-3 0 -6 -0.5t-6 0.5q-9 2 -18.5 4t-17.5 6q-10 4 -18 14q-9 8 -17.5 17.5t-16.5 18.5q-5 6 -9 12.5t-5 14.5q0 3 -1 5.5t-2 4.5
q-5 12 -5.5 24.5t-1.5 25.5v5q-4 39 0 82q2 9 5 17q5 16 11 26q5 8 9.5 15.5t9.5 15.5q4 5 7 10.5t7 10.5q17 23 47 34l15 5t15 1q5 0 15.5 -1t16.5 -3q8 -2 13 -4t13 -5q7 -3 9.5 -4.5t10.5 -6.5q4 10 4.5 15t4.5 14q6 17 14.5 31t21.5 25q10 8 20.5 14.5t23.5 9.5q2 1 8 1
h12t11 -1t5 -2q2 -5 -3 -7q-9 -1 -12.5 -7t-7.5 -12q-12 -20 -19.5 -43t-12.5 -46q-2 -5 -1.5 -11.5t-0.5 -11.5q-1 -14 -2 -27.5t-3 -27.5q-1 -10 -2.5 -19t-2.5 -19q-2 -12 -2.5 -24t-1.5 -24q-1 -5 -1.5 -10.5t-0.5 -10.5q-1 -16 -1 -31t-2 -30q-2 -18 -1.5 -36t-0.5 -36
q-1 -14 2 -34q4 5 8 9t8 9q2 0 2 2q9 11 17.5 17.5t11.5 12.5l3 3q14 23 28.5 46.5t30.5 55.5q4 9 8 15t7.5 11.5t6.5 12t6 16.5q3 12 9 22t9 21h3zM208 -37q-2 -3 -3 -5t-3 -4q-2 -4 -3.5 -7.5t-3.5 -7.5q-6 -11 -14 -25.5t-26 -42.5q-4 -6 -8.5 -14.5t-7.5 -16.5
q-7 -20 -13.5 -42.5t-6.5 -42.5q-2 -12 1 -24.5t7 -22.5t8.5 -17t7.5 -9q8 -3 16 5q6 6 12 11.5t11 11.5q5 5 5.5 16t3.5 17q2 8 2.5 16.5t2.5 16.5q2 14 3 27.5t4 27.5zM227 279q1 23 3 48.5t3 50.5q-4 6 -13 10.5t-19.5 6.5t-20.5 1t-15 -5q-8 -8 -14 -16.5t-13 -16.5
q-5 -5 -9.5 -18t-9.5 -19q-6 -9 -8.5 -18.5t-7.5 -20.5q-6 -14 -7 -30q-2 -19 1.5 -37t6.5 -36q2 -8 3.5 -15.5t3.5 -15.5q2 -9 7.5 -16.5t10.5 -15.5q7 -11 15 -19t18 -16q4 -4 9 -2q12 4 17 6.5t17 12.5q2 2 3.5 4t3.5 4q0 11 3 20.5t3 20.5q0 5 -0.5 8.5t-0.5 7.5
q1 14 2 27t2 27q5 32 6 62z" />
    <glyph glyph-name="h" unicode="h" horiz-adv-x="327" 
d="M388 273q4 -1 5.5 -1.5t5.5 -2.5q-3 -11 -10.5 -29t-9.5 -31q-2 -10 -3 -14t-4 -13q-5 -20 -11 -35t-12 -35l-24 -45q-5 -13 -12.5 -27.5t-14.5 -23.5q-3 -5 -6.5 -10t-5.5 -9t-5.5 -8t-12.5 -7q-5 -2 -12.5 -4t-15.5 1q-4 0 -12 4q-7 2 -13 4t-10 6q-2 2 -3 4l-2 4
q-4 14 -6 31q-1 6 -0.5 12t1.5 12v28q-2 11 -1.5 20t1.5 19q0 9 1 23.5t2.5 30.5t3.5 31t4 23q0 7 1 11q1 10 1 19.5v20.5q-1 15 -12.5 22.5t-25.5 5.5q-7 2 -12 -1q-17 0 -26 -14q-2 -3 -4 -5.5t-4 -4.5q-1 0 -3 -14.5t-4.5 -35t-4 -41t-1.5 -31.5q2 -32 -4 -60
q-2 -16 -2.5 -31.5t-6.5 -30.5q-3 -8 -6.5 -17.5t-8.5 -17.5q-9 -16 -21.5 -31t-26.5 -28q-11 -10 -23 -17q-3 -3 -6.5 -4.5t-6.5 -3.5q-11 -9 -23.5 -16t-25.5 -14q-7 -3 -13.5 -3h-14.5q-3 0 -6 1t-7 0q-11 0 -20 5t-16 11q-6 2 -6 6q-1 1 2 6v3q1 0 1 0.5t1 0.5
q10 -3 18.5 -2t17.5 3q3 1 6.5 2t6.5 1q9 4 18 7t17 7q10 5 18 10t14 13q9 10 15.5 20.5t12.5 22.5q2 3 3.5 6.5t2.5 6.5q5 11 5 20.5t4 19.5t2 26q1 11 1 22t1 22q0 6 -0.5 11.5t0.5 10.5v18t0.5 25.5t1 25.5t0.5 18q1 8 1 14.5v13.5q2 12 3 24l2 24q5 61 6 88.5t1 32.5
q0 10 -0.5 19.5t1.5 18.5q3 17 3.5 31t2.5 32q2 10 4.5 19.5t2.5 20.5q-1 9 4.5 20t6.5 19q2 7 7.5 16.5t7.5 16.5q6 8 11 16.5t12 15.5q5 6 19 8q5 -1 10 -1.5t10 -1.5q11 0 16 -8q2 -2 4 -2.5t5 -2.5q2 -2 4 -3t4 -3q5 -6 9 -12t8 -11q8 -14 12 -28.5t1 -30.5
q-2 -10 -2.5 -19.5t-2.5 -20.5q-2 -8 -5 -15t-5 -14q-4 -14 -11.5 -26.5t-16.5 -23.5q-6 -9 -12.5 -19t-14.5 -18q-6 -7 -13 -13t-15 -12q1 -11 0.5 -21.5t1.5 -21.5q-1 -8 1 -16t-1 -25q1 -7 -2 -16q5 1 7.5 3.5l4.5 4.5q14 15 34 17h12.5t11.5 2q6 2 10.5 0.5t9.5 -1.5
q10 -2 16 0q7 1 16.5 -2t18.5 -8.5t15.5 -12.5t8.5 -13q3 -12 3.5 -24.5t-1.5 -24.5q-1 -10 -2.5 -26t-2.5 -33.5t-2 -33t-2 -25.5q-2 -15 -5 -30t-5 -29q-2 -5 -2 -8.5t-2 -8.5q1 -3 2 -5.5t2 -5.5q1 -2 7 -2t11 2q8 8 16 19.5t14 22.5q6 14 17 33.5t15 37.5q5 20 9 32
t9 31q1 6 4 13.5t7 15.5t7.5 15.5t4.5 13.5h3zM115 486q-2 -15 -1 -29.5t2 -29.5q0 -1 0.5 -1t0.5 -2q4 2 5 3q4 4 8 8.5t8 9.5q8 9 14.5 19t11.5 21q2 5 4 9l4 8q5 11 9.5 21t9.5 21q3 8 5.5 17.5t3.5 18.5q4 23 -5.5 41.5t-27.5 34.5l-2 -2q-11 -11 -15.5 -22.5
t-8.5 -25.5q-5 -19 -9 -31.5t-10 -36.5q-2 -9 -4 -25t-3 -27z" />
    <glyph glyph-name="N" unicode="N" horiz-adv-x="382" 
d="M438 682q2 -2 5.5 -3.5t3.5 -4.5v-1q1 -2 -7 -4.5t-16 -1.5l-4 -2l-9 -5q-8 -6 -15 -7q-9 -6 -15 -16q-8 -12 -12.5 -23t-8.5 -23q-2 -8 -3 -15.5t-2 -14.5q0 -4 -2.5 -22t-5 -38.5t-5 -37.5t-2.5 -18q1 -3 0.5 -6.5t-0.5 -6.5q-1 -7 -1 -14.5v-15.5q0 -4 0.5 -7.5
t-0.5 -7.5l1 -14v-18t0.5 -37.5t0.5 -37.5v-18v-24q-2 -10 -2 -20t-1 -20l2 -67q0 -11 0.5 -20.5t0.5 -20.5v-9q0 -4 -1 -6v-2q2 -9 1.5 -19.5t3.5 -13.5l7 -5l5 -5q4 -4 6 -5l2 -2l1 -1v-2q0 -8 -5 -9q-1 0 -2 -1v-1q-3 -1 -7 -2t-13 0.5t-24.5 6t-41.5 14.5q-3 2 -5.5 5
t-4.5 5q-3 4 -6 7t-5 8q-2 4 -7 16t-7 17l-3 9l-6 12q-2 5 -4 11.5t-4 11.5q-1 1 -6 12.5t-11 24t-11 23.5t-5 13q-4 9 -5 11t-3 11l-9 22q-1 2 -4 10.5t-7 19t-8.5 20.5t-7.5 16q-1 4 -3 8t-5 11l-16 36q-3 8 -6 17t-7 18q-2 3 -6 10t-9 14.5t-9.5 13.5t-5.5 8q0 1 -2 3v-1
q-1 -6 0 -11v-41q-3 -7 -1 -14q0 -2 0.5 -4.5t-0.5 -4.5v-20t-0.5 -38t-1 -35t-0.5 -12v-17q0 -6 -0.5 -23.5t-1 -40l-1 -45t1.5 -38.5l-2 -25l-3 -36q-1 -30 -8 -54q-1 -7 -3 -12.5t-4 -11.5q-6 -24 -27 -35q-2 -2 -4.5 -3.5t-4.5 -3.5q-12 -5 -20 -6.5t-17 -1.5
q-2 0 -4.5 0.5t-4.5 0.5q-11 0 -16 1q-10 2 -14 6q-5 2 -10.5 7t-21.5 17q-1 1 -1 3l-3 4l-2 6q0 3 -1 11t-2 12q-1 3 -1 9v8q1 5 0 8.5t-1 8.5q0 4 2 10q0 2 0.5 3t0.5 2q0 2 2.5 6.5t5.5 8.5t5.5 6.5t3.5 2.5q4 -2 9 3q1 0 3 2l1 2l6 -4q-2 -5 -3.5 -9t-4.5 -7
q-2 -2 -2 -3l-4 -9q0 1 -3 -2q-1 -5 -2 -9q-2 -10 -1 -12q-1 -6 1 -16q0 -6 1 -9q0 -6 2 -11.5t4 -11.5q2 -4 10 -9l2 -3q14 -12 27 -12q2 0 3.5 -0.5t3.5 -0.5q5 -1 10 -1.5t11 1.5l2 1q1 0 2 1l3 2q5 2 9.5 4.5t9.5 4.5t7 7q14 11 17 30l3 12q2 3 2.5 6.5t1.5 6.5
q0 3 1 11.5t2 19t2 22t1 19.5q0 3 0.5 6t0.5 6v13.5v25t0.5 48t2.5 82.5q0 3 -0.5 2t-0.5 6v28.5t1 69.5q0 2 0.5 11t1 19.5t0.5 18.5v8v13q-1 5 -0.5 10t-0.5 10q0 1 -0.5 1.5t-0.5 1.5v1q-7 5 -13.5 11.5t-14.5 12.5q0 1 -2 1q-1 0 -1.5 0.5t-1.5 0.5h-1q-2 1 -3 1t-2 1
q-6 6 -7 9q1 2 1 8.5t2 7.5l1 1h3q2 1 6 4t6 4q5 1 12.5 0.5t12.5 -0.5h3q8 0 10 -1h1q11 -2 20.5 -4.5t17.5 -6.5q4 -2 8 -8q1 -2 5.5 -7t9 -10.5t8.5 -10l4 -4.5l13 -18q3 -6 7.5 -15.5t9.5 -19.5t8.5 -18.5t5.5 -12.5q1 -2 5.5 -12t10 -21.5t10 -22t5.5 -11.5
q0 -1 6 -10.5t12.5 -21.5t11.5 -23.5t4 -16.5q1 -3 3 -6t4 -8q0 -2 2 -9t3 -10v-1q1 -2 4 -9t4 -11q1 -3 5.5 -12.5t10.5 -21.5t10.5 -23t5.5 -16q2 -8 6 -17q4 -8 4.5 -18t5.5 -20q2 -2 2.5 -3t2.5 -3v2l-1 9l2 31q-1 5 -1 15q-2 6 -1 9v4v3q0 3 -0.5 14.5t-0.5 25v24.5v13
q0 9 2 19v1q2 5 1.5 10.5t-1.5 10.5v116v13.5t-1 13.5v19v9q0 3 1.5 20.5t3.5 37.5t3.5 36.5t2.5 18.5q0 6 1 8v4l1 16q0 1 4.5 13.5t9.5 26t9 24t4 9.5l2 4l3 3q2 4 5 6.5t5 5.5q4 4 5 6q2 2 3 2l6 5q4 4 7 5q2 0 3 1q5 2 8.5 3t8.5 2q2 0 2 1h2q5 -1 8 -1t7 -2z" />
    <glyph glyph-name="i" unicode="i" horiz-adv-x="170" 
d="M44 419q-14 8 -8 27q4 11 11 20t13 18q4 7 10 4l16 -8t10 -15q1 -1 1 -3q1 -1 0.5 -2t0.5 -3q-2 -9 -1.5 -19.5t-4.5 -20.5q-2 -2 -3.5 -4.5t-3.5 -4.5q-7 -4 -11 -3q-8 3 -15 6.5zM229 265q10 -2 15 -4q-3 -12 -7 -25t-9 -24q-8 -17 -12 -28t-7 -20.5t-6 -20.5t-9 -27
l-14 -41q-4 -14 -12 -27.5t-13 -26.5q-2 -5 -5.5 -11t-5.5 -10q-2 -5 -6 -9t-13 -7q-4 -1 -2.5 -0.5t-3.5 -0.5q-2 -1 -3 -2.5t-5 -1.5h-1h-1q-6 2 -11 4q-4 1 -10 3q-2 1 -4 1.5t-4 1.5q-9 6 -12.5 12t-11.5 13q-6 6 -10 13t-4 16q-1 5 -2 10.5t-2 10.5q-1 18 1 39.5
t0 51.5q0 6 -0.5 20t-1.5 31.5l-2 35t-2 31.5q-1 10 -2 18.5t-6 16.5t-8.5 15.5t-8.5 15.5l-6 9q-1 2 -1 3t-1 3q4 8 11 8.5t13 0.5q9 0 12 -1t11 -4q4 -2 8 -2.5t9 -2.5q15 -4 19.5 -13.5t12.5 -22.5q11 -17 12.5 -35.5t-0.5 -38.5q-1 -5 -0.5 -18t1 -29.5t0.5 -34v-29.5
q0 -20 0.5 -38.5t1.5 -38.5v-6q1 -2 2 -2.5t2 -2.5l6 -9q16 -2 23 9q6 10 13 21t10 21q2 6 4 11.5t4 12.5l2 12q4 16 8 27t8 20.5t8.5 21t9.5 28.5q3 12 8 23.5t8 22.5h2z" />
    <glyph glyph-name="k" unicode="k" horiz-adv-x="337" 
d="M406 295q10 -2 15 -4q-2 -6 -5.5 -15t-7 -18.5t-7 -18.5t-4.5 -15q-2 -10 -8.5 -30.5t-11.5 -44.5q-8 -27 -14.5 -53t-12.5 -49l-15 -43q-6 -25 -16.5 -40.5t-20 -24t-17.5 -11t-10 -0.5q-8 0 -14 2q-3 1 -5 1q-14 8 -22 18.5t-14 26.5q-8 20 -7.5 45.5t0.5 46.5
q1 11 -1 21t-1 21q0 5 -0.5 9.5t-0.5 9.5v21t-1 21t-2.5 22t-10.5 19q-8 8 -14.5 13t-19.5 7q-10 2 -17.5 0.5t-10.5 -1.5q-1 -9 -1 -17.5t-1 -16.5q-1 -10 -2 -19.5t-2 -19.5v-10q2 -14 0.5 -27t-3.5 -26q-1 -8 -1.5 -15t-2.5 -15q-2 -13 -5.5 -25t-9.5 -24
q-6 -14 -14.5 -25.5t-17.5 -22.5q-6 -7 -11 -14t-12 -14q-7 -8 -14 -15t-17 -12q-5 -3 -8.5 -6.5t-8.5 -7.5q-2 -2 -5 -3.5t-5 -3.5q-20 -12 -39 -18q-8 -3 -16.5 -3t-16.5 2q-14 3 -26 3q-6 0 -11 2.5t-10 5.5q-5 4 -4 11q2 5 4 13h8q1 -1 3 -1q1 -1 2 -1q11 -8 29 4h-1
q3 2 5.5 2.5t5.5 2.5q8 0 15 3t15 5q7 2 9 4q4 5 9 6t9 5q4 5 7.5 9t6.5 9q5 5 9.5 11t9.5 12q2 3 3 5.5t3 5.5q2 8 5 14.5t5 14.5q4 14 7 28.5t6 28.5l4 24l4 24q2 9 2 18t2 18q5 28 7 56l4 56q2 8 2 16t1 16v18q-1 2 0 5q4 20 3 39t0 39v7q0 8 -0.5 16.5t-0.5 17.5
q0 5 -0.5 9t-0.5 9q1 15 1.5 29.5t2.5 29.5q1 8 1 21t2 21q-1 -6 0.5 1t4 17.5t5 21.5t4.5 14q2 15 11 26.5t20 20.5q5 4 8.5 8t8.5 7q5 4 13 5.5t13 2.5h6q14 -1 23.5 -10t11.5 -12q5 -6 9 -12t7 -13q3 -8 5.5 -21t2.5 -27.5t-3 -29.5t-11 -28q-8 -18 -19.5 -37.5
t-23.5 -35.5q-6 -8 -13.5 -14.5t-14.5 -13.5l-3.5 -3.5l-3.5 -3.5t-2 -6q-1 -5 -1 -10v-10q0 -4 0 -3.5v2v2.5t0 -3q0 -15 -0.5 -30.5t-0.5 -31.5q0 -2 1 -3q5 7 9 13t7 13q4 7 9 13t10 11q8 8 16 13.5t16 11.5q11 8 26 9t27 -7q3 -2 11 -6q6 -5 7.5 -11.5t3.5 -14.5
q2 -14 -0.5 -28t-7.5 -28q-4 -8 -8.5 -16t-10.5 -15q-3 -4 -10.5 -9t-15 -9.5t-15 -9.5t-10.5 -9q5 0 10.5 -2.5t10.5 -3.5q6 -2 9 -4q17 -12 29 -28.5t13 -39.5q2 -25 4 -44t2 -40q0 -8 0.5 -13t1 -11.5t-0.5 -18t-4 -32.5v-12.5t0.5 -18t2.5 -18t6 -12.5q8 -2 19.5 16
t19.5 41q2 6 5 13t5 13l4 13q1 4 4.5 17.5t7.5 28.5t7.5 28.5t5.5 18.5q6 20 10 42t10 41q1 6 5 15t7.5 18t7 17.5t5.5 14.5h2zM141 509q-1 -14 -2 -29t-3 -30q1 1 2 1q8 8 15 15.5t13 16.5l4 4l4 4q4 5 8 11t6 11q5 12 9 23t7 21q2 6 4 10t3 8t0.5 9.5t-1.5 15.5
q-2 8 -4 14.5t-4 14.5q-4 18 -22 29q-3 -3 -3 -4q-3 -6 -7.5 -12t-8.5 -13q-3 -4 -6 -13t-5.5 -18.5t-4.5 -17.5t-2 -9q-1 -5 -1.5 -10t-0.5 -10q-1 -8 0 -21t0 -21zM182 286q9 8 18 14.5t17 14.5q6 5 10.5 10.5t9.5 11.5q12 17 11 38q-1 5 -1.5 7t-0.5 9q-8 4 -10 4
q-9 1 -18 0.5t-17 -7.5q-8 -5 -15.5 -11t-15.5 -12q-2 -4 -4 -6q-2 -5 -5 -9t-5 -9l-21 -36q-3 -5 -3.5 -6.5t-0.5 -6.5q0 -9 -0.5 -17.5t-0.5 -18.5q16 3 28 12z" />
    <glyph glyph-name="j" unicode="j" horiz-adv-x="192" 
d="M180 566q-3 -18 -22 -23q-5 -2 -8.5 -4t-8.5 -4q-9 -3 -13 4q-6 8 -10.5 15.5t-2.5 18.5q5 21 22 25q2 0 3 1q6 2 11 3.5t12 -3.5q5 -4 8.5 -8t5.5 -10q2 -4 3 -5v-10zM261 288h-3q-3 -11 -9 -21t-9 -22q-3 -10 -6 -16.5t-6.5 -12t-7.5 -11.5t-8 -15q-16 -32 -30.5 -55.5
t-28.5 -46.5l-3 -3q-3 -6 -11.5 -12.5t-17.5 -17.5q0 -1 -1 -2v17q0 4 1 9q0 6 1 11.5t2 10.5t2 9.5t2 9.5q-1 6 0 11.5t2 10.5q1 11 2 20.5t2 19.5q2 13 2.5 25t2.5 25q2 11 3.5 23t3.5 23q3 21 6 41.5t3 42.5v23q-2 15 2.5 28t11.5 26l15 30l-2 35q-2 -1 -5 -0.5t-5 -1.5
q-17 -11 -31 -22q-16 -12 -28 -28q-11 -17 -20.5 -35.5t-14.5 -38.5q-2 -11 -6 -23t-4 -24q0 -5 -0.5 -8t-1.5 -7q-1 -7 -2 -13.5t-2 -12.5q-2 -21 -3.5 -40.5t-3.5 -38.5q-2 -9 -2 -18t-2 -17q-5 -25 -4.5 -49.5t1.5 -49.5q0 -6 -0.5 -20t-2 -29t-2 -29t-0.5 -21
q-8 -14 -14.5 -20.5t-11.5 -15.5q-5 -8 -10.5 -16.5t-10.5 -17.5q-2 -5 -5.5 -9t-5.5 -9q-6 -11 -8.5 -16l-4.5 -9t-4.5 -9.5t-6.5 -16.5q-8 -18 -15.5 -25.5t-14.5 -25.5q-6 -16 -12.5 -31.5t-11.5 -32.5q-4 -14 -11.5 -29t-8.5 -30v-15v-23t3 -23q4 -15 13 -20.5t23 -4.5
q11 2 21.5 4t20.5 8q14 8 27.5 16t24.5 19l9 6l9 9q5 8 11 16.5t11 17.5q8 13 14 26t9 28l6 26t6 27q3 15 6 30.5t2 32.5q-2 15 0 29.5t4 29.5l3 39q2 11 2.5 21.5t1.5 21.5q1 8 2 16.5t2 16.5q3 3 6.5 7.5t6.5 8.5q18 14 31 34t27 40l16 31q9 18 18.5 31.5t18.5 31.5
q4 8 10 16.5t8 18.5q3 12 7.5 23t7.5 23q-4 2 -14 4v0zM42 -89q0 -3 -0.5 -6t-0.5 -6q-2 -12 -1.5 -25t-1.5 -25q-2 -7 -2.5 -13t-1.5 -13q-1 -5 -2 -9.5t-1 -9.5q-2 -14 -4.5 -26.5t-6.5 -25.5q-6 -18 -9 -32q-7 -24 -21 -49q-5 -9 -10.5 -18.5t-11.5 -18.5q-8 -11 -14 -15
t-20 -8q-8 -2 -15.5 2.5t-7.5 12.5q-1 4 -1 7t-1 7q-4 14 3 24.5t9 25.5q2 12 5.5 23.5t6.5 23.5t9 23.5t11 23.5t8.5 15.5t8.5 16.5q2 5 4.5 8.5t4.5 8.5q5 13 10.5 24.5t12.5 22.5q4 7 5.5 9.5t1.5 3.5t1 3.5t5 9.5t11.5 16t17.5 22q-1 -7 -1 -16.5t-1 -16.5z" />
    <glyph glyph-name="l" unicode="l" horiz-adv-x="223" 
d="M286 258q10 -2 15 -4q-2 -6 -4.5 -15t-5.5 -18.5t-6 -18.5t-4 -15q-2 -10 -10.5 -30.5t-13.5 -44.5l-33 -86q-9 -22 -19 -35.5t-20 -21t-18.5 -10.5t-14.5 -5q-31 -10 -57 4t-38 46q-6 21 -8.5 47t-6.5 55q-3 11 -2.5 10.5t0.5 7.5q0 -5 -0.5 9t-1 33t-1 37t-0.5 21
q0 8 0.5 17t0.5 17q1 9 1.5 17.5t2.5 16.5q1 5 0.5 9t0.5 9t1.5 10.5t0.5 10.5q1 3 0.5 5.5t0.5 5.5q0 1 0.5 1t0.5 1q-3 6 -1.5 11.5t2.5 10.5t2 9t0 8q-1 12 0 22q3 23 4.5 30.5t3 12t4 13.5t7.5 36q2 9 4.5 16.5t5.5 21.5q6 29 24.5 55t47.5 35q7 2 14 3t15 2
q2 0 5.5 -1.5t5.5 -3.5q7 -5 13 -20t7 -20q2 -12 5.5 -23.5t3.5 -23.5q0 -8 -2.5 -28t-12.5 -42q-4 -13 -11 -31.5t-12 -31.5q-2 -5 -5.5 -13.5t-7.5 -17t-7.5 -16.5t-6.5 -12q-3 -5 -8 -14.5t-11 -20t-11.5 -20.5t-9.5 -14q-2 -1 -2 -5q-1 -5 -0.5 -15.5t-1.5 -16.5
q-1 -18 -1.5 -46t-1.5 -46q0 -12 -0.5 -17t-0.5 -9t-0.5 -9.5t-0.5 -16.5q-1 -15 1 -29.5t3 -28.5q0 -2 1 -5l2 -6q4 -10 5 -14q5 -10 18 -17t28 -7q9 2 21.5 14.5t23.5 33.5q3 5 4.5 9t4 11t7.5 19t14 34q8 19 13 41.5t11 41.5q1 6 4 15t6.5 18t6 17.5t4.5 14.5h2zM116 350
q-1 -10 -1 -20t-1 -21q10 17 23.5 42t21.5 44q5 13 11 23t10 24q6 23 11.5 35t8.5 22t3.5 23t-2.5 38q0 4 -1.5 7t-1.5 7q-1 4 -6 10t-8 8q-7 -3 -13.5 -9t-13.5 -17q-20 -30 -23 -69q-4 -38 -5.5 -56t-2.5 -24t-1 -4.5v2t-0.5 -4.5t-2.5 -23q-1 -7 -1.5 -11t-1.5 -7.5
t-1.5 -7.5t-1.5 -11z" />
    <glyph glyph-name="m" unicode="m" horiz-adv-x="463" 
d="M554 266q8 -2 2 -21q-2 -6 -6.5 -22.5t-9.5 -35t-9.5 -35.5t-5.5 -23q-2 -10 -3 -14t-4 -13q-2 -10 -5 -24t-6.5 -28t-7.5 -27t-7 -20l-21 -45q-5 -13 -12.5 -27.5t-14.5 -23.5l-12 -19q-1 -2 -1.5 -2.5t-1.5 -2.5q-2 -3 -5.5 -5.5t-9.5 -4.5q-5 -2 -12.5 -4t-15.5 1
q-4 0 -12 4q-7 2 -13 8.5t-10 10.5q-2 2 -3 4l-2 4q-2 8 -8.5 18.5t-7.5 18.5q-3 13 -3 27q0 6 -1 8q-2 16 0 31.5t5 30.5q2 9 3 18.5t3 18.5q2 23 4.5 45.5t4.5 45.5q1 8 2.5 17t3.5 17l3 42q0 6 0.5 6.5t0.5 0v0v5.5q-1 18 -1 36t-4 36q-2 10 -4 19t-7 17q-7 11 -10 11
t-14 -6q-6 -4 -8.5 -6l-12.5 -10q-1 0 -1 -1t-1 -1q-8 -3 -7.5 -10t1.5 -13q3 -17 4.5 -30t3.5 -29q2 -8 2.5 -15t1.5 -15q1 -7 0.5 -9t-1 -3.5t-1.5 -3.5t-2 -9q-3 -27 -13 -48q-6 -14 -14.5 -26.5t-20.5 -23.5q-17 -16 -43 -19q-4 0 -7 -1.5t-7 -2.5q-6 5 -6.5 7t3.5 8
t7.5 12t6.5 13q2 5 3 11.5t3 12.5q1 3 0.5 6t1.5 6q3 11 3 22.5t1 23.5q0 5 0.5 9.5t1.5 9.5q2 8 3 15.5t3 15.5q1 11 1.5 17t0.5 11.5t-1 12t-2 17.5l-2 12t-5 12q-6 9 -10.5 8.5t-14.5 -5.5q-3 -2 -7.5 -6.5t-9.5 -10t-9 -10.5t-6 -7t-4.5 -5.5t-4.5 -5.5q-5 -5 -5 -6.5
v-4.5q-1 -15 -2 -20t-2 -20q0 -4 -0.5 -3.5t-0.5 2.5v2.5t0 -3.5q-2 -14 -2.5 -28.5t-2.5 -28.5q-2 -23 -7 -44.5t-12 -42.5q-6 -17 -16 -31.5t-27 -23.5q-2 -2 -3.5 -2.5t-3.5 -2.5q-9 -8 -19.5 -13.5t-20.5 -11.5q-2 -1 -4.5 -2.5t-5.5 -3.5q-8 3 -5 11q2 3 2.5 6.5
t2.5 5.5q10 14 14 30.5t9 32.5q10 30 11 58q1 5 2 9.5t1 9.5q1 9 4 30t6 44t5 43t1 27q-1 17 -1 33t-1 33q-2 15 -6 28.5t-10 26.5q-2 5 -4 8.5t-4 8.5t0.5 7.5l4.5 4.5q14 -2 24 -8.5t21 -14.5q5 -4 11.5 -7t11.5 -8q3 -2 6 -4.5t5 -5.5q10 -17 15 -36q4 -23 4 -50
q-1 -2 -0.5 -3.5t0.5 -4.5q2 2 3.5 5.5t3.5 4.5l9 9l9 9q5 4 9.5 10t9.5 9q5 2 9 4.5t9 5.5t11 3t12 1q3 1 6.5 1t7.5 1q14 2 23 -9q4 -6 7.5 -12t7.5 -11h1q8 6 10.5 9t6.5 8q2 2 3.5 5.5t3.5 4.5q8 11 19 18t20 16q2 2 4 2q16 4 31.5 5.5t30.5 -9.5q5 -5 8 -11
q6 -17 10 -34.5t0 -37.5q-3 -16 -2 -38t1 -39q-1 -7 -1.5 -9.5t-1 -4t-1 -4.5t-0.5 -10q-1 -17 -1.5 -33t-2.5 -33t-3.5 -35t-3.5 -36q-2 -14 -5 -26.5t-5 -26.5q-2 -15 -2.5 -30.5t2.5 -30.5q1 -7 1.5 -14t2.5 -14l2 -2q-1 -1 -1 -3q2 -5 3.5 -9t3.5 -8h7t7 2q8 8 16 19.5
t14 22.5q6 14 14.5 33.5t12.5 37.5q5 20 11.5 46.5t11.5 45.5q1 6 5.5 22t9.5 34.5t10 35t6 22.5l8 16z" />
    <glyph glyph-name="n" unicode="n" horiz-adv-x="321" 
d="M393 268q0 -5 2.5 -10t1.5 -10t-4 -10t-5 -9l-3.5 -7t-3.5 -6q-9 -18 -15.5 -32t-11.5 -26l-10 -24t-11 -27t-10.5 -22.5t-12.5 -17.5q-6 -6 -12.5 -16t-19.5 -12q-8 1 -21 0.5t-21 3.5q-7 3 -17 7t-15 9q-3 4 -11 16.5t-8 22.5q0 1 0.5 10.5t0.5 21v21v9.5q0 2 0.5 10.5
t2 18.5t2.5 18t1 10q0 8 0.5 11.5t0.5 6.5t0.5 7l1.5 12q2 15 3.5 30t3.5 29q2 8 1.5 15.5t-5.5 14.5q-4 8 -15 4q-5 0 -10.5 -7.5t-10.5 -16.5t-9 -17t-5 -9q-4 -5 -7 -10.5t-7 -10.5q1 -1 -7 -9.5t-10 -10.5q-1 -8 -2 -12t-1.5 -7.5t-1.5 -7.5t-1 -13q-1 -15 -2.5 -34.5
t-2.5 -40.5t-2 -40.5t-1 -34.5q-6 -20 -8.5 -38.5t-13.5 -36.5q-1 -3 -6 -8l-16 -18t-16 -17q-4 -5 -14 -9q-8 -4 -16 -3t-17 -3q-10 -4 -18 1q1 2 1.5 5t2.5 5q13 17 22 30t16 32q10 29 11 61t2 61q1 8 1 25t1 25q1 6 1.5 15.5t0.5 19v17v9.5q4 20 5.5 39t-1.5 39
q-1 8 -4 16.5t-6 16.5q-3 7 -6 13.5t-7 12.5q0 2 -1 2.5t-2 2.5q-3 4 -4.5 8t3.5 9h6.5t6.5 -1l22 -6t22 -7q3 -2 6.5 -4.5t5.5 -5.5q2 -8 9 -13.5t10 -12.5q4 -9 7 -18t4 -19q0 -6 0.5 -12.5t0.5 -13.5l2 -6q7 7 10 11q15 20 27.5 44.5t34.5 37.5q3 1 7 0q10 -2 30 -4.5
t30 -4.5q6 -1 9 -8q11 -16 14.5 -33.5t1.5 -36.5q0 -11 -3 -23q-2 -6 -2.5 -12.5t-1.5 -12.5q-1 -8 -1.5 -12.5t-1 -7.5t-1.5 -7.5t-2 -12.5q0 -6 -1 -12.5t-2 -12.5v-28l2 -18t2 -17q1 -11 6 -19t13 -15q5 2 8.5 5t6.5 7q8 10 11 15.5t10 21.5q2 3 4 10t4 10q6 10 10 19.5
t9 20.5q2 3 3.5 6t3.5 8q11 20 15.5 34t15.5 29q2 2 2.5 3.5t2.5 3.5z" />
    <glyph glyph-name="o" unicode="o" horiz-adv-x="382" 
d="M372 200q-8 -8 -13 -15.5t-15 -13.5q-3 -2 -6 -5t-6 -5q-10 -7 -16 -13.5t-16 -11.5t-20 -9t-21 -2q-4 0 -7 -3l-16 -14t-16 -15q-8 -6 -15.5 -11.5t-15.5 -10.5l-11 -5.5t-5.5 -2t-6.5 -0.5t-12 -1q-11 -1 -21.5 0t-20.5 6q-4 2 -7 4.5t-6 4.5q-6 5 -12 10.5t-11 11.5
q-11 16 -16 34q-5 17 -9.5 34.5t-9.5 34.5q-2 7 -1 20t3 26.5t5 26.5t6 21q2 8 4 15t5 15q4 8 8 14.5t9 13.5q5 6 9 11.5t9 11.5q6 8 9.5 13t10.5 11l10 6l10 6q17 10 41 10q4 0 7.5 1t7.5 1q18 1 31 -13q7 -5 4 -8t-9.5 -4.5t-13.5 -2t-8 -1.5q-10 -7 -18 -12.5t-15 -16.5
q-3 -3 -5.5 -6t-4.5 -6q-11 -19 -15.5 -30t-8.5 -25q-2 -8 -4 -12t-3.5 -8t-2.5 -9.5t-2 -15.5v-27q1 -21 3 -42.5t7 -41.5q2 -9 6 -17t9 -16q10 -18 17 -23.5t13 -3t12 10.5t14 17q4 4 6.5 8t5.5 9q5 6 4.5 9t-5.5 8q-4 6 -8 11.5t-8 11.5q-10 16 -15 35q-2 10 -4.5 19.5
t-4.5 18.5q-4 18 -1 39v9.5v6t0.5 6t1.5 9.5q3 27 18 49q6 9 27.5 15.5t40.5 0.5q8 -6 14 -10q24 -13 31 -37q5 -17 8.5 -24.5t4.5 -24.5q0 -3 -1 -6l-2 -6q-3 -20 -7.5 -39.5t-12.5 -38.5q-4 -10 -9 -19t-10 -19q-1 -3 -4 -9q6 2 11 3t10 4q9 6 15.5 11.5t15.5 11.5
q14 9 23 19.5t20 22.5q7 8 14 19q16 23 22 25t4 -12q-8 -21 -19 -34q-4 -5 -7 -7t-7 -7zM245 201q12 42 10 89q0 2 -2 6.5t-5 9.5t-6 9.5t-4 7.5q-5 11 -12.5 19t-18.5 15q-2 -2 -4 -3.5t-3 -3.5q-4 -8 -5.5 -15t-3.5 -15q-5 -20 -5.5 -31.5t1.5 -32.5q3 -23 7 -44t18 -40
q2 -4 5.5 -7.5t7.5 -8.5q4 8 7.5 14t6.5 13q4 9 6 18z" />
    <glyph glyph-name="p" unicode="p" horiz-adv-x="321" 
d="M386 296q-1 -7 0 -9.5t1 -10.5q-3 -6 -4 -10.5t-2.5 -9.5t-4.5 -11.5t-10 -16.5q-4 -5 -11 -12t-14.5 -13.5t-14 -12t-8.5 -6.5q-6 -4 -8 -5.5t-3.5 -3t-4.5 -4t-10 -8.5q-4 -4 -4 -8v-8v-9v-7t-0.5 -1.5t-1.5 -2t-2 -6.5q-3 -12 -8 -23t-12 -22l-8 -12l-8 -12
q-7 -11 -19 -19t-23 -15q-17 -12 -38 -6l-19 2q-11 2 -16 6.5t-7 15.5q-1 8 0.5 14.5t3.5 13.5q4 13 8 22t13 17q6 5 9.5 9.5t10.5 9.5l4 3q5 8 11.5 13t14.5 10q6 4 8 11t1 24q0 2 0.5 10t1 18t-0.5 21t-4 19q-3 6 -4.5 12.5t-4.5 12.5q-4 8 -7.5 15.5t-9.5 13.5t-12 7.5
t-12 0t-10 -4t-5 -3.5l-20 -19q-5 -7 -5 -13q1 -11 -0.5 -18t-1.5 -18l2 -52q0 -7 0.5 -5.5t1.5 -6.5q0 -11 0.5 -21t-0.5 -21l-7 -63q-2 -9 -1.5 -18t-0.5 -17q-2 -16 -4 -31.5t-4 -30.5q-1 -10 -2 -19t-3 -19q-3 -16 -4 -22.5t-1.5 -12t-1.5 -12t-4 -22.5
q-3 -11 -6.5 -22.5t-7.5 -22.5l-4 -16q-3 -15 -9 -28t-14 -26q-18 -29 -42 -46q-7 -5 -14 -9t-15 -8q-4 -2 -8.5 -4.5t-9.5 -4.5q-8 -4 -17 -7.5t-18 -5.5q-3 -2 -7 -2h-7q-12 0 -9 11l2 6q8 0 14.5 5t12.5 10q8 7 16 13t16 14q21 24 33 52q4 9 7 14.5t6.5 17t8 33.5
t10.5 63q1 8 0.5 16t1.5 16q5 20 6 40.5t1 41.5v35t1 35q0 12 1 24l2 24q2 11 3 22.5t2 22.5v12.5t-1 12.5v15t-1 15q0 5 -1 10.5t-2 11.5q-1 0 -1 -1q-1 6 -1 12t-2 12q2 4 1 6q-2 15 -0.5 30.5t-3.5 29.5q-2 5 -5 10l-6 10q-11 22 -28 36q2 4 3.5 6.5t6.5 2.5q2 0 4 1.5
t5 2.5q17 4 32 0.5t29 -17.5l14 -14q4 -5 7 -9.5t5 -10.5l15 -59q1 1 2.5 1t2.5 2l15 14q2 2 7.5 6t12.5 8.5t13.5 8t10.5 4.5q18 5 35 1t33 -15q14 -7 19 -18q2 -5 4 -14t4.5 -19.5t4.5 -20t3 -14.5q2 -7 3 -14t2 -15l3 -36q0 -1 1 -1q11 6 16.5 12.5t10.5 10.5
q8 5 17.5 15t16.5 16q5 5 10 13.5t9 17.5t7.5 17t5.5 12q3 1 7 7q-2 -4 -2 -6zM198 76q7 14 6 25.5t2 27.5l-13 -8l-31 -34q-9 -8 -13 -14t-6 -19q-3 -14 7 -20q7 5 11 -2q11 3 20.5 11t13.5 15z" />
    <glyph glyph-name="q" unicode="q" horiz-adv-x="360" 
d="M403 323q3 0 7 -1.5t6 -2.5q-2 -11 -7 -22t-7 -23q-3 -11 -8.5 -19.5t-9.5 -16.5q-8 -17 -17.5 -31t-18.5 -31l-16 -32q-14 -20 -27 -40t-32 -34l-4 -4t-3 -4q0 -7 -2 -11q2 -4 6 -9t6 -8q5 -9 13 -22.5t13 -25.5q5 -13 8.5 -21.5t6.5 -18t8 -21.5t13 -31q2 -7 5 -17
t5.5 -21.5t4 -22t1.5 -17.5q0 -8 -0.5 -22t-4.5 -22q-8 -17 -14.5 -28.5t-11.5 -18.5q-5 -8 -10 -12q-10 0 -22 2.5t-24 7.5q-4 0 -6.5 2.5l-4.5 4.5q-11 7 -17.5 16.5t-12.5 20.5q-5 9 -9.5 19.5t-6.5 21.5q-2 13 -3 25.5t-4 23.5q-5 22 -4 37t1 33v23v60l-2 4q-1 1 -1 3
q2 4 2.5 6.5t0.5 6.5v2q0 11 1 21t1 21v44q-5 -3 -11 -12.5t-10 -12.5q-8 -7 -16.5 -12.5t-18.5 -7.5q-20 -4 -37.5 -3t-32.5 12q-21 14 -28 40q-4 13 -11 28q-2 9 -0.5 17.5t-0.5 16.5q-2 11 -2 22.5v22.5v25v12q0 6 0.5 12t4.5 12q0 2 1 4.5t1 4.5q1 4 3 7.5t4 5.5
q2 4 3 6.5t4 7.5v3q0 2 1 2q0 2 2 3q3 3 3 5q2 2 2.5 3.5t2.5 2.5q6 7 13.5 14t13.5 15h2q5 3 10.5 7t12.5 6q8 2 16.5 3.5t17.5 3.5q12 2 21 -4q6 -2 14 -6t10 -6q5 -3 7.5 -6t7.5 -3q1 0 2.5 -2.5t4.5 -3.5q0 5 1 10t2 11q2 6 3 12.5t2 12.5q0 8 4 16l11.5 11.5t10.5 11.5
q2 5 5 11t9 8q8 4 12 8q7 6 15 9.5t14 8.5q3 2 4 4t4 4q1 0 3 3q6 1 10 0q8 -4 4 -11l-4.5 -5.5t-10 -12.5t-10 -13.5t-5.5 -8.5q-4 -32 -14 -69q-2 -16 -3.5 -30t-1.5 -29q-1 -10 -1 -19.5t-2 -17.5v-50v-38q0 -9 -1 -18t-2 -20q-4 -10 -4.5 -21t-2.5 -23q-2 -5 -2 -10.5
v-10.5q8 8 14.5 14t8.5 11l5 1q12 24 26.5 47.5t31.5 55.5q4 9 8 14.5t7 11t6.5 12t6.5 16.5q2 12 8.5 22t8.5 21h3zM202 138q-2 14 0.5 25t2.5 25q0 5 -1 11t-1 13q0 11 1 20.5t1 19.5q0 8 1.5 17t1.5 19q0 6 1.5 14.5t-1.5 16.5q0 3 1 5.5t1 6.5q0 3 2 5q2 6 0.5 9t-4.5 7
q-6 4 -11.5 9.5t-10.5 9.5q-6 2 -15.5 -0.5t-14.5 -4.5q-3 -2 -6.5 -8.5t-7 -14.5l-7 -16t-4.5 -12q-4 -8 -5 -17.5t-4 -20.5q-2 -5 -2 -15q0 -14 -2 -27t-3 -26q-1 -6 -1.5 -19t0 -27t2.5 -27t6 -19q3 -7 5 -10.5t8 -4.5q7 -2 8.5 -4t7.5 0l4.5 2.5t10.5 5.5t11.5 6.5
t8.5 5.5l6 8q2 3 5 6.5t5 5.5zM267 5q-1 2 -1 4t-2 6l-2 -131q3 -14 3.5 -28t1.5 -28q2 -8 1.5 -16t2.5 -16q2 -8 2 -18.5t5 -16.5t9 -11.5t10 -10.5q2 -4 5.5 -6.5t7.5 -0.5q2 2 6.5 8.5t8.5 16.5t6.5 22.5t1.5 25.5q0 20 -4.5 43t-9.5 41q-2 8 -6 17t-6 15l-21 43.5
t-13 24.5q0 8 -6 16z" />
    <glyph glyph-name="t" unicode="t" horiz-adv-x="259" 
d="M284 262q10 -2 15 -4q-2 -6 -4.5 -15t-5.5 -18.5t-6 -18.5t-4 -15q-1 -5 -2.5 -8t-3.5 -6.5t-4 -10t-5 -18.5l-32 -71l-19 -43q-6 -23 -15 -37t-18 -21.5t-17.5 -10.5t-12.5 -3q-11 1 -19 3.5t-15 5.5q-1 1 -2 1q-4 2 -6 4q-4 2 -7.5 4.5t-6.5 5.5q-4 2 -7 4.5t-6 4.5
q-2 2 -3.5 3t-2.5 2q-14 11 -22.5 26t-12.5 33q-2 13 -3 26l-2 26v16t-1 16q0 3 -1 12.5t-1.5 20t-0.5 20v14.5q0 7 0.5 13t0.5 13q1 5 1 9v9q0 12 2 23.5t4 22.5q1 4 1 12q2 23 3 44.5t3 44.5q0 4 1.5 16.5t3.5 26.5t3.5 26t1.5 16q0 1 -0.5 2t-0.5 3h-15q-8 -1 -16 -1h-16
q-8 -1 -14.5 0.5t-14.5 -0.5q-5 -2 -7 3q-2 3 -0.5 6t3.5 4q7 2 13.5 2t13.5 1q13 2 25 2.5t25 1.5q6 1 7 7q3 16 6.5 23.5t5.5 24.5q4 10 12 24.5t14 23.5q1 1 1 1.5t1 1.5q3 13 12.5 20t16.5 17q2 3 10.5 8.5t9.5 7.5q4 5 10 5q3 1 5 -2.5t0 -6.5q-1 -1 -9 -14t-10 -23
l-9 -45q-5 -24 -7 -37.5t-4 -36.5q2 0 4 -0.5t4 -0.5q7 2 13 2h13q12 -2 24 -0.5t25 -0.5q9 0 14 -0.5t12 0.5q4 1 10.5 -0.5t6.5 -6.5q-2 -5 -5.5 -5.5t-7.5 -2.5q-8 -4 -23.5 -4.5t-29.5 0.5h-19q-8 0 -16 -0.5t-16 -0.5q-7 -1 -8 -2t-2 -9q0 -7 -1.5 -21.5t-3.5 -31
t-3.5 -31.5t-1.5 -22q-2 -24 -3 -48.5t-3 -48.5q-1 -14 -2 -27.5t-3 -27.5v-13q0 -15 -0.5 -24t-1 -16t-0.5 -13t1 -16q1 -5 2 -9t1 -9q1 -11 1.5 -19t1.5 -15t2.5 -13.5t3.5 -15.5q3 -10 5.5 -20t5.5 -19q2 -3 6.5 -6t6.5 -6q5 -5 9.5 -7.5t14.5 -4.5q20 5 37 51q2 6 7 13
t7 13l4 13l33 78q3 10 4 13t2 5t2 5l4 12q1 6 4 15t6.5 18t6 17.5t4.5 14.5h2v0z" />
    <glyph glyph-name="u" unicode="u" horiz-adv-x="303" 
d="M382 253q4 -1 6.5 -3.5t5.5 -4.5q-2 -11 -9 -27.5t-9 -28.5q-2 -9 -3 -13t-4 -12q-4 -18 -8.5 -31.5t-9.5 -32.5l-19 -48q-5 -12 -12 -26t-14 -22l-11 -17q-1 -2 -6.5 -8.5t-10.5 -5.5q-5 -2 -11.5 -4t-14.5 1h-1q-4 1 -9.5 5t-10 8t-7.5 7.5t-3 4.5q-2 2 -3 4
q-7 8 -14 18t-9 21q0 6 -0.5 7t-0.5 0.5t-0.5 0.5t-1.5 7q0 8 -1 15t-2 15q-2 4 -3 8q-5 -5 -13.5 -15t-13.5 -13q-8 -8 -18.5 -11t-20.5 -7q-22 -9 -44 1q-9 4 -17.5 9t-13.5 16q-2 5 -4 9.5t-3 10.5q-1 9 -2.5 24.5t-2.5 46.5q1 4 0.5 7.5t0.5 6.5q1 8 3.5 28.5t4 44
t0 43.5t-7.5 27q-2 3 -2.5 6t-2.5 6q-17 25 -13.5 32t32.5 2q7 -2 17 -3.5t15 -5.5q11 -10 20 -18.5t10 -21.5q1 -9 1.5 -18.5t1.5 -19.5q0 -3 -1 -9.5t-2 -14t-2 -14.5t-1 -10v-14.5t0.5 -6t1 -6t0.5 -14.5t1 -21.5t2 -21.5q0 -2 0.5 -4t0.5 -4q2 -10 0.5 -20.5t0.5 -20.5
q2 -5 7 -15l6 -12q0 -1 8.5 0t16.5 6q3 1 7.5 6t9.5 10l9.5 9.5l6.5 6.5q1 18 0 33t-3 33v17q2 8 3 17t3 17q1 5 1 9.5t1 9.5q2 8 3.5 17.5t2.5 17.5q2 11 5.5 21t7.5 19q5 11 11 20.5t12 19.5q3 7 14.5 13.5t17.5 13.5q11 11 19 9.5t4 -13.5l-6 -18t-3 -19q0 -14 -4 -25
q-4 -15 -6.5 -30t-3.5 -31l-6 -36q-1 -6 -1 -12v-11q0 -9 0.5 -16.5t0.5 -15.5q1 -8 1.5 -16.5t0.5 -18.5t0.5 -24.5t1.5 -29t1.5 -27.5t0.5 -20q5 -10 13 -11q2 -1 7 1t7 4q8 7 12.5 17.5t9.5 21.5q6 13 16.5 33.5t13.5 37.5q5 18 8.5 29.5t8.5 29.5q2 11 9.5 29t9.5 29h3
v0z" />
    <glyph glyph-name="v" unicode="v" horiz-adv-x="305" 
d="M372 265q5 -3 -1.5 -14.5t-11.5 -16.5q-1 -1 -1 -3t-1 -3l-2 -2q-6 -6 -8.5 -12.5t-10.5 -13.5q-5 -5 -10.5 -13.5t-12.5 -16.5t-16.5 -14.5t-22.5 -7.5q-3 0 -6.5 -1t-6.5 -2q-2 -1 -3 -1t-3 -1q-4 0 -6 -1q-5 -2 -6 -5l-10 -30v-1q-4 -10 -7.5 -20t-8.5 -21
q-2 -5 -5 -8q-2 -3 -4 -7t-4 -6.5t-4 -5.5q-4 -4 -5 -6q-4 -6 -6 -8q-2 -4 -8 -12q-5 -9 -11 -16q-5 -7 -10.5 -15t-14.5 -22q-3 -5 -14 -9t-22 2v1q0 2 -0.5 3.5t-0.5 3.5v18v2q-2 3 0 6q-3 3 -3 8q0 1 -1 2q-1 5 -1 14q0 8 -1 14.5t-3 11.5q-4 8 -5.5 21.5t-2.5 18.5
q-1 2 0 4.5t0 4.5l-3 12q-1 2 -3 8q-1 1 -3 5v3q-1 1 -1 2q-1 1 -3 7.5t-10 34.5l-3 9q0 2 -0.5 3t-0.5 3q-1 2 -1 4q-2 5 -1.5 14t-2.5 16q-7 17 -9 25t-2.5 13t-1 8.5t-3.5 11.5q-3 7 -8.5 18l-11.5 23t-12.5 22.5t-11.5 16.5q-7 5 -14.5 9t-11 8.5t0 9.5t18.5 13
q8 2 8.5 3t7.5 1h8t8 -1q1 -1 4 -1h2q10 -1 17.5 -5t12.5 -9q12 -9 17.5 -19t12.5 -20q2 -4 5.5 -9t8.5 -25q1 -1 3 -5q11 -32 15 -42t5 -14t2 -10.5t6 -30.5q0 -6 1 -8l1 -8q2 -16 4 -26t4.5 -20t5.5 -23t8 -35q1 -2 1 -7.5t0.5 -11.5t1.5 -10.5t3 -5.5q1 -2 1 -6v-3
q1 0 5 4.5t8 10.5l7 10.5l3 4.5q3 3 4 5q4 5 6.5 10t5.5 10q0 1 2 5.5t4 10t4 10l2 4.5q1 2 3.5 11.5t3.5 9.5q2 4 1.5 8.5t-8.5 7.5l-1 1l-3 3l-1 1q-5 8 -10 15.5t-7 15.5q0 1 -0.5 2t-0.5 2q-4 5 -4 13q-1 1 -1 2q-2 10 -3 19t-1 17q-1 3 -1 11q-1 8 -1.5 15t1.5 15v8
q0 3 0.5 5.5t0.5 5.5q3 18 16 36l7.5 7.5t7.5 6.5q5 4 15 4q8 0 13 -2q10 -2 15 -9q0 -1 2 -3q5 -3 6.5 -7t3.5 -9v-1q2 -7 2.5 -13.5t1.5 -13.5v-5q0 -11 -1 -16v-4q-1 -6 -1 -10t-1 -9q-2 -10 -2 -16q-2 -6 -2.5 -12.5t-1.5 -13.5q-2 -11 -4.5 -20t-6.5 -19q-1 -2 -1.5 -4
t-1.5 -4q0 -3 -2 -7v-2q10 0 21 5l22 10q11 8 14.5 15.5t13.5 17.5q2 2 3 2q3 3 3.5 5t3.5 4q1 1 2.5 4.5t2.5 4.5q6 6 9.5 15.5t10.5 16.5q2 2 4.5 3.5t4.5 3.5zM241 199q1 2 3 8q1 3 1 8q0 2 0.5 3.5t0.5 3.5q1 3 1 6t1 6q1 4 1.5 8t1.5 8q0 5 0.5 9t0.5 9q1 1 1 4v8
q1 4 1 11q2 11 1.5 25t-10.5 24q-1 0 -2 0.5t-2 0.5q-3 1 -9 1h-2q-7 0 -13 -6q-7 -7 -11 -19q-2 -5 -3 -10.5t-1 -10.5q-1 -8 -1.5 -16.5t1.5 -17.5v-2q2 -10 2 -15q0 -9 1 -17.5t3 -16.5q2 -5 3 -8.5t2 -7.5q2 -5 4.5 -11t7.5 -12q2 -3 2.5 -4t4.5 -3q0 1 0.5 2t0.5 2
q1 3 1.5 6.5t2.5 6.5q1 3 1 4.5t2 4.5q0 1 0.5 1.5t0.5 2.5v4z" />
    <glyph glyph-name="w" unicode="w" horiz-adv-x="410" 
d="M490 284q5 -3 -0.5 -15t-10.5 -17q-1 -1 -0.5 -3t-0.5 -3q-1 0 -1 -1t-1 -2q-5 -6 -7.5 -12.5t-9.5 -14.5q-5 -6 -10 -14.5t-11.5 -18t-15 -19t-20.5 -17.5q-5 -3 -9.5 -5t-18.5 -7q-1 -6 -1 -5t-2 -5q-5 -21 -5.5 -43t-10.5 -42q-8 -19 -17 -32q-11 -19 -20.5 -31
t-32.5 -19q-5 0 -8.5 1.5t-6.5 3.5q-22 11 -33 35l-6 12t-5 12l-3 7v-1q-1 -1 -1 -2t-1 -3l-6 -13l-7 -18l-3 -7q-2 -6 -2 -7q-1 -1 -1 -2q-2 -7 -7 -9v-1q-2 -2 -2 -5l-5 -11l-2 -4t-3 -4l-1 -1l-9 -12q-4 -4 -5 -6l-3 -3q-4 -5 -8 -9.5t-10 -8.5l-1 -1q-7 -8 -15 -10
t-16 -2h-1q-11 0 -20 10l-8 9q-6 5 -9 11t-5 11q-2 8 -4 17l-4 18q-2 4 -2 7l-2 15q0 8 -1 12l-2 16q0 7 -1 10q-1 11 -2 21.5t-3 21.5l-3 22q-2 5 -2.5 10.5t-1.5 10.5t-2.5 16.5t-3 25t-3.5 26t-3 20.5q-1 7 -2 10t-2 4.5t-2 4t-2 7.5q0 3 -1 6l-2 6l-2 6q-5 17 -17 37v2
q-5 12 -13 20l-2 1l1 1l-2 2l-8 10l-1 1q-1 0 -1 1q-3 4 -3.5 6.5t-0.5 4.5q2 6 8 10q7 4 21 5t22 -3q12 -5 23.5 -9t19.5 -15q3 -4 5.5 -8t6.5 -9q4 -6 6.5 -12t4.5 -12l2 -4q2 -6 3 -12.5t2 -12.5l2 -14q2 -6 2 -9q0 -2 3 -14.5t6.5 -27t6 -25.5t1.5 -11q1 -3 2 -6.5
t1 -6.5q2 -11 4.5 -28t4.5 -35t4 -34.5t4 -24.5v-8q1 -4 1 -12q2 -12 2 -21t17 -19q5 -2 8 2.5t6 8.5l5 7l1 1l1 2l5 14l6 16q2 5 3.5 9t3.5 8q8 16 8 32v7q0 8 -0.5 17t-2.5 17v3q-1 1 -1 2q-5 10 2 16q1 1 0 3v2q-1 9 8 14h2q7 -5 9 -12q0 -2 1 -2q3 -4 4 -8t2 -9v-4l2 -7
q0 -3 0.5 -5.5t0.5 -5.5q1 0 1 -1q0 -2 0.5 -4.5t0.5 -4.5q-1 -3 2 -9q3 -5 5 -13q1 -5 3 -9t4 -9q1 -4 5 -12q2 -8 7 -17t16 -14q4 -2 8.5 -0.5t8.5 13.5t8 38t8 71q1 5 1 15v9q0 2 -2 3h-1q-6 0 -10 4h-2q-4 0 -7 3q-1 0 -1 1q-18 13 -24 33q0 2 -2 4q-9 14 -10 24
q-3 12 -5 23.5t-4 21.5q-1 7 -1.5 15.5t3.5 16.5v1q0 1 -0.5 1.5t-0.5 1.5q1 8 4 15l6 14l2 4q1 1 1 2q2 4 2 5q2 3 4.5 7t7.5 7q2 0 4 3q3 5 7.5 6t9.5 2l1 1h7q3 0 6.5 -0.5t7.5 -0.5q1 -1 4 -1q2 0 4.5 -1t4.5 -2q2 -2 6 -4q6 -3 12 -7t11 -10q5 -8 9.5 -17t6.5 -18
q3 -12 4.5 -24.5t3.5 -26.5v-6.5t1 -6.5l2 -18q0 -4 -0.5 -14t-0.5 -14l-3 -25q10 1 21.5 11t19.5 18q10 9 13.5 18.5t12.5 20.5q0 2 2 2q3 3 3.5 5t3.5 4l4 10q5 6 8 16t9 17l8 8zM321 282q1 17 -6 32q0 2 -2 4q-2 3 -3.5 6.5t-2.5 6.5h-1q-2 0 -3.5 0.5t-3.5 0.5h-3
q-12 0 -20 -11q-5 -5 -7 -15l-1 -1q-2 -5 -3 -9t-2 -9l-2 -4q-3 -11 -1 -20l1 -4q1 -9 3 -18t4 -17v-2q2 -7 3.5 -13.5t4.5 -12.5q2 -2 3 -5t3 -6q2 -4 3 -7.5t4 -6.5q7 -11 23 -14q1 2 1 6v1q0 5 0.5 9.5t0.5 9.5q0 2 1 3v3q-2 10 0 21q1 3 1 6.5v6.5q0 5 2 15q0 3 0.5 5.5
t0.5 4.5q1 8 1.5 16t0.5 18z" />
    <glyph glyph-name="x" unicode="x" horiz-adv-x="313" 
d="M378 264q4 0 5.5 -0.5t5.5 -2.5q-2 -11 -8 -27.5t-14 -33.5q-8 -21 -18.5 -59.5t-36.5 -88.5q-5 -14 -11 -28.5t-12 -24.5l-11 -20q-1 -1 -3 -5q-2 -3 -5 -6t-9 -5q-1 0 -2 -1l-7 -5h-1l-12 3q-9 1 -15.5 6.5t-11.5 13.5q-3 4 -4 5t-5.5 8t-16 26t-36.5 59q-2 4 -14 21
t-21 40q-1 0 -3.5 -1.5t-7.5 -10.5l-69 -114l-26 -34l-4 -5q-3 -3 -7 -9q-3 -7 -11 -9h-3q-4 0 -5 3q-3 3 -1 8l3 6l22 29l6 8q4 5 7 9t6 9l11 17q4 4 7 10q2 3 13.5 26t48.5 79l-7 19l-44 109q-1 2 -1 3t-1 2q-2 7 -5.5 14.5t-16.5 22.5q-4 4 -5 6q-2 0 -4 2.5t-14 11.5
q-5 3 -5.5 6.5t0.5 6.5q2 7 31 20q2 0 4 0.5t4 0.5q1 0 1 0.5t1 0.5q2 1 7 1q2 0 4.5 -0.5t4.5 -0.5q14 -3 25 -13l1 -2v-1q1 0 1 -1h1v-1q2 -2 15.5 -21t25.5 -43q3 -4 5 -8l23 -52l5 -14q1 -3 1 -9q0 -1 0.5 -1t0.5 -1q4 6 5 9v1h1q5 7 8 14q2 2 2.5 4t2.5 4q1 4 4.5 11
t10.5 18l17.5 27.5t26.5 40.5l2 4v1l17 23q4 4 7 4q4 0 5 -1h6v-5q0 -9 -6 -15q-2 0 -9.5 -10.5t-9.5 -15.5l-19 -32l-22 -34l-4 -7q-2 -5 -7.5 -16t-18.5 -32q-2 -4 -4 -7.5t-5 -6.5l-1 -2l60 -107q1 -2 5 -9.5t9 -17t11.5 -20t12.5 -16.5q10 5 18.5 18t12.5 22
q4 10 10 26.5t13 36t14.5 39.5t14.5 38q4 11 13.5 29t11.5 30h3v0z" />
    <glyph glyph-name="y" unicode="y" horiz-adv-x="347" 
d="M424 281q10 -2 14 -4q-3 -12 -10 -24t-10 -24q-12 -24 -22 -41.5t-21 -37.5l-16 -31q-14 -20 -27 -40t-31 -34q-4 -5 -7.5 -10t-7.5 -7l-7 -9v-11q0 -5 1 -8v-10q1 -4 1 -13t-0.5 -18.5t-1 -17.5t-0.5 -9q0 -6 -2.5 -26t-5.5 -43q-4 -26 -8 -57q-2 -5 -2.5 -9t-2.5 -9
l-6 -24l-3 -9v-1q-1 -1 -1 -2t-1 -3q-2 -2 -6 -8q-5 -8 -17.5 -17.5t-19.5 -15.5q-2 -2 -3.5 -3t-3.5 -3q-3 -3 -9 -7q-1 -1 -5.5 -4t-9.5 -6.5t-11 -7t-10 -5.5l-4 -2t-3 -1h-1h-1q-7 0 -11 3q-1 0 -1.5 0.5t-1.5 0.5q-10 4 -12 12q0 2 -1 4l-2 4q-1 1 -1 2q-5 9 -6 18
q-2 2 -3 4q-2 2 -2 4q-2 4 -2 8q0 2 -1 11t-2.5 18.5t-2 17.5l-0.5 8q0 6 2.5 23.5t4.5 27.5q1 2 1 3t1 3q0 4 2 12q1 4 6.5 16.5t12.5 26t13.5 25t8.5 13.5q0 1 0.5 1t0.5 1q3 3 9.5 12t14.5 19t14.5 19t9.5 11q2 1 2.5 1.5t2.5 1.5q2 2 2 4t-1 3q-1 4 -1 12v2v24v19v10
q1 5 1 10t1 10q-2 -2 -4.5 -4t-4.5 -4q-6 -6 -9 -9.5t-8 -7.5q-5 -5 -11 -7q-3 -1 -6 -1h-3q-6 0 -9 -1q-2 0 -3.5 -0.5t-3.5 -0.5h-5h-10q-1 0 -1.5 0.5t-2.5 0.5h-5q-2 1 -5 1h-1q-6 0 -11 2.5l-9 4.5q-19 12 -32 35l-2 2q0 1 -1 2q-13 22 -19 53q-2 8 -2.5 20.5
t-0.5 24.5t0.5 21.5t0.5 11.5q0 3 2 13.5t3.5 22t2 21t-0.5 9.5q0 8 -1 12q0 3 -1 4q0 4 -1 6q-1 7 -1.5 13t-1.5 12q-1 2 -1 5q-2 6 -3 11.5t-3 10.5q-10 21 -22 32h-1l-2 2q-2 1 -2.5 1.5t-2.5 1.5l-2 1l-2 2l1 3q2 4 6 7.5t12 3.5h14h10t10 -1h2q3 -1 6 -2.5l5 -2.5l9 -9
l3 -3q0 -1 0.5 -1t0.5 -1t1 -1q6 -5 9.5 -10t6.5 -10q1 -2 1.5 -2.5t1.5 -2.5q2 -2 2.5 -4.5t2.5 -4.5l2 -4l2 -4q4 -7 6 -17t2.5 -20.5t0.5 -20v-15.5v-42v-37q0 -4 0.5 -12t1 -16.5t1.5 -16t2 -10.5t2 -6.5t3 -7.5q8 -16 11.5 -31.5t11.5 -26.5q2 -2 6 -2h5q8 0 19 8.5
t19 15.5l1 1q0 1 2 3l1 1q2 4 6 5q2 1 2 4q-1 11 1 23.5t1 41.5q0 1 0.5 7.5t1.5 13.5t1.5 13t0.5 8q-1 8 -1 16v16v5q1 8 1 14.5t2 14.5q2 7 2.5 12t2.5 10q1 3 1 6t1 6v7q1 3 3 7q4 6 5 9q1 1 1 2t1 2q0 1 0.5 1.5t0.5 1.5q2 2 2.5 4.5t2.5 4.5l2 4q1 1 1.5 2t1.5 2
q1 3 7 6t13 6t13.5 5.5t10.5 4.5q4 3 8 3q5 1 10 1t10 1h1h3q0 -1 1 -1h2v-3q1 -5 -1 -7.5t-4 -4.5q-7 -7 -8 -14q0 -2 -2 -6q0 -1 -1 -2v-2q-1 -1 -1 -2t-1 -2v-4q-2 -11 -2.5 -21t-2.5 -21v-9t-1 -8v-8t-1 -9q0 -2 -1.5 -14.5t-4 -26.5t-4.5 -26t-2 -13q0 -7 -1 -11
q0 -1 -1 -9.5t-2 -19t-2 -20.5t-2 -13l1 -2q0 -5 -2 -8q1 -5 1 -9.5v-9.5q1 -4 1 -12q0 -2 0.5 -5t0.5 -6q1 -4 1 -8t1 -8h1q-1 -3 -1 -10l10 11q2 0 2 2q9 11 17.5 17.5t11.5 12.5l3 3q14 29 36 65t39 73q3 12 11.5 23t11.5 22h3zM204 -96q1 6 0.5 12.5t-0.5 12.5v14.5
t-1 14.5v15v3q-2 0 -2 -1q-1 0 -2 -0.5t-2 -0.5q-2 -2 -4 -5t-5.5 -8.5t-9.5 -15t-16 -23.5q-2 -3 -3.5 -6t-3.5 -6q-1 -2 -3 -4t-11 -15.5t-12 -22.5q-2 -4 -2 -7.5t-1 -7.5q0 -8 -3 -17q-2 -7 -4.5 -25t-2.5 -29v-4v-1q1 -2 1 -5q0 -10 3.5 -19.5t5.5 -19.5l1 -6
q2 -4 2.5 -8t2.5 -8q2 -6 4 -9v-1l2 2q4 1 6 6q3 5 6.5 10.5t7.5 10.5q3 5 5.5 9t4.5 11q1 3 2 5.5t3 5.5q2 4 3.5 8t2.5 8q2 7 3 13.5t3 12.5q1 3 3 11q1 2 1 3.5t1 3.5q2 5 2.5 9t1.5 8q1 3 1.5 6t1.5 9.5t2.5 18.5t4.5 32z" />
    <glyph glyph-name="z" unicode="z" horiz-adv-x="371" 
d="M392 267q8 -6 11 -9q-7 -11 -9 -19.5t-8 -19.5q-7 -11 -15 -27t-17 -33.5t-19 -33.5t-20 -27l-39 -41q-2 -1 -3 -2t-3 -2q14 -30 25 -50.5t14.5 -44.5t-0.5 -57.5t-20 -89.5q-7 -25 -23.5 -47t-30.5 -36v-1h-3q-10 -12 -18.5 -18t-19.5 -14q-6 -4 -11.5 -8.5t-11.5 -8.5
q-4 -2 -7 -2.5t-7 -2.5q-6 -2 -15.5 -2t-12.5 -2h-12h-1h-26q-7 0 -14.5 2t-14.5 4q-10 4 -18.5 8t-15.5 9q-4 3 -9 5.5t-8 7.5q-4 0 -7 5t-5 12.5t-3.5 16t-2.5 14.5q-4 4 -1.5 11t1.5 14q1 13 5.5 27t9.5 25.5t9 20t6 10.5q15 20 36.5 43t46 45.5t51.5 43t52 37.5
q-17 14 -28.5 23.5t-29.5 14.5q-5 2 -15 8.5t-13 11.5q0 2 -3.5 8t0.5 13q2 2 3 5.5t3 5.5q10 15 24 33q3 5 7 14t8.5 18.5t9 18.5t9.5 15q14 11 9 15.5t-18.5 5.5t-30 0t-24.5 1q-18 2 -34.5 5t-29.5 6q-5 1 -11 1.5t-11 2.5t-8 6.5t-2 14.5q1 18 6.5 18t12.5 1
q8 -9 17.5 -12t26.5 -5q19 -1 30 -3.5t33 -2.5q17 1 31.5 1.5t29.5 0.5q17 3 31.5 13t19.5 10q14 2 26 -5.5t11 -22.5v-3q-2 -4 -3 -8q-4 -7 -5 -7l-1 -1q-1 -1 -4 -3v-1q0 -1 -1 -1q-2 -5 -5.5 -8.5t-6.5 -8.5q-5 -8 -10.5 -15t-11.5 -15q-2 -7 -5 -10.5t-7 -8.5l-18 -22
q-9 -13 -17 -23q-2 -2 -3.5 -4.5t-2.5 -5.5q-8 -5 0 -5q4 -2 7.5 -3t7.5 -3q5 -2 9.5 -5t9.5 -8q7 -2 12 -9q1 -2 6 -9t11 -15q14 14 29.5 27.5t28.5 33.5q17 26 29.5 52.5t23.5 42.5q7 11 9.5 22.5t8.5 21.5zM132 -270q40 21 61.5 59t30 79.5t6 81t-9.5 63.5
q-21 -13 -50.5 -35.5t-58.5 -49t-53 -55.5t-35 -56q-2 -9 -5.5 -21.5t-5.5 -20.5q-1 -8 5 -20.5t9 -19.5q3 -5 9 -8t13.5 -5.5t14.5 -4t11 -2.5q20 -4 35 3t23 12z" />
    <glyph glyph-name="U" unicode="U" horiz-adv-x="369" 
d="M356 -19q5 -14 4 -18v-1l-1 -1q-4 -2 -6 -2q-4 0 -6 3q-7 1 -13 9q-5 6 -13 13q-9 10 -22.5 20.5t-15.5 22.5q0 1 -0.5 1.5t-0.5 1.5l-1 1v1q-5 11 -8.5 22t-5.5 23q-1 5 -2 8.5t-2 8.5v3q-1 -1 -1 -2l-9 -18l-3 -6q-2 -4 -3.5 -8t-4.5 -8q-2 -2 -3 -3.5t-3 -3.5
q-1 0 -2 -1q-2 -2 -3 -2q0 -1 -1 -1q-19 -19 -37.5 -31t-50.5 -10q-9 2 -16 4.5t-14 6.5q-2 1 -3.5 2t-3.5 2l-6 3q-8 4 -12 12q-2 3 -3.5 5.5t-3.5 5.5q-5 7 -12.5 13.5t-11.5 13.5q-5 8 -7.5 16t-5.5 16q0 3 -2 7t-2.5 7t-2.5 7q-3 11 -4 22t-1 23q0 2 -0.5 4.5t-0.5 4.5
v5q0 3 -0.5 6.5t-0.5 6.5v15t-1 14q-3 27 -3 52v32t1 33q0 5 0.5 9.5t1.5 9.5q0 3 0.5 6t0.5 6v3q0 2 0.5 8.5t0.5 13.5t0.5 13.5t0.5 9.5q0 9 0.5 17.5t-0.5 17.5q0 21 -6 39q-4 11 -8 19.5t-11 16.5q-1 2 -2 2.5t-2 2.5v1l-2 4q0 3 3 6q6 6 11 6q2 0 3 -1q1 0 5 -2
q4 -1 14 -5q8 -3 15 -6t10 -8q2 -2 7.5 -4.5t8.5 -4.5q11 -5 15 -10q2 -2 2.5 -6.5t4.5 -19.5v-4q1 -3 1.5 -11.5t3.5 -40.5q0 -11 0.5 -22.5t-1.5 -24.5q0 -3 -1 -12.5t-2 -20t-1.5 -19t-0.5 -9.5v-11q-1 -15 0 -31v-6.5t1 -6.5q0 -3 0.5 -6.5t0.5 -6.5v-16v-12q0 -7 1 -10
v-9v-1q1 -8 1 -16v-16v-8q0 -3 -0.5 -6t0.5 -6q1 -8 1.5 -15.5t2.5 -15.5v-12q1 -7 1 -15.5t2 -11.5q0 -2 0.5 -2.5t0.5 -1.5q2 -5 4 -8.5t4 -7.5q8 -13 16 -21q5 -8 19 -11q7 -1 8 -4q1 -1 4 -2q10 -2 14 -2h1q4 0 10.5 4t13 9.5t12 11.5t8.5 10q2 3 3.5 6t3.5 5t2.5 3
t1.5 2t1 2l1 1v1q0 2 3 4q2 2 4 7t4 9q2 6 4 8q0 2 1 3v1q5 10 6 19t1 18q0 5 -1 8q0 2 -0.5 4t-0.5 4q0 4 -2 12q-1 4 -1.5 7.5t0.5 8.5q-2 7 -2 13.5v13.5v17t0.5 36.5t1 46t1.5 47t1.5 38.5t1.5 21q0 3 0.5 6.5t0.5 6.5q0 5 0.5 9t0.5 9q0 2 0.5 3.5t0.5 3.5q0 1 1.5 8
t3.5 15t4.5 14.5t4.5 7.5q2 4 3 7q1 2 3.5 5.5t4.5 6.5q5 5 7 10q3 5 12.5 8t14.5 6q2 2 4.5 3t4.5 3q3 3 6 3q2 0 4 -2t2 -3q2 -2 2 -3l1 -2l1 -1l-1 -2q-4 -6 -4.5 -12t-1.5 -13v-5v-5q-1 -8 -1 -16.5t-2 -16.5q-3 -15 -5.5 -31t-1.5 -32q1 -2 1 -19.5v-39t-0.5 -40.5
t-0.5 -23q0 -7 -1 -25.5t-1 -30.5q-1 -8 -1 -15v-13q0 -7 1 -10v-9q0 -8 1 -15t2 -15q2 -8 2 -13v-6v-3q1 -1 1 -4v-3q1 -3 1 -7v-6q1 -3 1 -8t0.5 -9t1.5 -9t1.5 -8.5t1.5 -7.5q2 -8 2 -12q1 -3 1 -8v-5q1 -8 1.5 -14.5t1.5 -12.5t2.5 -12.5t3.5 -11.5q1 -2 1 -5t1 -5
q0 -5 1 -7v-1q0 -2 1 -2z" />
    <glyph glyph-name="V" unicode="V" horiz-adv-x="360" 
d="M506 649q-1 -5 -6 -7.5t-11 -3t-11 -0.5h-6q-22 -2 -35 -21q-17 -22 -34 -55l-6 -12t-7.5 -16.5l-7 -17t-5.5 -12.5t-3.5 -7.5t-3.5 -7.5l-1 -1q0 -5 -1.5 -9t-3.5 -9q-1 -2 -3 -8q-1 -2 -2 -7.5t-6.5 -25.5t-15.5 -60.5t-29 -113.5v-1q-1 -4 -3 -10q-2 -3 -4.5 -17.5
t-6 -31t-6.5 -32t-6 -19.5q-2 -6 -3 -12.5t-3 -13.5q-2 -8 -3 -11q-2 -10 -3 -14t-3 -11.5t-5 -15.5t-5.5 -15.5l-3.5 -10.5q-2 -8 -4 -15t-4 -15q-4 -9 -5 -16q0 -1 -0.5 -1.5t-0.5 -1.5q-1 -2 -2 -6.5t-1 -6.5q-1 -7 -7 -18l-1 -4q-1 -4 -5.5 -12t-5.5 -9q-6 -6 -11 -12
t-16 -4q-17 3 -20 15q-2 6 -3 12.5t-3 12.5l-2 12t-3 12q0 2 -0.5 3.5t-0.5 3.5q0 4 -1 5q-1 5 -2 9t-3 9l-6 18q-4 12 -6.5 24.5t-4.5 26.5t-5 27t-6 27q-2 14 -5.5 28.5t-8.5 33.5q-2 6 -7 22t-11 34t-11 34.5t-7 22.5l-2 6t-2 7l-3 9q-2 5 -4 13l-6 18q-2 5 -4.5 12
t-13.5 30q-2 5 -4.5 9.5t-4.5 9.5q-4 8 -12 16q0 1 -2 3q-6 8 -12 14q-3 2 -11 8q-11 10 -23 17q-1 1 -5 3q-2 1 -3 2t-3 2q-8 5 -9 9.5t-1 7.5q1 7 9 10t13 3t16.5 -1.5t16.5 -1.5l3 -1q10 -1 19 -2.5t18 -6.5q11 -6 19 -15t13 -17q2 -3 4 -5.5t4 -5.5l2 -4t3 -4
q4 -5 7.5 -11t7.5 -11l1 -2q6 -9 11 -18t9 -20q10 -26 17 -52q2 -8 3 -15.5t2 -15.5q8 -28 16 -54q7 -23 14.5 -49t12.5 -46q2 -5 3 -11t3 -11q1 -3 1.5 -6.5t2 -10t4 -17t7.5 -28.5q1 -4 1.5 -8t1.5 -9q3 -15 6 -36q2 -11 5 -23q0 1 0.5 1.5t0.5 1.5q2 7 4.5 13.5t4.5 14.5
q1 4 3.5 12.5t5.5 18t5.5 18.5t4.5 15l3 15q2 5 2.5 10t2.5 10q0 3 2 7q3 9 6 22.5t6.5 27.5t6.5 27t5 23q2 6 2.5 11.5t2.5 10.5q1 6 5.5 22t10 37.5t11.5 45t11.5 45t9.5 37t6 21.5v2q0 1 0.5 1t0.5 1q1 11 8 23q4 5 5 11q1 1 1 1.5t1 1.5q0 1 2 5.5t4.5 10t4.5 10t2 5.5
q4 8 5 12l4 8l4 8l3 6q1 2 1 3t1 3l4 8l4 8q3 8 7 13t8 11t9 11q3 4 6.5 7.5l7.5 7.5q4 3 8 4q3 1 5.5 1.5t5.5 1.5q2 1 5 2t5 2q3 1 8 1q2 1 4 0.5t4 -0.5q8 -2 12 -2l9 -4v-4z" />
    <glyph glyph-name="T" unicode="T" horiz-adv-x="310" 
d="M507 556q1 -9 0 -18t-6 -18q-5 -8 -12.5 -17t-17.5 -12q-10 -4 -14 -5q-2 -1 -11.5 -3.5t-21 -4.5t-22 -3.5t-14.5 -1.5l-7 1h-8q-12 2 -25.5 4t-25.5 4q-5 0 -11 2.5t-21 4.5q-2 0 -5.5 1t-6.5 1h-3v-29v-14v-5v-11q0 -7 -0.5 -24t-2 -38t-2.5 -43.5t-2.5 -40.5
t-2 -28.5t-0.5 -8.5q0 -9 -1 -14q-1 -3 -2.5 -24t-3.5 -44.5t-3.5 -42t-2.5 -18.5q-1 -4 -1 -12q-2 -10 -2 -15q-1 -8 -5 -23.5t-6 -23.5t-9 -28.5t-12 -34.5q-2 -5 -2 -6.5t-2 -6.5q0 -1 -5 -8t-12 -16t-14 -17t-13 -11q-5 -2 -8.5 -4.5t-8.5 -4.5q-9 -5 -15 -12
q-5 7 -5 12q-2 5 2.5 12.5t11.5 23.5l2 6t1 6q2 5 2.5 10t1.5 10q0 4 2 12v2q5 25 14.5 54t11.5 56q1 5 1 10.5t1 10.5q1 11 3.5 29.5t3.5 29.5q1 8 2 17.5t1 18.5v15q1 14 2.5 27t3.5 27v6q1 3 1 8q0 4 0.5 23t0.5 41.5t1 43t3 28.5q1 8 0.5 15t-0.5 15q0 2 -0.5 3t-0.5 2
v18q-1 7 -0.5 13.5t-0.5 9.5v6q-8 1 -14.5 3.5t-13.5 3.5q-8 2 -12 2q-4 1 -8 0t-7 0q-1 1 -4 1q-5 1 -17 2t-25 1.5t-24 0.5h-12q-3 -1 -11 -3t-15 -4t-12 -7t-9 -15.5t-4 -12.5q2 -6 5 -12q4 -8 5 -12q2 -2 2 -4q10 -10 22 -10q8 0 14 3q1 0 2 0.5t2 0.5q4 2 5 2q2 1 5 1
q4 0 8 -2q3 -2 3 -5l-4 -4q-1 0 -3 -2q-4 0 -5 -3q-3 -5 -6.5 -6.5t-7.5 -3.5h-1q-8 -2 -10 -2q-3 0 -9 2l-6 3q-2 1 -3.5 1.5t-3.5 2.5q-6 3 -10 7.5t-8 9.5q-1 1 -2 1.5t-2 1.5q-4 6 -8 18q-1 4 -1.5 8.5t-2.5 9.5q0 9 4 16q6 12 20 23l1 1q4 4 7 5q24 11 42 11h12
q9 0 27 -1.5t38 -4t37.5 -5t25.5 -3.5q8 -2 14 -2.5t13.5 -1.5t17 -2.5t24.5 -5.5q12 -2 23 -5q9 -2 17.5 -4.5t11.5 -3.5q2 0 10 -1.5t17 -3t16 -2.5l7 -1q8 -1 22 0.5t26 4.5q4 1 6.5 1.5t6 2t11 5l22.5 10.5q5 4 9.5 11t5.5 15q3 14 -5 24q-2 3 -6.5 6.5t-9.5 7.5
q-18 15 -19 19q0 1 0.5 1.5t5.5 2.5q1 1 5 1h3q2 -1 2.5 -1.5t2.5 -1.5q6 -1 11 -5q14 -11 27 -34q1 -2 1 -4v-1v0z" />
    <glyph glyph-name="S" unicode="S" horiz-adv-x="393" 
d="M383 213q8 -29 9 -56.5t-7 -53.5q0 -3 -3 -9l-3 -9l-23 -49l-3 -3q-12 -17 -27.5 -35.5t-47.5 -35.5q-6 -3 -15.5 -5.5t-20 -5t-19 -4t-12.5 -1.5h-17h-2q-1 -1 -4 -1q-2 0 -4 1h-4q-8 1 -15.5 1.5t-15.5 2.5q-2 1 -3.5 1t-3.5 1q-1 0 -1.5 0.5t-1.5 0.5q-2 1 -3 1t-3 1
q-4 1 -7 2l-6 2q-5 1 -9 2.5t-9 3.5q-2 2 -3.5 2.5t-3.5 1.5t-3.5 1.5t-3.5 1.5q-2 2 -3 2q-18 10 -33 24q-10 8 -17.5 20.5t-15.5 26.5t-11 36.5t-5 36.5v9q0 13 2.5 23t5.5 19q1 6 4 11q1 6 5 11q3 8 6 15t7 15q2 2 2.5 4t2.5 4t2.5 4.5t2.5 5.5q2 2 3.5 3t3.5 3h1
q2 1 2.5 1.5t2.5 1.5q1 1 1.5 1t1.5 1q4 2 6 2q7 0 9 -9v-2q1 -4 1 -8.5t-5 -9.5l-3 -3q-2 -2 -2.5 -3t-2.5 -2q-8 -8 -12.5 -14.5t-6.5 -14.5q-1 -3 -1.5 -5.5t-1.5 -5.5q-4 -10 -5 -15q-2 -8 -3 -11q-2 -11 -4 -19.5t0 -19.5q2 -4 3 -16.5t2 -17.5q2 -5 3 -10t4 -10
q0 -2 2 -4q4 -7 8.5 -14t8.5 -12q10 -11 23.5 -20.5t24.5 -16.5q8 -5 18.5 -8t20.5 -5q6 -2 8 -2q12 -3 21 -3t16.5 -0.5t17.5 2.5q1 0 4 1.5t6 3.5q8 4 9 4q13 7 25.5 20t22.5 27l18 44q6 17 11 36.5t1 43.5v1q1 14 -4.5 26.5t-8.5 25.5q-2 4 -4 7q-2 13 -13.5 42.5
t-39.5 71.5q-9 14 -18 30.5t-20 37.5q-3 6 -6.5 12.5t-7.5 14.5q-12 42 -14 71q-1 4 -0.5 8.5t1.5 8.5t2 9q4 24 12.5 41t19 29t21.5 19.5t20 13.5q20 10 31 10.5t16 0.5q6 0 10 -1q2 0 3.5 -0.5t4.5 -0.5q14 -2 30 -15t24 -27q9 -19 3 -39q0 -10 -3 -18t-7 -16l-1 -2
q-2 -5 -5 -6.5t-5 -3.5q-2 -1 -4 -1q-7 0 -10 7q-3 9 2 17q2 1 4 5q1 2 1.5 2.5t1.5 2.5q0 1 2 3h-1q4 8 5 20.5t-7 26.5q-2 2 -6.5 7t-7.5 7l-14 6q-1 1 -5 1q-13 -1 -30 -16t-27 -31q-2 -4 -5.5 -12.5t-5.5 -9.5v-1l-3 -7q-1 -7 -2 -9t-2 -18v-4.5t1 -4.5q0 -2 0.5 -3
t0.5 -3q4 -22 39 -80q14 -23 27.5 -42t34.5 -48q6 -8 12.5 -21.5t12.5 -27t10 -24t5 -13.5l7 -20v0z" />
    <glyph glyph-name="R" unicode="R" horiz-adv-x="374" 
d="M411 -32q0 -6 -4 -10q-1 -1 -3.5 -2t-4.5 -2q-1 -1 -3.5 -1h-3.5h-10.5t-16 1t-16.5 3.5t-11 6.5q-2 2 -5 3.5l-7 3.5q-14 7 -23 16q-1 1 -3.5 5.5t-6 9.5t-6.5 9.5t-4 5.5q-3 5 -6.5 9t-6.5 9q-2 4 -3 7t-3 5q-1 2 -8 13.5t-14 26.5q-4 8 -7 17.5t-5 18.5l-6 18
q-5 12 -6 22t-3 20q-4 17 -8.5 31.5t-9.5 37.5q-2 10 -6 16t-7.5 11t-8.5 8q-4 3 -9 3.5t-12 0.5q0 -1 -1 -2v-5q0 -9 -1 -14v-4v-18.5t-2 -19.5q0 -2 -0.5 -17.5t-1 -33t-1 -33t-0.5 -17.5q-1 -11 -2.5 -26.5t-4 -32t-6 -32t-7.5 -25.5q-6 -17 -9 -32.5t-11 -34.5
q-2 -4 -6 -10l-3 -6q-2 -2 -3 -6q-2 -4 -3 -5q-5 -7 -15.5 -18t-18.5 -16q-6 -5 -11 -8t-8 -7q-2 -1 -2.5 -2t-1.5 -2q-4 -2 -10 -2q-3 0 -4 1q-6 4 -2 11q1 2 2 3.5t2 3.5q0 2 2 4v1l2 2q8 5 12 18q3 7 5 14.5t4 14.5l1 6q2 5 3 11t3 12q2 7 2.5 13.5t1.5 14.5q1 4 1.5 7.5
t1.5 8.5q2 8 3 11q2 5 2 9.5t1 8.5q0 1 1 12t2 23.5t2.5 23t1.5 11.5v2q1 3 1.5 18.5t0.5 33.5t0.5 33.5t0.5 18.5q1 4 1.5 11t1 15.5t1 16t0.5 11.5q0 12 0.5 23.5t0.5 22.5t-0.5 20.5t-1.5 19.5v3v11t-1 10q0 5 -1 10t-1 10q0 9 -0.5 18t-0.5 18q0 5 0.5 10t0.5 10t2 7v14
q1 5 1 15q1 9 2.5 24t6.5 24q2 2 9 11.5t10 12.5q7 5 11.5 10t12.5 10q6 4 7 5q7 1 8.5 -4.5t-1.5 -10.5q-2 -6 -4 -18v-6v-12q-1 -9 -1 -22t1 -21q0 -5 1 -9.5t2 -9.5t1.5 -9t0.5 -8q0 -2 0.5 -18t0.5 -64v-7v-2q0 -7 1 -10q4 -2 0 -4v-3q0 -2 1 -4t1 -4v-7v-1
q0 -2 0.5 -3.5t-0.5 -3.5q-2 -3 -1 -5.5t1 -5.5q1 -2 1 -6h2h3h2q5 1 6 1h2t2 0.5t5 0.5l4 1q5 1 11 1t11 2q1 0 7.5 1.5t11.5 3.5q6 2 9 3.5t7 4.5q1 1 6 5q4 3 8.5 6t9.5 7q-1 0 2 3q1 0 1 1q6 8 11.5 18t8.5 21q1 3 3 11q2 11 5 22.5t6 24.5q1 7 1.5 13.5t1.5 14.5v8t1 8
q0 4 -0.5 12t-2 17t-3.5 17l-3 12q-1 2 -1 5l-1 1v1v1q-4 6 -5 9q-2 4 -6 10q0 1 -1 2v1q0 1 -0.5 1t-0.5 1l-3 3l-2 2q-2 3 -11.5 10.5t-14.5 9.5q-1 0 -3 1.5t-3 1.5q-14 7 -30.5 10t-32 4.5t-27.5 1t-16 -0.5q-3 0 -6.5 -1t-7.5 -2q-6 -2 -16 -7t-16 -9q-2 -1 -4.5 -3
t-4.5 -3q-14 -10 -27.5 -22t-24.5 -30q-2 -2 -3.5 -5.5t-3.5 -5.5q-11 -15 -16 -40q-1 -4 -2.5 -5.5l-3.5 -3.5q-3 -3 -3 -5h-4h-1q-1 0 -1 1q-1 2 -2 3t-1 3q1 3 1.5 6.5t1.5 6.5q2 8 5.5 15.5t7.5 14.5q2 2 2 3q2 2 2 4q1 1 3 5q2 5 5 10t5 8q10 12 17.5 20.5t15 15
t16.5 12.5t23 13q2 1 13 7.5t22 8.5q3 1 6 1t6 1q4 1 13 1q7 0 13.5 0.5t13.5 0.5h3q5 0 12.5 -1t16 -2.5t16 -3.5t11.5 -3q2 0 3 -1q6 -2 13.5 -4t14.5 -5t12.5 -5.5t7.5 -4.5q3 -2 7 -4.5t8 -4.5q2 -2 6 -4q4 -3 8 -8q1 -2 2 -2.5t3 -2.5q1 -1 1.5 -1t1.5 -1
q7 -7 12.5 -13.5t8.5 -14.5q2 -5 3 -8.5t3 -8.5q2 -3 2.5 -6t2.5 -6q2 -6 2.5 -12t1.5 -13v-11q1 -5 1 -10.5v-12.5v-5v-1l-1 -1v-3q-1 -13 -4.5 -25.5t-8.5 -23.5q-2 -5 -5 -10l-2 -4q-2 -2 -3 -5t-3 -5l-4 -6l-4 -6q-5 -8 -10.5 -14.5t-10.5 -12.5q-6 -6 -8 -9
q-8 -6 -11 -8q-7 -4 -14 -7.5t-15 -5.5q-4 -2 -14 -6l-6 -3q-1 -1 -2 -1t-2 -1l-6 -3h-1q-1 0 -1 -0.5t-1 -0.5q-10 -2 -16 -4q8 -4 13.5 -8.5t10.5 -9.5q3 -3 9 -7l4 -4q5 -5 10 -10.5t9 -13.5l6 -9l3 -6q1 -1 1 -3v-1q1 -1 1 -2t1 -2q2 -8 3 -11q2 -4 3 -5q0 -2 2 -6l1 -1
q2 -7 4.5 -14t5.5 -15q1 -3 1 -9q0 -2 0.5 -2.5t0.5 -2.5t1 -3q0 -5 2 -11q3 -14 7 -22l2 -6t2 -7q2 -5 3 -8.5t2 -8.5q2 -3 2.5 -6t2.5 -6v-2q2 -6 3 -8l1 -3q5 -8 8.5 -17t7.5 -18q2 -4 4 -6q0 -1 1 -1q1 -3 4 -4q7 -11 18 -21q2 -2 3.5 -3t3.5 -3q2 -1 4 -3q1 0 3 -2
q1 -1 1.5 -1t1.5 -1q1 -2 2 -2.5t3 -2.5h1l1 -1q1 -3 8 -5q4 -2 5 -2q5 -2 5 -3z" />
    <glyph glyph-name="P" unicode="P" horiz-adv-x="381" 
d="M352 451q0 -16 -1.5 -31.5t-3.5 -29.5q-1 -2 -1 -8q-1 -3 -1 -10q-1 -6 -1.5 -11t-2.5 -9q-1 -3 -1.5 -6.5t-1.5 -6.5q-1 -5 -2.5 -10t-3.5 -10q-1 -2 -3 -8q-2 -2 -2.5 -4.5t-2.5 -4.5q-2 -5 -5.5 -8t-7.5 -7q-4 -3 -7 -5.5t-7 -5.5q-5 -3 -16.5 -14.5t-31.5 -13.5
q-1 0 -2 -0.5t-2 -0.5q-2 0 -3 -1q-5 -1 -10.5 -1h-10.5h-4q-14 2 -21.5 3.5t-12 3.5t-7.5 4t-9 5l-1 1q-9 8 -17 17q-2 1 -4 5q0 1 -0.5 1t-0.5 1t-0.5 1.5t-0.5 1.5t-0.5 1.5t-0.5 1.5q-5 6 -3.5 11.5t3.5 10.5q1 0 2 1h3h2q5 0 5 -7q3 -23 20 -34q8 -4 13 -5
q6 -2 12.5 -3.5t13.5 -3.5h8q6 0 12 0.5t11 1.5l2 1q7 1 12 8q4 3 6 9q1 2 1.5 3.5t1.5 3.5l6 16t5 16q3 11 1.5 22t0.5 21q2 14 4 27.5t4 27.5q4 38 -5 67q-3 10 -7 18t-9 15q-4 5 -8.5 10.5t-9.5 10.5h-1q-6 6 -7.5 11.5t-7.5 10.5q-2 2 -3 2q-5 5 -10.5 9t-13.5 6
q-2 0 -5 0.5t-5 0.5q-10 0 -13.5 -1t-11.5 -5q-4 -2 -5 -2q-4 -2 -8 -3.5t-7 -3.5q-5 -5 -10 -9.5t-8 -9.5q-2 -2 -2 -4q-1 -1 -1 -2t-1 -2q-3 -7 -5 -13t-2 -12q0 -3 -1 -5q-1 -1 -1 -3q-2 -10 0 -19l1 -1l2 -14t0 -15q-3 -14 -1 -37q1 -11 1 -22.5v-22.5q1 -5 1 -15v-10
v-57v-13t-1 -12v-19v-12q0 -1 0.5 -2t0.5 -2q1 -28 0 -54q-1 -5 -1 -9.5v-9.5v-2q0 -6 -1 -22.5t-3.5 -35.5t-4.5 -37l-3 -27q-1 -2 -1 -5t-1 -6q-1 -6 -1.5 -11.5t-2.5 -11.5q-2 -9 -6 -21.5t-9.5 -25t-12 -24.5t-13.5 -19l-1 -2l-11 -11t-11 -10l-5 -2.5t-5 -3.5l-3 -3
q-2 -2 -5 -2t-5 -1q-1 -1 -3 -1q-5 0 -5 4q-1 3 -1.5 5.5t-0.5 5.5t-1 4v1h1q2 0 2 1q2 1 3 1t2 1q3 1 3 4l1 2q2 5 3 9l2 8t1 7.5t1 6.5q2 5 2.5 11t1.5 12q0 5 1 9t2 9q0 3 2 9q0 4 1 6v4q1 3 1 6t1 6q2 8 2.5 16.5t2.5 16.5q1 5 3 23.5t4.5 39.5t4 39.5t1.5 23.5v23
q-2 18 0 35v2q0 11 0.5 21t1.5 21q0 10 1 14q0 4 0.5 7.5t0.5 8.5v12v6.5t1 6.5v12v10.5t1 11.5q1 2 0.5 4.5t-0.5 4.5q-2 4 -2 6v12q-1 5 -1 10.5v10.5q-1 2 -0.5 4.5t0.5 5.5v5v1q-3 5 -3 10.5v10.5v8q-2 19 -5 38t-8 38q0 4 -1 6v4l-1 1q-2 8 -4 13q-5 15 -12 27
q-3 4 1 10q1 3 5 3q2 0 3 -1q2 0 8 -2q11 -8 24 -16q2 -2 9.5 -3.5t9.5 -3.5q1 -1 1 -2q6 -7 12 -14.5t9 -15.5h1q0 1 0.5 1.5t0.5 1.5q3 3 4 6q2 3 2.5 6t2.5 5q1 1 1 2q10 16 33 32l10 4t11 2q5 2 12 5.5t15 0.5q5 0 7 -1h1h2q1 0 2 1q4 2 6 2t3 -0.5t2 -0.5h1h5
q2 -1 4 -1t4 -1q11 -3 25 -9q6 -2 11.5 -4.5t12.5 -5.5q8 -4 15 -8.5t13 -10.5q1 -2 2 -2.5t2 -2.5q3 -2 5 -5l1 -1q8 -6 11 -14q15 -34 17 -83z" />
    <glyph glyph-name="Q" unicode="Q" horiz-adv-x="409" 
d="M281 21q-12 -8 -22.5 -14.5t-22.5 -9.5q-8 -2 -15 -2.5t-15 -1.5q-5 -1 -9.5 -0.5t-9.5 0.5q-2 0 -3.5 -0.5t-3.5 -0.5q-3 5 -8 6.5t-10 3.5q-3 2 -5.5 3t-4.5 2q-2 0 -4 5t-4.5 12t-4 14t-1.5 11q-1 2 -1 5.5t2 5.5q1 1 1 4q-1 5 1.5 8.5t4.5 6.5q1 2 2 2.5t2 2.5
q2 5 5.5 7t7.5 4q5 2 11 4t11 0h2q15 4 26.5 -2t23.5 -14q13 -7 24.5 -16.5t23.5 -20.5q6 5 9 10q5 6 5.5 12t5.5 12q4 7 4.5 13.5t3.5 13.5q3 11 4 14.5t3 14.5t2.5 15.5t2.5 15.5t3 21.5t2 21.5v11q2 17 2 33t-1 33q-2 12 -2.5 24.5t-1.5 23.5l-4 34t-6 34q-2 9 -3.5 18.5
t-3.5 17.5q-2 6 -3.5 11.5t-4.5 11.5q-3 11 -3.5 22.5t-5.5 22.5q-2 6 -3 11t-4 11q-4 5 -6 9.5t-6 9.5q-2 2 -3 2.5t-3 2.5q-10 11 -13 16t-17 6q-2 0 -11.5 -1.5t-11.5 -1.5q-1 -1 -5.5 -1.5t-5.5 -1.5q-11 -11 -18.5 -20t-15.5 -23l-2.5 -5l-2.5 -5q-4 -8 -7 -15.5
t-8 -14.5q-2 -2 -2.5 -4t-1.5 -4q-2 -3 -3.5 -5.5t-3.5 -6.5q-3 -7 -5.5 -13.5t-5.5 -13.5q0 -2 -1 -3q-2 -11 -7.5 -22t-9.5 -22q-2 -10 -5 -19t-5 -19q-2 -7 -2.5 -14t-2.5 -13q-3 -14 -2.5 -27.5t-1.5 -27.5q0 -2 -0.5 -3t-0.5 -3q-3 -12 -2.5 -24t1.5 -26q1 -8 1.5 -16
t0.5 -17q1 -5 1 -9.5v-9.5q1 -3 1 -6.5v-6.5q1 -15 2.5 -23.5t3.5 -23.5q1 -5 2.5 -10.5t3.5 -10.5t2.5 -10.5t2.5 -10.5q2 -8 2.5 -11t5.5 -10q2 -5 3.5 -7.5t3.5 -5.5q3 -7 0 -13q-2 -4 -5 -2q-2 1 -4 1.5t-4 1.5q-18 9 -29 26q-7 8 -14.5 16.5t-10.5 18.5q-4 14 -11.5 28
t-12.5 29q-3 15 -5.5 30t-2.5 30q-1 11 -2 20.5t-3 19.5q-2 16 -2 31.5t1 31.5t2.5 31.5t3.5 30.5q2 9 4 17.5t4 16.5q5 14 9.5 28t9.5 28q4 10 9.5 19.5t11.5 18.5q7 11 14.5 19.5t15.5 18.5q4 5 8.5 8.5t9.5 6.5q3 4 6.5 7t6.5 6q2 1 3 2t3 2q12 6 22 13t21 14
q18 11 35 10q8 -2 14.5 -2h13.5q2 -1 4.5 -1t4.5 -2q6 -3 12.5 -6t13.5 -7q4 -3 8 -6.5t9 -5.5t8 -5l6 -6q5 -5 9 -9.5t9 -8.5q4 -4 7 -5l5 -5q4 -6 5 -10q14 -28 24 -55q4 -11 8.5 -22t7.5 -22q2 -14 6.5 -28t7.5 -28q2 -9 4 -17.5t1 -17.5q0 -7 0.5 -13t0.5 -14
q1 -13 0.5 -25.5t-2.5 -26.5q-2 -13 -5 -25.5t-5 -25.5q-1 -2 -2 -4.5t-2 -5.5q-5 -14 -8 -22.5t-5.5 -15.5t-5 -13.5t-5.5 -14.5q-7 -17 -17.5 -31.5t-21.5 -28.5q-3 -5 -8 -10l-8 -8q-4 -6 -10 -10q-4 -3 -1 -10q3 -5 5.5 -10t5.5 -10t6.5 -10t6.5 -10q6 -9 12.5 -18.5
t12.5 -19.5q13 -19 38 -23q5 -1 9 -1h9t9.5 0.5t8.5 3.5q1 1 2.5 1t3.5 1q5 0 6 -2q1 -5 -1 -9q-4 -4 -8 -7t-9 -4q-7 -1 -13.5 -1.5t-12.5 -1.5q-4 0 -5 1q-3 0 -5.5 0.5t-5.5 1.5q-10 1 -17 6.5t-15 10.5q-1 0 -4 3q-5 8 -9 15.5t-9 15.5q-5 5 -8.5 11.5t-7.5 12.5
t-6.5 11l-5.5 11q-2 4 -4.5 8.5t-5.5 8.5q-1 2 -2 2t-2 2zM271 33l-2 2q-12 12 -24.5 21.5t-26.5 17.5q-6 4 -12.5 6.5t-13.5 1.5q-10 0 -14 -1q-18 -2 -22 -16q-2 -6 -2 -13t5 -13q4 -6 6 -10q5 -11 15 -14q9 -2 17.5 -4t17.5 -1q3 2 11 2q13 2 23.5 7.5t21.5 13.5z" />
    <glyph glyph-name="O" unicode="O" horiz-adv-x="387" 
d="M233 401q-2 -1 -3.5 -1.5t-3.5 -1.5q-4 5 -7.5 10t-5.5 11q-4 7 -4.5 14t0.5 15q0 7 2 15q3 25 17 39q3 2 5 5t4 5q17 13 35 18q11 5 21 2.5t21 -6.5q5 -2 8.5 -6t7.5 -8q7 -4 13 -12q7 -7 8 -15q0 -4 1 -7l2 -6q4 -11 5.5 -23t3.5 -23q1 -7 2 -13.5t1 -13.5
q1 -16 1.5 -31t0.5 -31v-30q0 -9 -1 -18t-3 -17q-1 -8 -0.5 -14.5t-0.5 -14.5l-3 -33q0 -5 -0.5 -10t-0.5 -10q0 -1 -1 -2.5t-1 -3.5q-2 -8 -3 -15.5t-3 -15.5q-3 -20 -11 -45q-2 -6 -4 -12.5t-5 -12.5q-6 -18 -17 -36q-4 -7 -7.5 -13t-7.5 -12q-8 -12 -17.5 -22.5
t-20.5 -20.5q-9 -9 -12 -13q-8 -12 -18 -14q-2 -1 -3 -2t-3 -2q-8 -5 -15 -5t-15 -1q-14 -1 -40 4t-49 20q-9 6 -17 13t-14 18q-5 10 -10.5 19.5t-10.5 20.5q-6 9 -10 19t-8 21q-1 2 -1 4t-1 5q0 8 -1 12q-2 10 -3.5 19t-3.5 20q-3 10 -3 25q-1 4 -1.5 7t-1.5 7
q-2 6 -3 12.5t0 13.5q0 6 -0.5 12t-0.5 13q0 11 -0.5 21t0.5 21q1 15 1.5 30.5t2.5 30.5q1 8 2 15t3 15q1 2 1 5.5t1 6.5t1.5 5t1.5 4l6 18t8 17q2 3 2 7t2 7q3 5 5 10l4 10q3 7 6.5 13.5t6.5 13.5q3 8 10 15q6 6 11.5 12.5t13.5 10.5q2 2 5 2.5t5 2.5q11 7 23 10.5t24 8.5
h7q11 -1 17.5 -7.5t1.5 -9.5q-4 -2 -10 -10.5t-13 -18.5t-12.5 -19.5t-7.5 -13.5l-9 -15q-2 -5 -5 -9.5t-5 -9.5q-1 -4 -2 -7t-2 -8q-2 -8 -6 -15.5t-5 -15.5q-2 -7 -3.5 -13t-3.5 -11t-3 -15.5t-3 -15.5q-1 -5 -2 -9t-2 -9q-1 -8 -1 -16.5v-17.5q-1 -3 -1 -8
q-2 -13 -0.5 -25.5t1.5 -25.5v-11t1 -12q2 -14 3.5 -26.5t3.5 -26.5q1 -5 3 -11q1 -4 1.5 -6.5t1.5 -6.5q0 -4 3 -8q3 -5 3.5 -12t1.5 -13q2 -23 10 -43q3 -9 4.5 -25.5t6.5 -22.5q8 -10 15 -18t19 -9q5 0 14 -1t11 -1q11 0 19 3.5t16 11.5q4 5 5.5 7.5t4.5 8.5q5 13 9 23.5
t10 22.5q1 2 3 7t4 7q1 7 2 11.5t2 8.5t2 9t3 13q1 9 2 16.5t3 15.5t3.5 15.5t3.5 15.5q1 4 1.5 8t1.5 8q5 23 5 46t2 47q1 10 0.5 19.5t-0.5 20.5q0 10 0.5 19.5t1.5 20.5q0 4 0.5 8.5t0.5 8.5q0 14 1 27t-1 27q-3 22 -2.5 41.5t-15.5 33.5q-5 4 -8.5 7t-13.5 3
q-2 0 -3 -0.5t-2 -0.5q-14 -3 -23 -18q-11 -17 -12 -37q0 -8 1.5 -15.5t6.5 -14.5q1 -1 1.5 -2.5t1.5 -2.5q0 -2 0.5 -4z" />
    <glyph glyph-name="M" unicode="M" horiz-adv-x="424" 
d="M400 437q1 -5 1 -15v-13v-18q1 -10 -0.5 -19t-3.5 -18q0 -2 -1 -4t-1 -4l-6 -30q-1 -6 -2.5 -12t-2.5 -11q-2 -8 -3 -17t-1 -19t-0.5 -20.5t-1.5 -20.5l-1 -7q0 -7 -1 -13.5t-2 -11.5q0 -3 -0.5 -20.5t-0.5 -37.5t-0.5 -37.5t-0.5 -19.5q-1 -6 -1 -12t-1 -12
q0 -8 -0.5 -14.5t-1.5 -14.5q0 -4 -0.5 -7.5t-0.5 -7.5q-1 -5 -1 -13q-2 -5 -2 -14v-32q0 -5 1 -10l2 -10q1 -1 1 -4q-1 -1 -1 -3q1 -2 1 -6q0 -3 0.5 -6t0.5 -6v-9q0 -1 -0.5 -2t-0.5 -2q0 -5 -2.5 -6t-4.5 -3h-1q-1 -1 -3 -1t-9 6.5t-9 9.5q-1 2 -5.5 3.5t-5.5 3.5
q-4 5 -7 9.5t-6 9.5q-4 10 -6 24q0 2 -0.5 2.5t-0.5 2.5q-2 6 -2.5 11.5t-1.5 10.5v3q-1 5 -1.5 10t-0.5 11q-1 5 -1 9.5v9.5q1 8 0.5 16t-0.5 16q-1 5 -1 10.5v11.5v3v19q0 6 0.5 22.5t1.5 36t1.5 36t0.5 22.5v2q1 8 2 15.5t3 15.5t4 18t4 22q3 4 3 8q1 2 5 25.5t7 61.5
q0 2 0.5 3.5t0.5 3.5q1 7 1 14t2 14q0 4 1.5 9.5t-1.5 11.5q-1 2 -1 4.5t-1 4.5v3q-3 11 -13 21q-2 -3 -4 -3q-4 -8 -15 -28t-25 -38l-3 -2q-2 -4 -5 -7.5t-6 -7.5v-1q-1 0 -1 -1v-2q-1 -1 -1 -2t-1 -2q-1 -2 -1.5 -3.5t-1.5 -2.5q-1 -2 -1 -5l-2 -5l-2 -16l-2 -16v-5.5
t-1 -5.5v-8v-6q-1 -6 -1 -12t-2 -12q-2 -1 -2 -4q-1 -4 -2 -7t-1 -7q-2 -8 -2.5 -14t-1.5 -13q0 -4 -0.5 -7t-0.5 -6q0 -1 -1 -1.5t-1 -1.5q0 -5 -1 -9q0 -2 -2 -4q0 -1 -0.5 -1t-0.5 -1q-3 -9 -12.5 -17.5t-17.5 -14.5q-2 -3 -4 -4.5t-4 -3.5t-8 -6q-4 -6 -12 -1l-1 1v1v3
q-1 4 -1 8.5t2 9.5q1 0 1 4q0 2 1 2q0 6 3 9q1 5 1.5 9.5t1.5 9.5q1 8 1 15.5t1 15.5v7t1 7v7t1 8v5.5t1 5.5q2 8 2.5 16t1.5 16q1 7 1 13.5v14.5q-1 14 -1 27.5t2 25.5q1 7 0.5 13t-1.5 14q0 2 -0.5 4t-0.5 5q0 2 -1 4v6q-2 6 -5 13q-1 0 -2 -1l-3 -2q-4 -3 -7.5 -6
t-7.5 -7q-3 -3 -9.5 -14.5t-13.5 -25t-13 -25.5t-8 -17t-5.5 -11.5t-20.5 -31.5v-7v-11.5t-1 -11.5q0 -5 -1 -9t-1 -9q-1 -2 -1 -5.5v-5.5q-1 -1 -1 -4v-4v-1v-21q0 -3 -0.5 -6.5t-0.5 -6.5v-6q0 -2 -0.5 -4t-0.5 -4v-16v-7q0 -2 0.5 -4.5t-0.5 -4.5q-2 -11 -3.5 -20
t-4 -17.5t-5.5 -18t-7 -22.5q-1 -4 -2 -7t-3 -7l-3 -7.5l-3 -7.5l-3 -6q-3 -7 -4 -12q-3 -6 -6 -11t-7 -12l-4 -8q-5 -9 -16 -14q-1 -1 -1 -2h-1q-2 -2 -8.5 -5.5t-8.5 -5.5t-2 -2.5t-1 -1.5l-2 -2l-2 1q-7 3 -7 8q-4 5 2 11q6 9 6 14q0 6 3 12q3 5 4.5 10.5t3.5 10.5
q2 8 3.5 15.5t3.5 15.5q1 5 1.5 10.5t1.5 11.5v19.5t1 30.5v18q0 16 3 30v3v8v5q2 3 2 11v13t1 13q0 14 0.5 27.5t1.5 27.5q0 3 1 21.5t1.5 39.5t1.5 37.5t1 14.5v21v9v6v7q0 15 -3 33q-1 2 -1 6v6q-2 9 -4 12q-2 2 -3 5t-2 5q-1 1 -1 2t-1 2q0 2 -2 4q-5 3 -5 8q0 4 5 7
q0 1 1 1v2h1q3 4 8 4q1 0 2 -0.5t2 -0.5q6 -2 14.5 -4.5t12.5 -7.5q1 -1 1 -1.5t1 -1.5q2 -3 5 -6t5 -6q5 -6 7 -8.5t7 -10.5q2 -2 2 -3q8 -13 13 -28q5 -14 6 -28v-3q0 -2 0.5 -2.5t0.5 -1.5q1 -1 1 -5q-1 -3 -1 -7v-8q2 -11 -1 -19q0 -1 -0.5 -8.5t-0.5 -16.5t-0.5 -15.5
t-0.5 -5.5v-3q0 1 2 3q2 5 4.5 9.5t4.5 9.5q3 5 6.5 9.5t6.5 9.5q2 2 4 6.5t4 7.5q1 2 5.5 10t9 17t7.5 15.5l3 6.5q1 2 3 4q1 3 6 5l1 1q3 3 7 6t9 6q2 1 7 1q1 0 9 -1t17 -2t16.5 -2.5t8.5 -2.5q10 -4 15 -19q5 -11 6 -22t2 -20v-9q2 2 4 6q2 1 3 2.5t2 2.5q3 4 6.5 8
t6.5 8q1 1 5 9l8.5 17t8 16.5t3.5 8.5q2 3 4.5 5.5t4.5 5.5q2 1 3 4.5t2 5.5t4 5q2 3 8 9t9 8q1 1 9 2t10 1q1 0 1 -0.5t1 -0.5q14 -4 23 -13q8 -10 11 -20t4 -18q0 -9 1 -13v-9v-8v0z" />
    <glyph glyph-name="L" unicode="L" horiz-adv-x="394" 
d="M404 -30q3 0 6 -5q1 -3 -0.5 -5t-2.5 -3q-5 -7 -8.5 -16t-7.5 -12q-1 -1 -2.5 -1.5t-2.5 -1.5q-3 -3 -8.5 -7t-10.5 -6q-5 -4 -11 -5q-1 0 -2 -1t-2 -1h-2q-1 -1 -5 -1q-6 -2 -9 -2q-12 -3 -22 -3q-5 0 -16.5 4.5t-16.5 6.5q-6 2 -12 2q-2 1 -6 1q-5 2 -12 4.5t-12 4.5
q-13 5 -20.5 8.5t-21.5 7.5q-2 1 -3.5 2t-3.5 1q-7 0 -14 3.5t-14 5.5q-20 5 -37 9t-36 -1q-6 -2 -10 -2q-3 -1 -5.5 -1.5t-5.5 -1.5q-5 -2 -10.5 -3t-10.5 -4q-4 -3 -14 -7h-4h-7q-6 3 -6 10q0 3 1 6q2 8 7 19q2 4 2 5q1 2 1.5 3.5t1.5 3.5q4 13 9 30q2 19 9 37.5t7 35.5
q0 4 -0.5 7t-0.5 7q0 3 0.5 5.5t0.5 5.5t1 13.5t2 23t2.5 23.5t1.5 15q0 9 0.5 33t1.5 51.5l2 55t1 44.5q-2 6 1 12v2q-1 8 1 18v5v3l1 1q0 2 5.5 21t16.5 45l9 15l3 2q0 1 0.5 1t0.5 1q2 2 3 5t3 5q1 2 4.5 4t5.5 4q1 1 1 2t1 2q1 2 2 3t2 3q2 3 4.5 7t4.5 7q8 8 13 11.5
t11 6.5l14 7t23 13q1 1 2 1.5t3 2.5q1 0 2 1l2 2q2 2 5 4t8 2h1q1 0 1 0.5t1 0.5q4 2 6 2q4 0 6 -1q1 0 2.5 -1t3.5 -7v-1q-4 -12 -15 -15l-1 -1q-11 -9 -18 -19q-5 -5 -8.5 -10.5t-6.5 -10.5q-3 -2 -6.5 -8.5t-7.5 -14t-7.5 -15t-5.5 -11.5q-1 -3 -1 -5t-1 -4q-5 -9 -5 -23
q0 -7 -3 -14q-2 -2 -2.5 -8t-4.5 -27v-1q-1 -3 -2 -6.5t-1 -5.5q-1 -5 -1.5 -10t-1.5 -10q-3 -12 -3 -23q0 -4 1 -14t1.5 -24t1 -29.5t0.5 -30.5q0 -3 -0.5 -13.5t-1.5 -22t-2 -20.5t-2 -8q-1 -11 -5 -27t-4 -27q-1 -9 -4 -20t-6 -18l-13.5 -31.5t-9 -19.5t-11 -20
l-19.5 -33q6 3 11 6.5t12 6.5l2 1q3 1 11 2t17 2t17.5 2t12.5 1h9h8h6h9q2 0 5.5 -1t6.5 -1q5 0 9.5 -1t9.5 -2q4 0 7.5 -2t5.5 -3t3.5 -1t3.5 -1q16 -8 25.5 -14t22.5 -11q4 -2 11.5 -5t15.5 -6.5t16 -6.5t14 -4q14 -2 18 0t13 3q5 0 11.5 6t13.5 11q1 0 2 1t2 1l1 1h1h2
q4 0 6 -1z" />
    <glyph glyph-name="K" unicode="K" horiz-adv-x="414" 
d="M379 -50q3 -3 1 -7q-3 -4 -10 -5t-27 7l-5 2.5t-6 3.5q-1 1 -3 1q-4 2 -11.5 4t-10.5 7q-2 2 -9.5 7t-11.5 8q-6 4 -8 6q-6 6 -9.5 12t-7.5 12q-1 2 -2 3.5t-2 3.5t-1 3t-1 3v1q-1 4 -2 7.5t-3 8.5q-4 8 -6 18q-1 2 -1 6q0 1 -0.5 2t-0.5 3q-2 4 -2.5 7.5t-2.5 7.5
q-1 2 -1 3t-1 3q-2 6 -2.5 12.5t-1.5 12.5q0 5 -0.5 9t-1.5 9q0 2 -0.5 5t-0.5 5q-1 3 -1.5 6.5t-1.5 6.5q-2 6 -2 9q-2 4 -2.5 7.5t-2.5 7.5q-5 20 -9 41t-10 43q-6 15 -13.5 31t-10.5 19q-2 2 -5.5 6t-7.5 8q-4 6 -5 6l-3 3q-6 6 -11 7q-2 2 -2 3h-1q-1 1 -2 1
q-1 -3 -1 -10v-6q-1 -6 -1.5 -14t-0.5 -15q0 -2 -0.5 -3.5t-0.5 -2.5v-10v-9q0 -2 -0.5 -2.5t-0.5 -2.5l-1 -1v-2l-1 -1q0 -7 -1 -11q0 -8 -1 -12q0 -2 -1 -8t-2 -13.5t-2 -14t-1 -8.5v-5v-1q-1 -1 -1 -3q-1 -2 -2.5 -16t-2.5 -30t-1.5 -29.5t-0.5 -16.5q0 -2 -1 -3t-1 -3
q0 -5 -1 -13t-3 -14q-1 -2 -1 -6v-1q-1 -3 -1 -9q-1 -3 -3 -11l-3 -12q0 -3 -1 -5.5t-2 -5.5q0 -1 -1 -4.5t-3 -20.5q-1 -2 -1.5 -4t-1.5 -4l-3 -6q-1 -5 -5.5 -12.5t-10 -15.5t-11 -15.5t-9.5 -11.5q-3 -3 -8 -6t-7 -5q-5 -6 -14.5 -11t-19.5 -8h-2l-5 2l-2 5q0 11 4 19
q2 4 3 7l2 6q2 6 4.5 10t4.5 9q4 11 7 20.5t4 14.5q0 3 0.5 5.5t0.5 4.5q0 1 0.5 1.5t0.5 2.5q0 5 1 8q1 2 1 5t1 6q2 8 4 26t4 27q0 5 0.5 11t1.5 11q0 3 1 6t1 6q1 3 1 9q0 1 1 13t2 26.5t2 26.5l1 12v5q0 3 0.5 6.5t0.5 6.5q0 1 1 9.5t1.5 18.5t1.5 18.5t1 9.5
q0 2 0.5 4.5t0.5 4.5q0 1 0.5 6.5t0.5 11.5t0.5 11t0.5 7q1 6 2 19.5l2 27t1.5 25t0.5 13.5v4q-1 1 -1 4q1 5 1 9v9v3q0 1 0.5 13.5t1 27t1 27t-0.5 14.5v8v9.5t-1 9.5l-1 3q-1 10 -2.5 20t-6.5 20q0 1 -2 5q-2 5 -3 8.5t-3 8.5q-2 4 -2 6q-1 2 -1 5q-2 5 -3 9t-3 8
q-2 2 -2 3l-2 2q-4 5 -4 7.5t5 7.5l1 1h1q3 0 6.5 -0.5t6.5 -3.5q2 -2 4 -2q3 0 4 -1q4 -1 13 -2t12 -3l3 -3q11 -4 25 -12.5t17 -19.5q1 -3 3 -9.5t3.5 -13.5t3 -13t2.5 -7q1 -5 1.5 -8.5t0.5 -8.5v-1q2 -4 2 -8v-8v-9q1 -7 1 -13v-12q0 -4 -0.5 -8t0.5 -8q0 -3 -0.5 -6
t-0.5 -6v-2q-1 -3 -1 -9v-5v-40q-1 -5 -1 -9v-9v-2l3 3q4 3 7.5 6t7.5 5q2 2 4 3q7 5 11 10t11 11q2 3 5 6l5 5q2 3 7 8t9 13.5t7 14.5q2 2 2.5 4.5t2.5 4.5q2 3 4 9.5t4 9.5q4 7 8.5 19t9.5 19q6 8 8 13q2 3 4.5 6t4.5 7q3 4 6 7.5t7 7.5l11.5 11.5t11.5 10.5q8 8 24 16
q1 1 1.5 1t1.5 1q6 8 16 7l2 -1v-2q0 -1 -1 -1v-2q0 -1 -1.5 -3t-1.5 -3q-2 -5 -11 -12q-11 -8 -18.5 -14t-14.5 -14l-4 -4q-1 -2 -4 -5q-2 -2 -4 -3q-1 -2 -3 -4l-3 -3q0 -1 -2 -3l-6 -6q-2 -2 -4.5 -7t-12.5 -26q-2 -4 -2 -5q-2 -2 -2.5 -3.5t-1.5 -3.5q-3 -5 -6.5 -13
t-6.5 -13q-2 -4 -4.5 -9.5t-4.5 -9.5q-3 -4 -7 -10.5t-7 -10.5q-2 -4 -7.5 -11t-11.5 -14.5t-11.5 -13.5t-7.5 -6q-5 -4 -10.5 -8t-10.5 -9l-7 -7l-2 -2q2 -1 6 -1q16 -2 30 -12q6 -4 8 -6q3 -3 6 -4.5t8 -4.5q2 -1 3.5 -1.5t3.5 -2.5q4 -2 5 -3q6 -3 9 -9q2 -2 3 -3.5
t3 -2.5q6 -5 11.5 -10.5l10.5 -10.5q2 -2 3.5 -4.5t3.5 -4.5q3 -3 5 -6t4 -8q2 -4 5 -7l2 -4l1 -2l1 -1q2 -4 3 -5l1 -1q1 -1 1 -3q1 -3 3 -7.5t4 -14t6 -26t10 -44.5q1 -2 1 -4t1 -4v-6q1 -1 1 -3t2 -10.5t4 -18.5t4 -18t2 -10q1 -3 1 -6.5t1 -6.5q0 -2 0.5 -4t0.5 -4l1 -3
q2 -10 3.5 -19t5.5 -18q0 -1 0.5 -2t0.5 -3q1 -2 1 -3t2 -3t2.5 -4.5t2.5 -5.5l3 -6q3 -5 8 -12q3 -6 10 -13q1 -2 2 -2.5t2 -1.5l3 -3q2 0 2 -2q6 -4 7 -8z" />
    <glyph glyph-name="I" unicode="I" horiz-adv-x="162" 
d="M164 637q-3 -4 -4.5 -6.5t-3.5 -4.5q-4 -4 -2 -6q0 -2 -1 -2q-6 -4 -8 -8.5t-4 -9.5q-4 -6 -6.5 -12.5t-4.5 -12.5q-2 -7 -2.5 -13t-2.5 -13v-9v-6.5t1 -7.5q2 -8 1.5 -15t-1.5 -15q-1 -11 -1.5 -22.5t-0.5 -22.5q1 -10 0.5 -19.5t-0.5 -19.5q0 -3 -0.5 -13.5t-1 -22.5
t-1 -22.5t-0.5 -13.5v-3q3 -15 1 -26q-1 -13 -2 -33t-1.5 -40t-1 -35.5t-0.5 -19.5v-36q0 -9 -0.5 -18t-0.5 -18q-1 -8 -2 -17t-2 -17q-2 -12 -5.5 -24.5t-10.5 -24.5q-2 -2 -2.5 -4.5t-2.5 -5.5q-5 -10 -18.5 -20.5t-25.5 -17.5q-5 -2 -8.5 -4.5t-7.5 -4.5q-3 -2 -5.5 -3
t-6.5 -2q-7 -3 -13 0q-7 3 -3 8t6.5 10.5t9.5 10.5q3 1 3 5q5 17 9.5 32.5t6.5 32.5q1 6 2.5 12t3.5 12q1 5 1 9v9v19.5t-1 19.5q0 9 -0.5 18.5t-1.5 18.5q0 3 1 5.5t0 5.5v13.5t-1 13.5q-1 14 -2 28.5t-2 28.5v19q-2 22 -0.5 56.5t1.5 60.5q0 13 0.5 25.5t1.5 25.5
q1 8 2.5 16t3.5 16q0 5 2 15q2 9 3.5 18t3.5 17q2 6 2.5 12t3.5 11q5 11 19 23.5t23 22.5q2 2 10 6q9 5 18 9t22 6h10z" />
    <glyph glyph-name="J" unicode="J" horiz-adv-x="325" 
d="M199 226q0 -9 -7 -16t-14.5 -12.5t-14.5 -10.5q-4 -3 -8 -6.5t-6 -8.5q-8 -7 -14.5 -13t-13.5 -14q-11 -10 -16 -20.5t-13 -21.5q-6 -8 -11 -16.5t-10 -16.5q-5 -11 -11 -20.5t-12 -20.5q-5 -10 -8 -20t-7 -21q-2 -5 -3 -9t-2 -9q-1 -4 -1 -8.5t-2 -8.5q0 -8 -0.5 -17
t-0.5 -17q0 -11 4 -22q1 -1 1 -2.5t1 -3.5q5 -16 11 -29t20 -21q3 0 5.5 2t5.5 -1q1 0 3 1.5t4 2.5q2 2 4 3.5t5 2.5q4 1 7 3.5t7 5.5q13 12 21 27q5 9 9.5 17t9.5 16q4 7 7 13.5t6 13.5q1 3 2.5 5.5t2.5 4.5q3 8 6 15.5t5 15.5q2 4 4 7.5t4 8.5q3 8 5.5 14.5t4.5 13.5l6 16
l6 16v3q2 9 3.5 18.5t2.5 17.5q2 10 4 19.5t4 19.5q1 8 1.5 15t2.5 15v14.5t1 14.5q0 14 0.5 26t0.5 25q-1 19 -1.5 38.5t-0.5 39.5v23t1 23v19q1 21 -2 49t-8 49q-1 6 -3.5 13.5t-5.5 14.5q-8 21 -14 43.5t-14 42.5q-2 5 -4.5 9.5t-5.5 9.5q0 3 -3 6q3 3 3.5 5t3.5 5
q2 1 7 1t8 -2q11 -8 22 -9q13 -4 31 -11.5t25 -17.5q1 -2 2 -3.5t2 -3.5q6 -5 5 -12q0 -2 0.5 -3t0.5 -3q3 -8 5.5 -23.5t6.5 -23.5q3 -15 6.5 -32t5.5 -33q0 -24 0.5 -35t0.5 -17.5v-12.5t-1 -21q0 -8 -0.5 -16.5t-0.5 -17.5q-2 -8 -2 -17.5t-1 -17.5v-36q-1 -10 0 -19.5
t0 -19.5q-1 -11 -1.5 -21.5t-2.5 -21.5q-1 -13 -2 -25t-3 -25q-2 -11 -2 -22t-2 -22q-1 -6 -1.5 -13.5t-2.5 -15.5q-1 -10 -2 -19.5t-4 -18.5l-2 -6t-2 -5q-5 -12 -8 -25t-7 -26q-2 -8 -7.5 -15t-7.5 -15l-6 -10l-6 -10q-8 -14 -19.5 -25.5t-22.5 -23.5q-6 -5 -12.5 -10.5
t-13.5 -10.5q-5 -5 -17 -9.5t-17 -8.5q-9 -7 -22 -9q-11 0 -23 -3h-1q-9 -2 -16 1t-12 8q-10 8 -16.5 17t-11.5 19q-2 4 -3 8t-3 8q-2 8 -2.5 14.5t-2.5 14.5v6q-3 17 -0.5 32.5t7.5 31.5q0 3 2 9q4 14 8 21q4 6 6.5 13t4.5 14q5 8 9.5 17.5t10.5 18.5q4 7 7.5 13.5
t7.5 12.5q6 10 11.5 19.5t14.5 18.5q4 4 7 10q3 5 6.5 9t7.5 9q2 2 5 4.5t5 4.5q12 12 20 21t22 19q4 3 9.5 7t9.5 6q2 2 3.5 2.5t3.5 1.5q2 2 3 -1t2 -5z" />
    <glyph glyph-name="H" unicode="H" horiz-adv-x="354" 
d="M-2 -78q-3 6 0 13q2 3 2 6t1 6q2 4 4 10q4 10 5 15q2 8 4.5 16t4.5 16q2 11 4.5 20.5t5.5 19.5q7 18 9 38.5t2 39.5q0 5 0.5 9t1.5 9v13.5t1 14.5q1 10 1 19.5t1 19.5q2 11 3 21.5t1 21.5q0 6 0.5 12t1.5 11v26v20t1 20q0 9 -0.5 18.5t0.5 18.5q0 6 0.5 12t1.5 11
q0 6 0.5 20.5t1 30.5t1 30.5t0.5 20.5q1 7 1 13.5t1 13.5v16.5t-0.5 21.5t-0.5 21.5v16.5q0 17 -4 30q-1 4 -2 7l-2 6q-3 5 1 9q1 3 6 0q2 -1 2.5 -1.5t2.5 -1.5q2 -2 13 -7t13 -7q2 0 2 -2q4 -4 10 -12.5t11 -18t9.5 -19t6.5 -15.5q3 -9 5 -18t2 -19l3 -51v-23
q0 -4 0.5 -16.5t0.5 -26.5v-26.5v-16.5v-10.5t-2 -10.5v-20q0 -6 -0.5 -11.5t-2.5 -10.5q-2 -4 -2 -8t-1 -9t-1 -9t-1 -8v-8q0 -6 6 -5q5 2 11 3t11 3q2 1 5 2l6 2q2 1 5 1.5t7 2.5q5 2 10 3l10 2q7 2 13.5 3t12.5 3q11 1 20 6q4 3 4 7q2 16 3 28.5t3 29.5q2 10 4 19.5
t4 19.5q2 7 3 13t1 12q2 10 5.5 18.5t5.5 17.5q3 10 8 23q5 18 29 34q2 5 9 11.5t11 10.5q3 5 10.5 11t9.5 8q1 1 1 2t1 1q4 2 6 1q1 -1 1 -2t1 -3q0 -1 -0.5 -1.5t-0.5 -2.5q-4 -11 -6.5 -22.5t-4.5 -23.5q-2 -9 -3 -18.5t-3 -19.5q-2 -8 -3.5 -16t-2.5 -16q-1 -5 -1 -11
v-12t-1 -13t-3 -12q-4 -13 -6 -26q-1 -5 -2 -9t-2 -9t-1 -11t-1 -12q0 -2 -0.5 -4t-0.5 -4v-17.5t-1 -17.5q-1 -6 -1.5 -11.5t0.5 -11.5q0 -5 0.5 -9.5t0.5 -9.5q0 -2 -0.5 -3.5t-0.5 -3.5v-19.5t-1 -19.5q0 -9 -1 -13q0 -4 -0.5 -13t-0.5 -19v-19v-13t1 -20.5t2 -35.5
t2 -36t1 -21q0 -2 1.5 -4.5t0.5 -4.5q-2 -11 -1.5 -22.5t2.5 -23.5q2 -5 2 -10t1 -10q1 -8 1.5 -15.5t1.5 -15.5q1 -4 1 -7t1 -6q0 -2 1 -3q2 -2 1.5 -4.5t-0.5 -5.5q0 -6 -4 -7q-3 0 -7 2q-1 0 -3 4q-2 3 -4.5 4.5t-4.5 4.5q-1 2 -5 5t-4 5q-6 9 -15.5 19t-13.5 20
q-4 11 -9 22.5t-6 23.5q-1 14 -3.5 28.5t-3.5 28.5q0 4 -1 25.5t-2.5 46.5t-2.5 46t-1 25q0 8 -0.5 14.5t-0.5 14.5v20v13q1 5 1 10v10v15q0 4 -3 3q-6 0 -8 -1q-4 -2 -6 -2q-7 -2 -15.5 -3.5t-19.5 -4.5q-5 -2 -8.5 -2.5t-8.5 -2.5q-4 0 -10 -2q-5 -2 -11 -3.5t-11 -3.5
q-8 -2 -10 -2q-10 -1 -10 -11q1 -5 0.5 -8.5t-0.5 -8.5q0 -4 -0.5 -8t-0.5 -9q1 -3 -1 -6t-2 -6q0 -2 -0.5 -3t-0.5 -3q1 -5 0 -10t-3 -10q-1 -1 -1 -4q1 -2 -0.5 -16t-3.5 -30t-4 -30t-3 -17q-3 -19 -9 -35q-4 -10 -6.5 -19t-7.5 -18q-1 -1 -1 -1.5t-1 -1.5
q-5 -6 -8.5 -13.5t-8.5 -14.5q-4 -5 -16 -11t-17 -10q-3 -2 -9.5 -4.5t-9.5 -6.5q-2 -4 -5 -4l-3 -3q0 -4 -6 -2z" />
    <glyph glyph-name="G" unicode="G" horiz-adv-x="390" 
d="M233 -78q3 4 6 7.5t5 7.5l2 2q0 5 3.5 8.5t5.5 8.5q2 4 5 7.5t5 8.5l4 10t3 10q0 3 1 5.5t2 5.5l6 27q2 7 2.5 13.5t1.5 12.5t-0.5 1.5t-6.5 -9.5q-2 -2 -4 -3.5t-4 -3.5q-6 -7 -11.5 -13t-11.5 -12q-7 -7 -14.5 -12.5t-16.5 -9.5l-10 -4l-10 -4q-6 -2 -10 -2
q-5 -2 -10.5 -2.5t-10.5 -1.5t-10 2q-8 4 -14.5 7t-14.5 7q-3 2 -6.5 3t-6.5 3q-23 13 -34 31q-13 17 -20 35q-5 11 -9 21.5t-9 21.5q-5 10 -6.5 20t-1.5 20v16t-1 16v8q0 9 0.5 27t0.5 28q0 3 2 11q0 2 0.5 4t0.5 4q1 11 3 21.5t4 20.5q2 7 2.5 13t2.5 12l7.5 32.5
t9.5 31.5q0 1 5 13.5t11.5 27t12.5 28t8 16.5q4 6 7.5 13t7.5 14q6 11 17 21l14.5 14.5t15.5 14.5q17 13 30 20.5t25 12t24 5.5t26 1q5 0 13 -2q3 -1 6.5 -1.5t6.5 -2.5q4 -2 10 -6l3.5 -3.5l3.5 -3.5q11 -12 16 -28q2 -7 2.5 -13t2.5 -13q3 -12 -11 -15q-2 6 -2 7
q-1 14 -6 26t-12 23q-4 6 -9.5 9.5t-11.5 5.5q-12 3 -21 2q-18 -1 -36 -11q-4 0 -9.5 -5.5t-10.5 -13t-10 -16t-9 -15.5q-3 -6 -6.5 -11.5t-5.5 -12.5q-11 -23 -16.5 -39.5t-8.5 -31t-5.5 -29.5t-6.5 -33q-2 -6 -2 -10q-3 -11 -6 -31t-5 -31q-3 -13 -5 -25.5t-3 -26.5
q0 -5 -1 -18.5t-2 -18.5q-2 -10 -3 -19t-1 -19q1 -8 0.5 -15.5t1.5 -15.5q3 -22 13 -40q2 -4 4 -7.5t4 -7.5q2 -3 3.5 -5.5t3.5 -5.5q5 -5 6.5 -11t6.5 -11q3 -3 11 -9l8 -6t9 -6q8 -5 8.5 -7t9.5 -4q4 0 13 1t11 3q13 9 28 24q5 5 10 11t10 11q8 8 10.5 12t7.5 9q0 1 1 6.5
t2 11.5t1.5 11.5l0.5 5.5q0 3 -1 18t-2 32.5t-1.5 32.5t-0.5 18v21q0 3 -1.5 19t-3 35.5t-2.5 35.5t-1 19v7q1 6 0 8t-2 7q-1 4 -6 4h-5.5t0.5 0.5t0.5 0.5h-5.5q-3 0 -16.5 0.5t-16.5 1.5t-4.5 5.5t-1.5 6.5q2 5 7 5q4 -1 12 -0.5t16.5 0.5t16.5 0.5t13 -0.5q11 1 20 0
t21 -3q3 0 9.5 -4t6.5 -8q2 -11 3.5 -16t1.5 -16q0 -2 1 -17.5t2 -34t2 -34t1 -17.5q0 -1 -0.5 -13t-1.5 -30t-1.5 -39.5t-0.5 -40t-0.5 -32.5t0.5 -16q1 -6 -1 -16q-2 -13 -4.5 -25t-5.5 -24q-2 -12 -6 -22q-2 -6 -4 -12.5t-4 -12.5q-4 -8 -12 -16l-15 -15q-1 -1 -1.5 -1
t-1.5 -1t-2 -1t-2 -1q-3 -5 -7 -7t-9 -5q-2 -1 -8 -1.5t-13 0t-13.5 2t-8.5 4.5z" />
    <glyph glyph-name="F" unicode="F" horiz-adv-x="363" 
d="M246 309h9t8 1q14 4 30 7q5 4 11 5q2 1 5.5 2t5.5 -4l3.5 -3.5t-0.5 -3.5q-1 -4 -6 -5q-3 -3 -4 -3q-15 -5 -29.5 -10t-30.5 -7q-5 0 -6 -6q0 -3 -0.5 -7t-0.5 -8q1 -12 -1.5 -24t-2.5 -23q0 -9 -0.5 -18.5t-2.5 -20.5v-2q4 -17 1.5 -32t-5.5 -32q-4 -26 -15 -52
q-8 -13 -12.5 -21.5t-8.5 -15.5t-7.5 -13.5t-9.5 -13.5q-5 -6 -7.5 -12.5t-5.5 -12.5q-10 -15 -21 -29t-26 -24q-2 -1 -4 -2.5t-4 -2.5t-7.5 -2.5t-11 -2.5t-10 -1t-4.5 2q1 2 0.5 4t0.5 5q0 1 0.5 2t0.5 3l4 7.5t9 17t9 18.5t5 11q5 10 9.5 21t9.5 22q5 13 9 25.5t7 26.5
q2 9 4.5 19t3.5 20q1 14 4.5 28t5.5 28q1 8 3 15.5t4 15.5q2 12 3.5 24.5t-0.5 25.5q-1 10 -1 20.5t-1 21.5q0 5 -4 6q-3 2 -7 4q-5 2 -10.5 4t-10.5 4t-9.5 1.5t-9.5 -0.5q-5 -1 -8 0t-7 -1q-3 -1 -5.5 -1.5t-6.5 -0.5q-3 0 -6 1.5t-3 4.5q-1 5 6 7q21 7 40 6h17q4 0 8 -2
q4 -1 7.5 -2t7.5 -2q0 2 0.5 3.5t0.5 2.5l6 69q1 12 1.5 23t2.5 23q1 9 3 15q4 21 12.5 40.5t16.5 39.5q4 8 11.5 18.5t12.5 19.5q-4 4 -6 5q-3 0 -4 1q-17 6 -40 10.5t-42 6.5q-17 3 -39.5 0t-42.5 -12q-8 -5 -15.5 -10.5t-12.5 -13.5q-16 -19 -11 -43q0 -1 0.5 -2.5
t0.5 -2.5q2 -14 11 -20t19 -8q3 -1 5.5 -1t4.5 -1q5 0 8 -3v-2q-2 -11 -3.5 -12t-14.5 1q-14 2 -24 9q-11 6 -15 18q-2 5 -4 9.5t-4 9.5t-2 10.5v12.5q3 12 6.5 23t14.5 26q5 5 8 7q6 4 13.5 10l12.5 10q4 3 12 6t16.5 6t16.5 5.5t12 3.5q5 2 8 2.5t7 2.5q14 4 26 5.5
t34 0.5q2 -1 5 -1q15 0 29 -3l28 -6q3 -1 10 -3t15.5 -4t15.5 -4t10 -3q5 -3 19.5 -6.5t25.5 -8.5q14 -5 24.5 -7.5t21.5 -4.5q11 -3 22 -5l22 -4q10 -2 20 -3t21 -3q16 -1 32 4.5t31 10.5q5 2 11.5 4.5t9.5 5.5q2 2 7.5 13.5t5.5 15.5q4 13 0 27t-11 25q-2 3 -5 5.5t-6 4.5
q-7 5 -15 8.5t-17 3.5q-3 0 -4 1q-8 0 -8 5q0 2 3 5t6 3q7 0 13 -0.5t14 -1.5q14 -2 21 -11t15 -20q5 -6 7 -13t5 -14q1 -4 0.5 -10.5t-1.5 -10.5q-2 -6 -4.5 -17t-4.5 -16q-11 -23 -31.5 -35.5t-52.5 -26.5q-8 -3 -15.5 -5.5t-15.5 -5.5q-11 -3 -23.5 -2.5t-24.5 1.5h-19
q-3 1 -5 2t-5 1q-4 2 -8 2q-13 3 -25 6.5t-23 9.5l-8 2t-9 3q-3 1 -5.5 1t-5.5 2q-5 1 -8.5 2t-8.5 -1l-18 -39q-9 -22 -12 -46q-1 -8 -2.5 -16.5t-1.5 -16.5v-11v-10q-2 -16 -4 -30.5t-3 -30.5q-1 -11 -1.5 -23.5t-1.5 -25.5q0 -1 0.5 -2.5t0.5 -3.5z" />
    <glyph glyph-name="E" unicode="E" horiz-adv-x="392" 
d="M175 336l-3 1.5l-3 1.5l-24 11q-14 7 -24.5 19t-16.5 27q0 3 -1 4q-5 7 -6.5 14t-4.5 13q-6 18 -1 34l12 31q1 8 9 19.5t14 15.5q5 4 9.5 8t9.5 8t10.5 8t12.5 8q7 2 13 5.5t14 6.5q12 7 23 7l22 2q14 4 33 -1q5 -2 9.5 -4t9.5 -7t10 -9t10 -11q8 -8 10 -22q0 -2 1 -3
t1 -3q-4 -4 -5 -8q-4 0 -5 -3q-1 2 -2 3t-2 3q0 10 -7 22q-3 4 -6 7.5t-7 5.5q-2 2 -4 3t-4 4q-5 6 -11 6.5t-13 1.5q-12 1 -24 -4q-11 -7 -20.5 -18.5t-17.5 -22.5q-5 -7 -9.5 -15.5t-9.5 -17.5q-4 -11 -8.5 -21.5t-8.5 -21.5q-6 -18 -1 -41l2 -12q5 -10 6.5 -18.5
t9.5 -16.5q8 -7 20 -10q3 0 7 2q7 3 14.5 3t15.5 -1q0 -2 0.5 -4.5t0.5 -4.5t-1 -4t-4 -3l-8 -4q-14 -10 -25.5 -22.5t-16.5 -22.5q-1 -2 -5 -6q-8 -6 -13.5 -14.5t-10.5 -17.5q-3 -8 -7 -14t-8 -14l-3 -2q-3 -4 -4.5 -7.5t-3.5 -6.5q-1 0 -1 -3q-3 -4 -5.5 -9t-5.5 -10
q-6 -10 -8 -20.5t-7 -21.5q-4 -8 -4.5 -17t-0.5 -19q0 -17 -1.5 -32.5t9.5 -29.5l8 -10t9 -11q2 -2 3.5 -4t2.5 -4q3 -5 9 -12t11 -12l11 -10q3 -3 12 -7.5t20.5 -8.5t24 -6.5t23.5 -2.5q8 2 15 5.5t14 5.5l14 7q4 3 8.5 5t9.5 4q6 3 12 6.5t12 5.5q9 6 14 12t12 12
q5 5 7.5 11.5t4.5 12.5q3 8 5.5 15.5t2.5 15.5q1 9 -6 21t-10 25q-1 5 -3.5 9.5t-4.5 8.5l-6 11q2 1 6 1q4 4 10 0q2 -2 4.5 -3.5t6.5 -3.5q2 -3 3.5 -6.5t3.5 -5.5q4 -6 5.5 -12.5t3.5 -12.5q1 -4 1 -7.5t1 -5.5q1 -7 2.5 -13t1.5 -12q0 -5 -1.5 -9t-3.5 -8
q-2 -6 -4.5 -11.5t-4.5 -11.5q-1 -2 -2.5 -4t-3.5 -5q-2 -5 -4 -7l-5 -10q-4 -4 -6.5 -8t-6.5 -9q-7 -8 -16 -15t-20 -11q-13 -4 -25.5 -7.5t-24.5 -7.5q-4 -1 -7 -2t-7 -3q-8 -1 -16.5 -2t-16.5 1q-9 1 -18.5 0.5t-17.5 -0.5q-5 1 -9.5 2t-8.5 4q-30 15 -64 28q-5 2 -9 6
t-9 8t-10 8.5t-10 7.5q-5 5 -9 10l-8 10l-7 10q-6 6 -6 12q-5 25 -7 47.5t-2 47.5q0 9 2.5 17t4.5 16l2 16l6 15q3 6 6 13t7 14q2 2 3.5 5.5t4.5 7.5l42 47q4 5 8 8t9 6q6 6 10 9l34 15q9 3 21 11z" />
    <glyph glyph-name="C" unicode="C" horiz-adv-x="402" 
d="M250 -24q5 2 16 5.5t19 9.5q9 5 15.5 13t13.5 16q2 3 5 5q3 3 5.5 6t4.5 8q0 2 4 6q1 2 2 2.5t2 2.5q3 5 6 11t7 12q10 16 12 35q1 0 1 2q1 7 9 5q8 0 8 -7q-1 -3 -1 -6t-1 -6l-9 -27q-2 -5 -3.5 -9t-5.5 -6q-3 -7 -7.5 -12.5t-8.5 -12.5q-1 -2 -1.5 -2.5t-1.5 -2.5
q-2 -2 -4.5 -5t-4.5 -5q-9 -10 -18 -19.5t-18 -17.5q-16 -13 -33 -17q-13 -5 -26 -8.5t-27 -8.5q-5 -2 -11 -1.5t-11 0.5q-24 1 -40 5t-34 12q-3 1 -5 2l-4 2q-4 3 -11 10q-10 9 -17 20q-4 4 -6.5 8.5t-4.5 8.5q-5 8 -9 16.5t-8 16.5t-6.5 16.5t-7.5 17.5q-2 8 -4.5 15.5
t-4.5 15.5q-1 5 -2.5 9.5t-2.5 9.5q-2 11 -5.5 23t-3.5 25v11t2 10q0 1 0.5 2t0.5 3q-1 8 0.5 15.5t2.5 15.5q1 7 1 13t1 12q2 9 3 17.5t3 16.5q1 8 2 16.5t3 16.5q1 5 2 9t2 9q2 7 5 13t6 13q1 6 5 13q3 10 8 19t10 17q2 3 2.5 6t2.5 6q2 5 3.5 9.5t6.5 7.5q1 1 1.5 2
t1.5 2q1 3 2.5 4.5l3.5 3.5q4 3 6.5 6.5t5.5 7.5l12 12q5 8 13 13.5t16 13.5q3 3 7 5t7 4q8 7 16.5 11t16.5 9q6 3 12 5.5t11 4.5q3 1 5.5 1.5t5.5 1.5q11 2 21.5 3t22.5 0h15t14 -2q5 -1 10.5 -3.5t10.5 -5.5q19 -13 30 -29q4 -5 7 -10.5t4 -11.5q2 -5 4 -11.5t2 -12.5
q1 -19 0 -37q0 -4 -0.5 -7.5t-0.5 -7.5q0 -16 -8 -34q-1 -2 -3 -8q0 -2 -2 -4q-2 -4 -5.5 -7.5t-5.5 -6.5q-4 -9 -15 -15q-1 0 -1.5 -0.5t-1.5 -0.5q-8 -2 -15.5 -2.5t-15.5 -2.5q-2 0 -5 -0.5t-6 -0.5q-15 2 -25 9q-4 2 -5 3q-4 1 -4.5 3.5t-1.5 5.5q-1 0 1 2q2 3 7 3.5
t7 -2.5q2 -2 5 -2.5t5 -1.5q20 -11 43 2q5 2 9.5 4.5t8.5 5.5q6 6 8 14q9 18 11 39q0 10 0.5 19t0.5 18q0 18 -7 32q-7 15 -17 24q-3 2 -5 4.5t-5 4.5q-6 5 -13 7.5t-14 4.5q-6 1 -13 0.5t-14 0.5q-21 -6 -30 -14t-20 -19q-8 -10 -16 -15q-6 -5 -10 -11.5t-8 -14.5
q-2 -3 -3.5 -6.5t-3.5 -6.5q-5 -10 -9 -19.5t-9 -20.5q-3 -6 -6.5 -12.5t-6.5 -13.5q-4 -11 -7.5 -21.5t-8.5 -21.5q-2 -5 -3.5 -11t-3.5 -12q-2 -3 -3.5 -6.5t-3.5 -8.5q-1 -2 -3 -8q-2 -8 -4.5 -16.5t-5.5 -16.5q-5 -12 -5 -23.5v-22.5q-1 -9 1 -17.5t2 -16.5q0 -16 3 -32
q2 -8 3.5 -17t3.5 -17q1 -8 2 -15t2 -13q2 -8 4 -15t4 -15q2 -5 3.5 -11t5.5 -11q3 -5 6.5 -9.5t7.5 -8.5q5 -5 7.5 -8t7.5 -7q3 -3 5 -6t5 -5q4 -3 8.5 -6t8.5 -6q3 -2 14 -4.5t16 -1.5z" />
    <glyph glyph-name="D" unicode="D" horiz-adv-x="396" 
d="M157 85q1 -3 3 -5.5t-1 -6.5q-2 -2 -3.5 -4.5t-3.5 -5.5q-2 -2 -2.5 -4t-2.5 -4q-4 -8 -5 -13t-2 -13q-2 -6 4 -12q3 -4 7.5 -7t10.5 -4q10 -2 15.5 -3t15.5 -1q9 1 17.5 3.5t15.5 10.5l10.5 10.5t10.5 11.5q6 8 11.5 16t8.5 17q2 7 4 13.5t3 13.5q2 11 4.5 21t4.5 21
q3 17 6 32.5t5 31.5q2 13 3 25.5t3 24.5v32q-1 13 -1.5 25.5t-2.5 26.5q0 5 -0.5 9.5t-1.5 9.5q-3 11 -5.5 22.5t-7.5 22.5q-4 8 -7.5 16.5t-8.5 16.5l-7.5 15t-8.5 15q-6 9 -13 17t-17 14q-6 5 -12 8t-14 5q-11 3 -16 -2t-13 -11q-4 -3 -12 -11q-3 -3 -4 -5
q0 -2 -5.5 -10.5t-5.5 -11.5q0 -9 0.5 -23t-0.5 -22v-47q-1 -8 -0.5 -16t1.5 -16q1 -4 0.5 -7.5t-0.5 -6.5q0 -8 0.5 -15.5t-1.5 -15.5q-1 -7 -1.5 -13.5t-0.5 -13.5q0 -4 -1 -7t-1 -6q0 -9 0.5 -17.5t0.5 -16.5v-2q-2 -7 -2 -13.5t-1 -13.5q-1 -11 0 -21t-2 -21
q-1 -3 -1 -10q1 -7 0 -13.5t-2 -13.5l-6 -30q-5 -24 -12 -44q-11 -33 -31 -57q-4 -5 -12 -10.5t-12 -10.5q-2 -3 -8.5 -6t-9.5 -6q-7 -7 -14.5 -10t-13.5 -8q-6 -4 -9 -2q-6 4 -2 9q6 7 10.5 15t9.5 16q3 4 7 14q5 10 9 20l8 20q4 11 6.5 22t4.5 22l3 27q2 13 3.5 25.5
t3.5 24.5q1 5 1 9.5v9.5q1 8 2 17t1 17q1 21 0 42q0 6 -0.5 11.5t-1.5 10.5q-2 10 -1 19.5t1 19.5v11.5t1 11.5q0 16 0.5 32t1.5 33q1 14 1.5 29t-0.5 29q-1 8 -1 14.5t-1 14.5q-1 5 -1.5 10t-1.5 10q-2 10 -4.5 19.5t-8.5 17.5q-5 9 -17 16q-2 2 -4 3t-4 3q6 7 13 6
q4 -1 14 -3q3 0 4 -1q6 -2 14 -3.5t12 -3.5l2 -1q8 -7 19.5 -13t16.5 -14q6 -10 10 -11.5t6 -12.5q0 -2 0.5 -3t0.5 -3q3 4 7 10q4 4 5.5 6.5t6.5 7.5q3 3 6.5 5.5t6.5 5.5t11 5q5 0 8.5 1t7.5 3q13 7 30 5q7 -1 13 -3.5t13 -4.5q3 -2 6.5 -2.5t6.5 -1.5q8 -4 11 -6
q7 -5 13 -10.5t12 -10.5q19 -18 29 -37q4 -7 6 -13.5t4 -13.5q2 -5 2.5 -10.5t2.5 -10.5t3.5 -9t3.5 -9q3 -8 6 -16.5t5 -16.5q2 -4 4 -10t2.5 -12.5t0.5 -12.5q0 -11 0.5 -21t0.5 -21v-19q-1 -9 -2 -17.5t-2 -17.5v-10.5t-1 -10.5q-1 -14 -1.5 -26.5t-2.5 -26.5
q0 -5 -1 -10.5t-3 -10.5q-2 -6 -4.5 -11.5t-4.5 -10.5q-2 -4 -2 -5q-2 -6 -5 -11t-5 -10t-4.5 -10t-4.5 -10q-6 -17 -15 -30.5t-19 -27.5q-6 -9 -14.5 -14t-19.5 -8q-9 -3 -19 -3h-20q-2 -1 -4 -0.5t-4 0.5q-9 -1 -17 0.5t-16 3.5q-6 2 -8 1q-28 0 -43 26q-9 14 -3 28
q2 5 4 11t4 11q3 6 7.5 11t8.5 10q2 3 8 1z" />
    <glyph glyph-name="A" unicode="A" horiz-adv-x="476" 
d="M464 -87q2 -2 2 -6t1 -11t-3 -7h-3q-4 2 -12 4q-11 3 -27.5 17t-28.5 24q-7 6 -10.5 16.5t-7.5 17.5q-5 8 -8 20t-8 22q-2 4 -2.5 9t-1.5 10q0 5 -2 18t-4.5 27t-5 26t-2.5 17v1q-1 7 -2 11.5t-1 8.5v8.5v12.5q0 9 -1 18t-2 17q0 2 -0.5 4t-0.5 4q0 3 -4 5v1l-14 12
l-14 12l-3 2q-3 2 -5.5 5t-5.5 5q-2 2 -3 3.5t-3 3.5q-3 2 -9 5t-8 5t-4 3q-4 4 -7 6q0 1 -0.5 1t-0.5 1q-1 -2 -1 -3l-1 -5q-2 -9 -2.5 -20t-2.5 -21q-3 -12 -6 -32q0 -3 -1 -12t-2.5 -20.5t-4 -23t-6.5 -19.5q0 -2 -0.5 -3.5t-0.5 -3.5q-2 -10 -6 -22.5t-6 -23.5
q0 -2 -0.5 -3t-0.5 -3q-2 -8 -5 -14t-4 -14q-2 -6 -2 -8l-2 -4q0 -3 -2 -7q-4 -11 -5 -19v-1q-1 -5 -5 -13q-1 -2 1 -4l1 -1l-1 -2q-2 -2 -3 -5t-3 -5q-3 -5 -5.5 -9.5t-7.5 -8.5l-1 -1q-4 -8 -10 -13l-12 -10q-2 -1 -3 -2t-3 -2q-2 -2 -6 -4q-2 -2 -3.5 -2.5t-3.5 -2.5
q-12 -10 -32 -12q-5 -1 -9.5 -2t-8.5 -3t-7 -2h-2h-1q-8 1 -15 2t-14 6q-1 0 -1.5 0.5t-1.5 0.5h-2l-10 4t-10 7l-2 2q-9 4 -14 10.5t-8 12.5t-3 12v2q-1 3 -1 10q0 6 -2 14q-1 8 0 14.5t3 13.5v2q2 6 3 8v2q1 2 2 5t2 5l1 1q0 1 0.5 1.5t0.5 1.5q2 4 2 5q5 12 11 20
q2 3 4.5 6.5t4.5 7.5q2 2 2.5 3.5t2.5 3.5q0 1 3 4q5 5 12.5 9.5t15.5 8.5q8 2 10 2q3 0 7 -2l2 -2h2l-1 -2v-2q-3 -6 -8 -8l-10 -4q-14 -3 -23 -15q-5 -6 -8.5 -13l-7.5 -15q-1 -1 -1 -2t-1 -3q-1 -1 -1 -1.5t-1 -1.5q-2 -4 -3 -7t-2 -7q0 -1 -0.5 -2t-0.5 -2v-3
q0 -2 -1 -3q-2 -3 -2 -11q0 -2 -0.5 -3.5t-0.5 -3.5q-3 -16 3 -32q3 -6 7 -11.5t8 -10.5q9 -10 25 -13q10 -3 25 -3q10 0 15 -1h5q6 0 15 3q8 5 15 10t15 10q2 2 5 3.5t6 3.5q3 3 4 5l1 1q3 4 5.5 7.5t4.5 6.5t3 5.5t3 5.5l2 3q2 5 5 11t5 12q2 5 3 9t2 9l6 27q1 5 3 9t4 9
q2 13 5 20.5t6 25.5q3 7 5.5 22.5t5 32.5t4.5 32.5t3 21.5q1 4 1.5 7.5t1.5 8.5q1 2 0.5 4.5t0.5 4.5q0 3 2 11q1 5 1 9t1 9l1 5q0 2 0.5 2.5t0.5 2.5v5q-2 2 -5 3l-2 1q-5 3 -11 5.5t-12 4.5q-14 5 -31 -3l-4 -4q-2 -3 -6 -13t-6 -11l-4 -2q-3 0 -6 3q-2 2 -3 4t1 6
q1 0 1 1q1 1 1 1.5t1 1.5t1.5 2t2.5 3q3 4 7 12t10 11t13 5q3 1 5.5 1.5t5.5 0.5q8 0 14 -2t11 -4q4 -1 12 -5q4 -2 7 -3l2 -1q0 1 0.5 1.5t0.5 1.5q1 3 1.5 5.5t1.5 5.5q2 4 5.5 17t4.5 18q2 6 3.5 12t3.5 12q5 17 12 32t14 28q1 4 5 8l3 3q1 2 1.5 2.5t1.5 2.5q0 1 2 3
q1 4 4 7q1 1 1 1.5t1 1.5q6 8 12 15t14 12q2 1 7 6l3 3l1 1q2 2 4 3q9 5 19 15q4 2 7 5t7 5q1 1 9.5 7t19 13.5t19.5 14.5t11 9l3 3q4 4 10 4q3 0 5 -3t4 -5l1 -1l-6 -26q0 -8 -3 -14q0 -1 -2 -6.5t-4.5 -11.5t-4.5 -12t-3 -8q-3 -9 -5.5 -18t-4.5 -18q-1 -5 -1.5 -9
t-0.5 -8q-1 -5 -1 -9t-2 -8q-2 -9 -2.5 -18.5t-1.5 -18.5q-1 -6 -1 -12t-1 -13q-1 -2 -1 -5q-1 -7 -1.5 -14t-1.5 -14q0 -6 -1 -9q0 -8 -0.5 -16.5t0.5 -16.5q1 -5 1 -15v-4v-12v-19.5t-1 -19.5q0 -3 0.5 -6.5t0.5 -7.5q1 -3 1 -9q1 -11 1.5 -21.5t0.5 -21.5q1 -6 1 -12v-12
l1 -1q0 -1 0.5 -6t1.5 -11.5t2 -12.5t1 -10v-8v-2q2 -12 3 -26.5t3 -26.5q1 -6 1.5 -12t1.5 -11q0 -2 0.5 -4t0.5 -4q1 -3 1.5 -5.5t1.5 -5.5q1 -2 1 -3t1 -2l1 -3l3 -12q1 -3 3 -8.5t4 -10.5q2 -6 4 -13l2 -2v-1q1 0 1 -1q2 -2 2 -4q2 -5 4 -6zM377 501q-8 -6 -14 -10
q-15 -7 -28 -22l-8 -8l-5 -5q-18 -20 -26 -37q-7 -14 -10 -26q-2 -5 -3.5 -10.5t-3.5 -10.5q-3 -8 -8.5 -24.5t-7.5 -24.5q-2 -5 -2.5 -9.5t-1.5 -9.5q-1 -2 -1 -4.5t-1 -4.5q0 -2 1 -4q9 -10 21.5 -19t22.5 -17q5 -5 8 -7q5 -5 8 -7q4 -4 7.5 -7t7.5 -6l2 -1v5q-1 1 -1 3v7
v22t2 22l1 3q1 5 1 10t1 10v5q1 3 1 8q1 4 1.5 11.5t1.5 15.5t1.5 15.5t0.5 12.5q1 5 1.5 9.5t1.5 9.5q1 2 1 4t1 4q0 2 0.5 4.5t0.5 4.5l1 3q0 1 0.5 2t0.5 3q1 2 1 5t1 5v5z" />
    <glyph glyph-name="B" unicode="B" horiz-adv-x="382" 
d="M96 491q2 4 9 11.5t12 11.5t13 6q8 3 18 4t18 2q9 0 12 1.5t11 0.5l2 -1q6 -4 11 -4t11 -4l6 -3q8 -5 14 -10t11 -13t10.5 -15t8.5 -15q2 -6 4.5 -11.5t3.5 -11.5q0 -7 4 -17q0 -8 1 -12q0 -4 -1 -12t-2 -10q-1 -5 -2 -8.5t-3 -8.5q-2 -8 -4 -12t-3.5 -7.5t-3.5 -7.5
l-3.5 -7l-3.5 -7q-5 -9 -13.5 -17.5t-15.5 -16.5q-4 -5 -7.5 -7.5t-7.5 -6.5q4 -1 14.5 -1.5t15.5 -2.5q7 -3 12.5 -5t11.5 -5l15 -7.5t14 -7.5q9 -3 17 -7q9 -4 15 -15q2 -4 5 -7t5 -7q2 -1 2.5 -2t2.5 -3q1 -1 1 -1.5t1 -1.5q8 -3 10 -9.5t5 -12.5q4 -10 6 -23
q2 -16 1.5 -32t-3.5 -32q-2 -6 -2 -12.5t-2 -12.5q-2 -10 -5 -19t-7 -18q-6 -15 -13 -25q-16 -30 -47 -48q-20 -11 -46 -14l-27 -3h-9t-9 1q-6 2 -12 3.5t-12 3.5q-7 2 -13 4.5t-13 4.5q-5 2 -6 6q0 1 -2 3q-13 18 -9 35q1 12 9 21q5 0 5 -4q0 -2 0.5 -4.5t-0.5 -5.5
q0 -4 -1 -7q-3 -16 12 -24q4 -2 5 -3q6 -7 13 -10q16 -7 30 -2q5 2 10 5l10 6q6 2 9 4l3.5 3.5l3.5 3.5l3.5 3.5l3.5 3.5q15 15 24 35q10 25 14 45q2 15 6.5 30t1.5 30q-2 9 -3.5 17.5t-3.5 17.5q-2 14 -7.5 26t-11.5 24q-7 11 -12.5 20.5t-13.5 14.5q-2 1 -8.5 3.5
t-9.5 1.5h-3q-4 0 -15 -0.5t-19 -2.5q-5 6 -2 12q2 2 3.5 4.5t3.5 5.5q1 1 7.5 10.5t9.5 14.5q2 2 4 11t4 13q3 10 4.5 29t0.5 30q-1 5 -0.5 10t-1.5 10l-4 12l-4 12q-2 5 -5 15t-5 15q-3 8 -10 15q-1 1 -1.5 2.5t-1.5 2.5q-2 5 -7.5 9t-7.5 6q-4 3 -5.5 5t-9.5 2
q-3 0 -8.5 -0.5t-7.5 -1.5q-8 -5 -12.5 -9.5l-12.5 -12.5q-2 -3 -2 -3.5t2 -4.5q2 -5 2.5 -9.5t2.5 -9.5q4 -14 6 -26.5t2 -26.5q0 -6 1 -12.5t2 -12.5q0 -4 1.5 -18t2.5 -30t2 -30.5t1 -18.5q1 -5 1.5 -8.5t0.5 -8.5q0 -6 -1 -9q-2 -3 -2 -11q2 -3 0 -5q0 -9 -0.5 -22.5
t-0.5 -27t-0.5 -25t-1.5 -17.5q-1 -5 -1.5 -11t-1.5 -11q-2 -14 -3 -27l-2 -26q-1 -11 -3 -13.5t-4 -13.5q-1 -5 -2.5 -9t-2.5 -9q-3 -14 -4.5 -20.5t-4.5 -20.5q-1 -1 -2.5 -6t-1.5 -6q-5 -15 -13 -23.5t-13 -16.5q-1 -2 -6.5 -7.5l-11.5 -11.5t-12 -11t-7 -7
q-2 -2 -4 -3.5t-4 -3.5q-3 -3 -7.5 -4t-6.5 -5q-3 -4 -9 -1q-2 7 0 12.5t4 11.5q2 11 5 21t5 20q2 7 3 13.5t2 13.5q2 10 4 19t4 19q2 7 3 14t3 15q2 7 3.5 13l3.5 14t3 16.5t2 16.5t1 15.5v15.5v16t1 16q0 5 0.5 8.5t0.5 8.5q1 2 0.5 4.5t-0.5 5.5q0 13 0.5 25.5t0.5 25.5
q0 7 -0.5 14t-0.5 14v10q0 2 -0.5 4.5t-0.5 5.5q1 -1 1 15v37t-0.5 39.5t-1.5 23.5v8q-1 10 -3.5 19.5t-4.5 20.5q-2 14 -6.5 28t-6.5 28q-1 3 -3 7q0 2 -0.5 3t-0.5 3q0 4 4 4q3 0 5.5 -0.5t5.5 -1.5q7 -3 20 -8t21 -9q2 -1 7 -4.5t6 -5.5q2 -1 2.5 -2t2.5 -3z" />
    <glyph glyph-name="Z" unicode="Z" horiz-adv-x="380" 
d="M427 -59q-5 -14 -14.5 -22.5t-23.5 -15.5q-10 -5 -20.5 -7.5t-21.5 -4.5q-9 -2 -15.5 -3t-12.5 -0.5t-12.5 2t-15.5 3.5q-9 4 -18.5 6.5t-18.5 6.5q-12 6 -23 13t-25 12q-16 5 -22 8t-9.5 4.5t-7.5 3t-16 4.5q-7 2 -16.5 4.5t-17.5 2.5q-8 -1 -15.5 0.5t-15.5 0.5h-14.5
h-20h-20h-14.5q-8 0 -11 -1q-6 -3 -9 4q1 5 7 9q10 9 19.5 17t17.5 19q7 13 14.5 25.5t15.5 26.5q8 12 15.5 24.5t13.5 26.5q9 16 16.5 32.5t12.5 34.5q2 9 4.5 18.5t6.5 18.5q5 14 8.5 26.5t8.5 25.5q5 12 8.5 24t8.5 24q4 12 7.5 23t6.5 22q5 13 9 25t9 24t9.5 23t9.5 22
q1 3 5 9q2 3 8 12.5t8 14.5q-5 -1 -8.5 -0.5t-8.5 -0.5q-3 0 -11 0.5t-16 2t-15 3t-8 1.5q-9 1 -20 5q-9 4 -18 7.5t-19 5.5q-9 3 -17 4.5t-18 -0.5q-8 -1 -14.5 -2.5t-14.5 -3.5q-4 -2 -7.5 -4t-7.5 -4q-6 -2 -12 -10.5t-4 -16.5q3 -10 -8 -16q-7 5 -8 6.5t1 8.5
q2 8 4.5 14.5t4.5 13.5q5 12 14 18.5t20 12.5q10 5 19.5 4t19.5 -2q5 0 10 -1l10 -2q10 -3 19.5 -5.5t18.5 -5.5q6 -2 12.5 -4t13.5 -4q10 -4 19.5 -6t20.5 -1q8 1 17 0t18 0q4 1 7.5 0.5t8.5 0.5q10 2 19.5 2.5t19.5 2.5q7 2 13.5 4.5t13.5 4.5q5 1 7 2t7 3t8 0t1 -7
q-1 0 -5.5 -7t-6.5 -9q-6 -7 -11 -14.5t-8 -16.5q-3 -8 -8 -16q-5 -7 -9.5 -13.5t-8.5 -13.5q-5 -7 -8.5 -14t-8.5 -14q-4 -6 -6 -12.5t-5 -13.5l-10 -22t-10 -23q-2 -7 -3 -13.5t-3 -14.5q-3 -13 -5 -25.5t-6 -25.5q-4 -17 -14 -35q-13 -27 -23 -55q-2 -5 -5 -9.5t-5 -9.5
q-3 -7 -6.5 -14t-6.5 -15q-1 -3 -2 -5.5t-3 -5.5l-2 -4q-2 -5 -3.5 -10t-4.5 -10q-2 -5 -5 -10l-6 -10q-5 -8 -10 -17l-10 -18q-7 -14 -11 -21.5t-15 -17.5q-2 -2 -3 -4q7 2 18.5 0t18.5 -4q19 -5 27.5 -7t15 -5t16 -7.5t30.5 -13.5q11 -5 21.5 -10.5t21.5 -10.5
q15 -7 28 -9t28 2l33 6q1 1 2 1t3 1q14 0 26 5t23 13q7 4 14 -1z" />
    <glyph glyph-name="W" unicode="W" horiz-adv-x="466" 
d="M-5 644q7 4 15 2q11 -4 24.5 -6t21.5 -11q4 -5 11 -6.5t11 -6.5q9 -8 17 -16.5t13 -18.5q5 -8 9 -15.5t7 -15.5q5 -8 7.5 -17t6.5 -17q3 -10 5.5 -19t6.5 -18q3 -10 4.5 -19.5t3.5 -18.5q1 -4 1 -14q1 -6 2 -11.5t1 -11.5v-36v-17.5t-1 -16.5q0 -3 -0.5 -6t-0.5 -6
q-2 -21 1 -37q2 -8 1 -14.5t-1 -14.5q-1 -13 -1.5 -26t-0.5 -26q1 -18 0 -35.5t0 -34.5q1 -9 1.5 -9.5t-1.5 -9.5q-1 -1 4 6.5t10 12.5q3 4 4.5 5.5t3.5 5.5q6 9 8 15t9 15q2 2 4 5.5t4 5.5q5 8 8.5 13t8.5 13q1 1 2 1q2 5 4.5 9t6.5 9q7 8 12 24q2 5 3.5 11t3.5 11
q1 2 4.5 2t4.5 2q1 0 2.5 0.5t2.5 -0.5q1 0 1 -3v-13q-4 -13 -3.5 -24.5t0.5 -23.5q0 -3 -1 -6.5t-1 -6.5q-1 -8 0.5 -16t1.5 -16q0 -21 12 -47.5t23 -50.5q1 -3 4 -10t6 -15t6 -14.5t5 -8.5q5 -5 8.5 -13t8.5 -13q0 4 0.5 6t0.5 4q0 6 -1 12.5t-1 12.5v24q-1 14 -2 33
t-1 32q0 4 0.5 15.5t1 24t1 24t0.5 15.5q0 7 1.5 13t2.5 12q0 11 2 20.5t5 20.5q3 12 2.5 24.5t2.5 24.5q2 10 2 15v2q2 4 2 7.5t1 7.5t2 7t2 7q5 10 6.5 18t5.5 19q3 8 6 12.5t8 12.5q2 4 3 7t3 6q5 11 13 18.5t13 18.5q9 11 14 19.5t19 14.5q0 1 0.5 1t0.5 1q2 1 5.5 1.5
t5.5 2.5q2 1 4 1.5t3 2.5q3 1 7 1q0 -13 -4 -24.5t-8 -23.5q-2 -7 -4.5 -13t-4.5 -13q-6 -18 -9.5 -36.5t-10.5 -37.5q-3 -8 -3 -17t-3 -19q-3 -11 -4.5 -23t-3.5 -24l-4 -22l-4 -22q0 -8 -1 -12q-2 -8 -3 -16.5t-3 -18.5q0 -3 -0.5 -13.5t-1 -23t-1 -23.5t-1.5 -14
q0 -2 -1 -5t-1 -5v-18q0 -16 -0.5 -37t-2.5 -36q-1 -7 -1.5 -12.5t0.5 -12.5q2 -15 -1 -27q-2 -9 -1 -18.5t2 -18.5v-8.5t-5 -7.5q-4 -4 -8 -1q-5 5 -10.5 8t-9.5 9q-6 11 -18.5 24.5t-22.5 23.5q-2 2 -6.5 10t-9 17t-9 16.5t-6.5 10.5q-3 4 -4.5 8t-3.5 7q-8 10 -13 22
t-10 23q-1 3 -3 8t-4.5 11t-4 11.5t-2.5 8.5q-2 4 -3.5 9.5t-2.5 9.5q-2 6 -1.5 12.5t-0.5 12.5q-1 5 -1 9.5v11.5q-5 -5 -6 -7q-5 -8 -10.5 -16.5t-11.5 -16.5q-10 -11 -13.5 -20.5t-13.5 -20.5q-10 -13 -20 -27t-20 -26q-4 -5 -7.5 -10.5t-7.5 -11.5q-4 -7 -7 -13.5
t-10 -11.5q-5 -4 -8.5 -9t-7.5 -10q-3 -5 -8 -8q-1 1 -2 1.5t-2 1.5v2q3 6 2.5 12.5t1.5 14.5q3 6 4 13l2 14v16.5t1 16.5q0 8 1 15t1 15q0 10 0.5 20t-1.5 20q-2 14 -4 27.5t-4 27.5q-1 8 -1 15v15v45q1 8 1.5 14.5t0.5 13.5q1 9 0 16q-1 15 -1.5 29t-2.5 28
q-1 8 -2.5 14.5t-2.5 14.5q-2 13 -4 24.5t-4 23.5q-1 5 -1.5 11t0.5 11q0 10 -1.5 18.5t-3.5 17.5q-5 22 -12 43t-21 39q-5 7 -11 12t-12 11q-4 3 -7 5t-6 5q-6 2 -5 8z" />
    <glyph glyph-name="X" unicode="X" horiz-adv-x="433" 
d="M256 349q5 7 7 10.5l6 10.5q3 8 6 16.5t9 15.5q2 2 3 5.5t3 6.5q14 24 25 52q9 23 26 42q2 3 4.5 6.5t5.5 7.5q6 11 14.5 19.5t17.5 16.5q3 3 7 3t9 1q-1 -2 -0.5 -4t-0.5 -3q-4 -4 -6 -8.5t-7 -8.5t-9 -8.5t-9 -9.5q-3 -3 -9 -11q-6 -6 -10 -14t-9 -16q-6 -8 -8 -12
q-3 -4 -7 -12q-2 -11 -7 -19t-9 -16q-5 -11 -9.5 -20l-9.5 -19q0 -1 -0.5 -1.5t-0.5 -1.5q-3 -8 -6.5 -15.5t-6.5 -15.5q-4 -9 -3.5 -10.5t-2.5 -9.5q-1 -4 1 -14q5 -23 11 -47t11 -47q2 -9 3 -18t2 -19q2 -14 3 -28.5t4 -28.5q2 -13 5.5 -25.5t6.5 -25.5q5 -11 8 -28.5
t6 -29.5t8.5 -22.5t10.5 -22.5q3 -10 7 -19.5t9 -17.5q8 -20 16 -34q2 -5 4.5 -9t5.5 -9q2 -5 9 -10.5t12 -8.5q7 -4 4.5 -7.5t-8.5 -5.5q-1 -1 -4.5 -1t-5.5 2q-6 4 -13.5 6t-12.5 7q-9 8 -17.5 15t-17.5 15q-12 11 -19 20t-17 23q-2 4 -9 14t-9 15q-4 11 -7 18.5t-7 18.5
q-9 25 -16 50t-15 50q-5 18 -7 36.5t-4 37.5q-2 9 -5 24l-5 25q-3 -3 -4 -5q-5 -8 -7 -16t-7 -17q-4 -8 -7 -16t-7 -16q-1 -1 -1 -2.5t-1 -3.5q-11 -23 -18 -43.5t-15 -41.5q-3 -7 -6.5 -13.5t-6.5 -14.5q-3 -6 -5.5 -13t-7.5 -13q0 -5 -3 -9.5t-5 -9.5q-14 -29 -41 -56
q-2 -1 -2.5 -2t-2.5 -3l-5 -5q-11 7 -3 16l10 12t10 13l14 20t13 20q5 11 10 22.5t10 22.5q8 19 16 38.5t16 38.5q3 8 5 14.5t6 14.5q3 5 4 9t3 8q6 15 14.5 35.5t13.5 35.5v13q-4 11 -5.5 17t-6.5 18q-6 17 -12.5 33.5t-14.5 31.5q-4 8 -8 16.5t-8 16.5q-8 14 -9.5 21.5
t-8.5 21.5q-2 5 -5 8.5t-5 7.5q-4 5 -8 10.5t-9 10.5q-17 26 -27 41t-18 23q-6 7 -10.5 9t-12.5 7q-3 2 -9.5 7.5t-9.5 5.5q-5 3 -4 7q2 4 4 4q7 2 11 0q10 -4 22 -6t21 -10q1 0 3 -2q10 -3 19.5 -6.5t18.5 -8.5q5 -4 11 -8t11 -8q3 -3 6.5 -6t6.5 -6q2 -2 9.5 -11.5
t16 -21.5t16 -22.5t10.5 -13.5q5 -7 9.5 -13.5t9.5 -13.5q9 -14 15.5 -29.5t14.5 -30.5q1 -2 2 -4.5t3 -5.5z" />
    <glyph glyph-name="Y" unicode="Y" horiz-adv-x="355" 
d="M355 678q5 4 8 1q4 -4 2 -9v-7q-1 -2 -1.5 -3.5t-1.5 -2.5q-8 -8 -12 -16t-7 -18q-2 -8 -6 -16.5t-6 -17.5q-2 -6 -2.5 -12.5t-2.5 -12.5l-3 -27q0 -3 0.5 -5.5t-0.5 -5.5q0 -4 -2 -14q0 -1 -0.5 -2t-0.5 -2q1 -8 1 -14.5v-14.5q-1 -17 -1.5 -32.5t-2.5 -32.5
q-2 -16 -2 -31.5v-32.5q0 -14 -1 -27t-2 -27v-43q0 -18 -0.5 -35.5t-0.5 -35.5q1 0 1 -1h-1q0 -2 -0.5 -2.5t-0.5 -2.5q-2 -11 -2 -22t-2 -22q-1 -6 -1.5 -13.5t-2.5 -15.5q0 -5 -2.5 -13t-5 -17t-5.5 -17t-4 -12l-4 -11q-1 -2 -1 -3t-1 -3q-2 -3 -4.5 -14.5t-4.5 -14.5
q-4 -4 -5 -8q-2 -4 -2 -6q-1 -3 -5.5 -12t-9.5 -17q-5 -14 -11 -27t-14 -25q-9 -15 -26 -28q-10 -10 -21.5 -16t-22.5 -12q-5 -2 -8.5 -4.5t-8.5 -4.5q-7 -3 -13.5 -5.5t-13.5 -4.5q-2 -1 -12 0t-14 3q-30 11 -44 35q-7 13 -11 25.5t-6 26.5q-2 13 -0.5 25t4.5 24t8 22.5
t11 20.5v1q5 8 9.5 17.5t10.5 18.5l15 26q6 10 11.5 19.5t14.5 18.5q4 4 7 10q3 5 6.5 9t7.5 9q2 2 5 4.5t5 4.5q12 12 20 21t22 19q4 3 9.5 7t9.5 6q2 2 3.5 2.5t3.5 1.5q2 2 3 -1t2 -5q0 -5 -2 -7l-6 -6q-13 -13 -26 -23q-4 -3 -8 -6.5t-6 -8.5q-8 -7 -13.5 -15.5
t-12.5 -16.5q-11 -10 -18.5 -20.5t-15.5 -21.5q-6 -8 -9.5 -15.5t-8.5 -15.5q-3 -7 -7 -13l-8 -12q-1 -2 -1.5 -3.5t-1.5 -3.5q-4 -7 -9 -15t-7 -13q-2 -6 -4.5 -11.5t-4.5 -11.5q-5 -16 -3.5 -30.5t8.5 -29.5q1 -2 2.5 -7.5t3.5 -7.5q6 -10 6 -12t6 -10q2 -2 6 -4t6 -4
t7.5 -3.5t6.5 -3.5q11 -7 20.5 -2t19.5 13q4 3 7.5 9t6.5 9q2 2 2 4t2 4q1 1 1.5 1t1.5 1q5 8 5.5 16.5t5.5 16.5q3 5 5.5 10.5t4.5 10.5q2 7 6 11q2 2 2.5 5t1.5 6q2 2 2 5.5t1 5.5q1 4 2 7t2 7l8 28q3 8 5.5 14.5t4.5 13.5l9 32v3q2 9 3.5 18.5t2.5 17.5l6 39q1 5 1 9t1 9
h-1v2q0 4 1 6q2 11 2 22.5t1 22.5q2 12 1.5 24.5t2.5 25.5q1 4 0.5 8t-0.5 9v20q-1 5 -2.5 8.5t-3.5 0.5q-6 -8 -10 -11q-5 -4 -6 -5q-10 -10 -29 -17q-3 -2 -10.5 -3t-12.5 -5q-3 -2 -6 0l-10 4t-10 5q-17 10 -27 19q-17 13 -30 32q-4 6 -6.5 12t-6.5 12q-5 6 -7 13t-5 15
t-3.5 16.5t-1.5 16.5q-1 9 1.5 18.5t1.5 18.5q-2 10 0.5 18t0.5 18q-1 4 0 9t0 10q-2 10 -2 15t0.5 10.5t-1.5 10.5q-2 7 -2.5 13t-3.5 13q-4 11 -6.5 21t-8.5 19q-5 7 -9.5 13t-9.5 13q-3 3 -7 9q-2 4 -0.5 7t6.5 2q13 -1 25.5 -1.5t23.5 -7.5q13 -7 21 -17q12 -12 26 -20
t19 -25q2 -7 1 -13.5t-1 -13.5q0 -8 -0.5 -17t1.5 -17q4 -16 3 -31t-2 -32q-1 -14 -1 -23.5t0.5 -17.5t1.5 -15.5t3 -16.5q3 -16 1 -37.5t8 -35.5q4 -6 8.5 -8t9.5 -7q2 -2 5 -2q9 0 15 2l15 5q12 5 17.5 11.5t13.5 18.5q4 6 4 6.5t3 7.5q2 5 0 13.5t-1 14.5q3 11 3 23
t-1 24q-1 9 0 19q1 12 1 24.5v25.5v3q2 8 3.5 15t3.5 15l3 18q2 7 4.5 13t5.5 12l12 24q2 5 7 11q5 8 18.5 19t24.5 20q9 8 19 14t21 14z" />
    <glyph glyph-name="a" unicode="a" horiz-adv-x="385" 
d="M467 256q-2 -10 -7 -20t-9 -19q-12 -37 -33 -75q-16 -30 -23.5 -44.5t-13.5 -23.5t-13 -17l-21 -24q-2 -5 -6 -9t-13 -6q-8 -3 -14.5 -6.5t-14.5 -4.5l-4 -2q-15 -7 -34 -2q-5 2 -9 3.5t-9 3.5q-3 2 -5.5 4.5l-4.5 4.5q-4 6 -7 9q-6 7 -6 14.5t-5 15.5l-5 6q-4 6 -9 4
q-11 -4 -22 -4.5t-23 -0.5q-12 -1 -18 2.5t-17 8.5q-8 4 -15 9.5t-14 10.5q-18 14 -20 23t-7 19q-4 9 -5 16q-2 10 -0.5 20t-0.5 21q-2 15 -1 22.5t2 22.5q0 18 4.5 36t12.5 35q4 10 5.5 15t3 8t4.5 6.5t11 11.5q3 2 6.5 7t6.5 7q5 2 9 5.5t9 5.5q11 5 16.5 7t16.5 5
q8 2 14.5 1.5t13.5 -5.5q8 -5 10 -5.5t10 -5.5q4 -2 7.5 -5.5t8.5 -6.5l4 -2q2 2 2 3q3 5 5.5 10.5t4.5 10.5l3 5q6 6 6.5 7t7.5 6t14.5 8t15.5 5q7 3 22 2t25 -4q9 -4 10 -11q2 -7 -4 -11q-8 -5 -14 -12.5t-12 -15.5q-6 -9 -7 -13.5t-4 -14.5q-2 -6 -3.5 -13t-3.5 -14v-2
q-5 -17 -5 -26t-2 -21l-5 -38q-1 -9 -1.5 -10.5t-0.5 -10.5l-2 -57q-2 -26 4 -49q2 -7 3 -14t6 -13q4 -5 11 -8q2 -1 8 -3q5 0 9 -1t9 3q18 16 27.5 28t16 22.5t12 21.5t14.5 25q5 14 13 33q6 20 15.5 39t17.5 38zM222 318q2 11 1.5 14t-6.5 12q-2 3 -8 7q-8 8 -12 10.5
t-14 5.5q-5 0 -8 -4q-9 -11 -10 -21t-8 -23q-3 -5 -4.5 -13t-3.5 -13l-9 -32q-8 -22 -10 -51.5t3 -53.5q1 -4 2 -15.5t3 -14.5q5 -5 5.5 -10t5.5 -10q19 -15 41 -19q3 -1 4.5 -2t5.5 0q6 2 5 7q-2 5 -1.5 9t1.5 9q2 9 0.5 26t-0.5 27q2 8 1.5 15t0.5 14q2 8 2.5 8.5t1.5 8.5
l3 19l2 25l2 20q0 25 4 45z" />
    <glyph glyph-name="b" unicode="b" horiz-adv-x="328" 
d="M383 298q-2 -4 -2 -6q-1 -7 0 -9.5t1 -10.5q-3 -6 -4.5 -8.5t-3 -4t-2.5 -4t-2 -9.5q-1 -4 -7 -13.5t-13 -20l-13 -19.5t-7 -11q-7 -8 -13.5 -19t-21.5 -23q-4 -4 -4 -8q-1 -5 -0.5 -18.5t0.5 -19.5q0 -14 -10 -37q-7 -14 -15 -26q-3 -6 -6.5 -11.5t-7.5 -11.5
q-8 -11 -18.5 -19.5t-21.5 -16.5q-17 -11 -38 -3q-5 2 -8 4t-7 4q-8 5 -14 1l-1 1q2 5 1.5 9t-1.5 9q-6 15 5 32q7 8 12.5 16.5t12.5 16.5q3 5 6 9.5t7 8.5q2 3 8 7q5 3 7 9q1 7 1.5 13.5t0.5 12.5q0 14 -0.5 27.5t-1.5 27.5q0 12 -3 24q-2 11 -4 21.5t-6 20.5
q-2 4 -3.5 7.5t-3.5 7.5q-4 10 -15 4q-5 -2 -9 -6t-8 -9l-9 -9t-11 -6q-3 -16 -1 -34q0 -7 -1 -9q-4 -11 -4.5 -22t-1.5 -22q-2 -20 -3 -38t-4 -38q-2 -23 -5.5 -46t-8.5 -46q-2 -11 -3.5 -22.5t-3.5 -22.5q-2 -8 -4 -15t-7 -14q-4 -5 -8 -9t-9 -8q-8 -6 -17 -12.5
t-18 -12.5q-8 -7 -20 -10q-6 -2 -12 -0.5t-12 4.5q-9 4 -4 14q5 8 6 14q0 6 6 12q8 9 11 24q2 8 3 15t3 15q1 5 1 9t2 8q5 14 7 27t4 27l6 36q1 5 1 11t1 12q2 10 3 19.5t3 18.5q1 5 1 8.5t1 7.5q2 15 3.5 30.5t3.5 29.5q5 26 3 50q0 9 -1 18t-2 20v-1q0 4 -1 7t-2 7
q-1 5 -1 10v10v1v4q0 6 -1 10q-4 8 -1 15v3q-1 8 -2 14.5t-2 14.5q-1 16 -0.5 31t6.5 31q1 3 1 9q1 14 1.5 28.5t2.5 28.5q1 10 1.5 19t1.5 18t1 18.5t1 18.5q2 10 3.5 19.5t6.5 18.5q8 19 25 32l1 1q2 1 4.5 1t4.5 2q2 4 5 6q7 5 13.5 10.5t12.5 10.5q3 2 6.5 3t7.5 3
q5 3 9 1q14 -5 20 -7t10 -5t7.5 -7.5t11.5 -12.5q5 -7 7 -18q2 -7 3.5 -13.5t1.5 -14.5q-1 -8 -1.5 -14.5t-1.5 -14.5q0 -5 -1 -9t-2 -9q-2 -8 -3.5 -15.5t-4.5 -14.5q-2 -2 -2 -4.5t-1 -4.5q-3 -9 -4 -18t-5 -17q-5 -11 -6.5 -22t-8.5 -22q-5 -9 -8 -17.5t-10 -15.5
q-3 -3 -5.5 -6.5t-4.5 -6.5q-5 -5 -9.5 -10.5t-8.5 -10.5q-2 -2 -2 -6v-11t1 -10q1 -7 1.5 -13t1.5 -12q0 -2 -0.5 -3.5t-0.5 -3.5q-2 -4 -2 -8q1 -12 1 -24.5t1 -25.5l1 -2q3 2 7 3.5t7 5.5q3 5 7.5 7.5t7.5 6.5q2 2 5 2.5t6 2.5l6 2t7 3q4 3 13 5q13 5 25.5 2.5t23.5 -8.5
q5 -4 10.5 -8t10.5 -9q6 -5 10 -11.5t8 -13.5q2 -4 2 -6q1 -11 1.5 -26t1.5 -26q0 -3 0.5 -13.5t0.5 -12.5q0 -1 1 -1q11 9 23.5 27.5t20.5 33.5q5 8 8.5 14t8.5 14q5 11 12 21.5t12 18.5q3 1 7 7zM121 438q1 -8 1.5 -15t2.5 -15q0 -2 0.5 -3.5t0.5 -3.5q5 3 7.5 6.5
t5.5 7.5t5.5 8.5t6.5 8.5q7 8 9.5 16.5t5.5 18.5l2 4l2 4q3 10 5 16.5t3.5 11t2 9t2.5 12.5q2 9 4 17.5t6 16.5q1 2 1 3t1 3q0 3 2 9q4 13 3 28.5t-4 28.5q-11 22 -19.5 29t-19.5 6q-11 -4 -13 -9t-4 -10.5t-4 -10.5q-7 -19 -9 -41q-1 -10 -1 -20t-2 -20q0 -5 -0.5 -10
t-0.5 -10q0 -14 -0.5 -28t-1.5 -28v-11v-29zM200 50q1 5 1.5 8.5t-1.5 9.5q-5 -5 -8.5 -8t-5.5 -6q-6 -8 -11.5 -16.5t-11.5 -16.5q-2 -4 -4 -7.5t-2 -8.5q0 -9 10 -6q6 3 11.5 7t9.5 9l3 6q2 7 4.5 14t4.5 15z" />
    <glyph glyph-name="c" unicode="c" horiz-adv-x="306" 
d="M402 332q4 -1 6.5 0.5t6.5 -0.5q-4 -12 -12 -26.5t-11 -26.5q-2 -10 -3 -10.5t-4 -9.5q-5 -19 -18.5 -37t-20.5 -37q-23 -32 -32.5 -47t-15.5 -20q-2 -2 -9.5 -7.5t-15.5 -10.5q-4 -2 -5 -3q-5 -4 -9.5 -7.5t-12.5 -6.5l-27 -10l-62 -4q-5 0 -6 1q-2 4 -6.5 5t-7.5 4
q-2 2 -3.5 2t-3.5 1q-6 2 -11.5 3.5t-9.5 6.5q-1 1 -2 1q-14 7 -24 17t-21 20q-1 1 -1.5 3t-1.5 4l-7 12q-2 7 -4.5 13.5t-6.5 13.5q-2 7 -5 15t-5 18q-2 9 -1.5 19.5t-0.5 20.5v12.5v18t0.5 17.5t2.5 10q1 3 0.5 5t0.5 4q3 11 7 19.5t7 15.5q5 7 11 13t11 12q5 3 8 7.5
t7 8.5q2 3 4.5 6.5t6.5 5.5l41 27q1 0 1.5 0.5t1.5 0.5q5 1 13.5 2t15.5 1q9 2 23 0q13 -2 25.5 -5t23.5 -10q6 -5 12.5 -10.5t11.5 -10.5q6 -9 7 -20q4 -12 3.5 -20t-5.5 -20q-2 -5 -3 -5.5t-6 -4.5q-2 -3 -5.5 -6.5t-6.5 -4.5q-11 -3 -21 2.5t-12 13.5q-2 5 -2 6t-1 6
q0 7 -0.5 15.5t-0.5 15.5q-1 5 -6.5 16t-7.5 14q-8 8 -14.5 8.5t-14.5 2.5q-13 1 -25 -9q-5 -5 -7 -9.5t-5 -11.5l-6 -18q-2 -8 -4.5 -19t-5.5 -21q-2 -8 -3 -17t-1 -19q-2 -10 -2 -21.5t2 -22.5q0 -11 2 -21.5t5 -19.5q5 -21 13 -32q12 -23 28 -40q4 -5 14.5 -9.5
t24.5 -7.5t28.5 -3.5t25.5 2.5q7 2 17 6t15 8q11 14 22.5 30t22.5 28q14 24 25.5 47.5t23.5 47.5q2 12 10 23.5t11 22.5h3v0z" />
    <glyph glyph-name="zero" unicode="0" horiz-adv-x="383" 
d="M355 333v-16q0 -5 -1 -11t-1 -12q0 -3 -0.5 -20t-1.5 -36.5t-2 -34.5l-1 -15q-1 -1 -1 -2v-4q-2 -8 -3.5 -15t-3.5 -15q-1 -12 -4 -22.5t-6 -21.5q-3 -6 -4.5 -12.5t-3.5 -12.5q-4 -9 -8.5 -18.5t-9.5 -17.5q-5 -10 -15 -25q-8 -12 -17.5 -21.5t-18.5 -20.5
q-5 -4 -8 -6.5t-5 -6.5q-7 -10 -17 -14q-5 0 -6 -3q-10 -5 -19 -5l-8 -4h-20q-3 1 -13.5 2t-10.5 4l-7 2q-1 1 -20 15t-54 47l-5 6l-2.5 5t-3.5 5q-1 0 -1 1v2l-2 6q-1 2 -3.5 8.5t-5 13.5t-5 13.5t-2.5 8.5q0 6 -1 9q-2 2 -1 2.5t-1 2.5q0 2 -0.5 4t-0.5 4q-2 1 -3.5 7.5
t-3 14.5l-3 16t-3.5 13q-1 4 -1 11v2q-1 3 -1 5.5v10.5v23.5t-1 44.5q0 1 1 7t2 14t1.5 17t0.5 17l40 107q0 2 2 4.5t2 4.5q1 4 10.5 17t26.5 38v1q1 1 2 3.5t4.5 6.5t10.5 10.5t21 15.5l7 5q3 3 7 3.5t12 5.5q4 3 7 3l14 5l20 3h5.5t14.5 2q5 0 9.5 1.5t9.5 -1.5
q2 -1 14 -3.5t13 -4.5q13 -7 18 -12t4 -7.5t-5.5 -3t-10.5 2.5q-8 5 -17.5 8.5t-20.5 1.5h-3l-9 -2l-36 -17l-14 -12q-6 -5 -10.5 -15t-13.5 -19q-8 -11 -15 -22q-6 -10 -12.5 -21.5t-11.5 -22.5q0 -1 -0.5 -1t-0.5 -1v-2q0 -4 -5.5 -19t-5.5 -25q0 -2 -1 -2t-1 -1
q-1 -2 -1 -7q-1 -4 -2 -13q-1 -8 -2 -20t-3 -29q0 1 1 -21t2 -76v-3v-7v-1v-11v-9q1 0 1 -1t-1 -1q1 -1 3 -11t5 -21t5.5 -21t4.5 -11q0 -5 3 -6q2 -5 3 -5q1 -5 2 -8.5t3 -8.5l2 -7q0 -6 8.5 -21t20.5 -29.5t24 -23.5t20 -4q4 0 6 3q2 -2 10.5 13.5t34.5 52.5q1 2 2.5 9.5
t4.5 9.5q1 7 1.5 11.5t1.5 8.5t1.5 9t2.5 13t3 16t2 15q5 17 8 30q1 5 1 8.5t2 8.5q2 11 3 29t1.5 37t1 37t0.5 30q1 4 1.5 11t1 15t0.5 16v13v5.5t-1 6.5q-2 21 -2.5 41t-16.5 33q-5 3 -8 6t-14 3q-1 0 -2 -0.5t-3 -0.5q-12 -3 -21 -19q-11 -17 -11 -36q0 -8 1 -15.5
t6 -14.5q2 0 2 -1.5t2 -3.5q0 -1 0.5 -3t0.5 -6q-1 -2 -3 -2t-3 -1q-8 9 -13 20q-5 8 -5.5 14.5t1.5 13.5v8t1 8q3 23 16 38q4 2 5.5 5t3.5 6q8 5 16.5 10t18.5 7q11 5 20 2.5t20 -5.5q5 -2 8.5 -5.5l7.5 -7.5q5 -2 7.5 -5.5t6.5 -6.5l4 -6t4 -8q0 -9 3 -13q7 -24 9 -45
q2 -8 3 -14t1 -13v-2v-20z" />
    <glyph glyph-name="one" unicode="1" horiz-adv-x="139" 
d="M164 529q0 -1 1 -1q-1 -2 -1.5 -5.5t-2.5 -6.5q-4 -2 -5 -3h-1q1 -1 2 -1q-2 0 -4 -2q-6 -4 -15 -18t-19 -49q0 -2 -2 -2v-2q-2 -2 -2 -8q-2 -5 -1.5 -9t-1.5 -9q-2 -1 -2 -4v-4v-8t-1 -16.5t-4 -29.5v-5v-2q-1 -2 -0.5 -4.5t0.5 -5.5v-2q2 -2 1 -5.5t1 -7.5q0 -2 -1 -4
t-1 -5v-5q2 -4 1 -5.5t-1 -3.5l-4 -75q0 -3 -0.5 -9t-1.5 -12t-1.5 -11t-0.5 -6q-1 -2 -1 -7q-1 -2 -0.5 -4.5t0.5 -5.5q0 -2 0.5 -6.5t0.5 -7.5q2 -8 2 -38.5t-2 -75.5q1 -3 1.5 -8t2.5 -9l3 -13q1 -2 3 -8l2 -1q1 -7 4.5 -11.5t8.5 -9.5l9 -8l11 -8q2 0 2 -2q2 -1 3.5 -2
t3.5 -4q2 -1 2 -6q1 -2 -3 -1.5t-6 -0.5h-6.5t-7.5 -1h-1h-7q-8 3 -13 2h-2q-1 0 -1.5 0.5t-1.5 0.5h-5q-2 1 -8 1t-8 1q-1 0 -2.5 3.5t-2.5 3.5q-5 1 -12 6t-14 11.5t-12.5 13t-8.5 11.5q-4 5 -4.5 6t-0.5 7q-5 2 -5.5 29t2.5 72q0 11 2.5 32t0.5 41q-5 13 -3 28.5t0 48.5
v17q-1 0 -1 2q0 1 1 2l3 65q1 3 1 11q0 1 0.5 2.5t0.5 3.5q0 1 1 6.5t2 12t2.5 12.5t1.5 9q1 10 5 21l2 6t2 5q1 3 2.5 6t1.5 6q2 5 3.5 9t3.5 7l32 36q2 2 -1 4.5t-16 4.5q-5 0 -15.5 -0.5t-13.5 1.5q-1 1 -5 1t-5 -1h-14h-6t-9 -0.5t-11 -4t-11 -11.5l-6 -25v-11
q0 -2 -3 -7.5t-8 -5.5q-2 0 -3.5 3.5t-2 8t-1 8t-0.5 4.5v6q0 6 1 9t1.5 7t4.5 10l1 2v1q2 2 2 3t1 3q4 2 6 6.5t6 4.5q8 4 15 8t27 4h2h28h2h-1h1q1 0 8 -0.5t14.5 -1t14 -1.5t7.5 -1q6 0 10 -1h5h3h7l2 1h11h1h2h5q5 0 6 -1h4h1l1 1h1l7 -1z" />
    <glyph glyph-name="two" unicode="2" horiz-adv-x="339" 
d="M318 35v-9v-1q-1 -4 -1 -7.5t-1 -5.5q-3 -11 -6.5 -20t-10.5 -16l-12 -12q-4 -2 -8 -4.5t-9 -4.5q-4 -2 -10 -4q-4 -2 -8 -2.5t-7 -1.5l-38 1l-20 4t-23 5q-5 1 -17.5 4.5t-20.5 5.5h-24q-3 0 -5 0.5t-4 -0.5q-5 0 -10 -0.5t-10 -1.5q-6 -2 -13 -2.5t-14 -2.5l-6 -4
l-6 -4q0 -1 -4 -3t-4 -3q-4 0 -5 1q-2 1 -1 7.5t-2 20.5q2 3 2.5 8t2.5 9q1 3 1 5.5t2 5.5q3 5 5.5 10t5.5 10q2 8 6.5 15.5t9.5 14.5q2 5 4 8t4 7q2 3 3.5 6t3.5 5q5 5 8.5 10t7.5 10q3 4 12.5 13.5t20 20.5t20 21t13.5 15l12.5 12.5t14.5 13.5q6 7 11.5 13.5t13.5 14.5
q1 1 4 6t6.5 11t6.5 12t3 9q3 7 7 21t6 24q4 11 5 19q0 6 0.5 12t1 14.5t0.5 21.5v33q-2 8 -2 12l-9 27l-2 4l-2 4q-3 5 -13 15.5t-17 16.5q-4 3 -6.5 6t-5.5 6q-6 3 -9 5q-7 2 -13 0.5t-13 -0.5l-7.5 3t-8.5 1l-33 -10l-9 -6q-4 -4 -6.5 -7.5t-7.5 -7.5q-2 -3 -4.5 -5.5
t-4.5 -6.5q-1 -3 -3.5 -5.5t-5 -8.5t-4.5 -16.5t-2 -27.5q0 -5 4 -17t9 -23l6 -9l8 -7l10 -6l4 -1q2 -4 -1.5 -9.5t-11.5 -6.5l-16 10l-10 8l-17 27q-1 3 -1.5 5.5t-1.5 5.5q-2 4 -2 11q0 4 -0.5 7.5t-0.5 7.5q0 10 3 22.5t8 23.5q2 5 5 10.5t5 10.5q1 1 3 4q5 5 8.5 10
t8.5 10q8 8 16 12q18 13 35 20q7 1 13.5 1.5t13.5 2.5h1h6h1h15q6 -2 12 -3.5l14 -3.5q4 -1 6.5 -2.5t5.5 -1.5q5 -1 9 -3l8 -4q0 -1 1 -1h2q3 0 11 -6t17 -13.5t16.5 -14t10.5 -9.5q2 -4 4.5 -8.5t4.5 -9.5q4 -6 7 -12.5t5 -11.5q3 -8 3 -15q0 -10 2 -14q2 -3 0.5 -26.5
t-3.5 -49.5q-1 -5 -2 -8.5t-3 -8.5q-5 -10 -8 -19t-8 -19q-4 -6 -6 -10q-5 -8 -11.5 -18t-11.5 -15q-7 -8 -13.5 -15t-13.5 -15l-5.5 -5.5t-10.5 -9.5t-10.5 -9t-5.5 -4q-6 -4 -10.5 -8t-9.5 -7q-2 -1 -8 -6t-12.5 -11t-12 -11t-6.5 -5q-4 -4 -7 -5q-4 -2 -13 -9.5
t-14 -12.5q-7 -7 -13 -16.5t-12 -15.5q-2 -2 -2.5 -4.5t-2.5 -5.5q-3 -4 -5.5 -8.5t-6.5 -9.5q-3 -9 0 -17v-1h2q6 0 10 1q6 2 8.5 5t7.5 3h8q4 0 8.5 1t9.5 2q7 2 21.5 0.5t27.5 -3.5q8 -1 14.5 -1.5t14.5 -2.5q2 -1 8.5 -3t14 -4t13 -3t6.5 0q5 0 11.5 2t11.5 4t8.5 3
t6.5 4q2 2 4 4.5t4 4.5q7 7 12 15q2 4 6.5 9.5t6.5 9.5q2 -2 2 -5.5t1 -5.5q3 -6 3 -9v-8v-5z" />
    <glyph glyph-name="three" unicode="3" horiz-adv-x="361" 
d="M328 110q-2 -3 -2.5 -6t-1.5 -8q-1 -4 -1.5 -9t-1.5 -9q0 -11 -8.5 -25t-11.5 -23q-3 -3 -9.5 -12t-8.5 -11q-1 0 -1 -0.5t-1 -0.5q-11 -11 -23 -20.5t-23.5 -16t-20 -9.5t-11.5 -3q-5 -4 -8 -4.5t-7 -1.5h-3q-18 -3 -34 -2q-21 0 -39 3q-10 2 -31 8q-2 1 -13.5 4
t-13.5 6q-2 2 -10 8.5t-10 11.5q-2 2 -7 9t-7 9l-3 7q-5 11 -8 21.5t0 25.5q4 6 6.5 15t7.5 14l4 3q5 5 8 6q0 1 2 1q7 0 12.5 -6t-7.5 -15q-11 -11 -13 -17t-1 -26q0 -8 5 -16t11 -14q7 -8 16 -14q2 -2 2 -1.5t1 -0.5q2 0 5 -1.5t5 -3.5q11 -1 20.5 -4.5t21.5 -2.5
q25 2 48 14.5t41 32.5l23 31q3 7 6.5 16.5t6.5 18.5t5.5 16t3.5 9q0 4 2 6q6 17 6 32.5t-5 31.5q-6 16 -10 27q-4 10 -7 16.5t-2 2.5q-1 2 -6.5 9.5t-6.5 10.5q-1 5 -5 9t-6 10q-1 0 -4.5 4t-7 9t-7 9t-3.5 6q-5 5 -6.5 8t-7.5 9q5 5 14.5 10t21 12.5t23 17t20.5 23.5
q17 29 20 47.5t-7 41.5q-1 2 -1 3.5t-2 3.5q-2 4 -4.5 8t-5.5 7q-5 5 -7 7.5t-7 9.5q-4 2 -7 5t-6 5q-23 15 -45.5 14.5t-45.5 -10.5q-2 0 -13 -7l-8 -4l-17 -10l-16 -16l-10 -22v-3v-10l6 -12q1 -4 3.5 -6t1.5 -5q-1 -5 -6.5 -5t-10.5 2q-1 0 -2 1q-2 1 -3.5 5.5t-6.5 15.5
q-2 3 -2 8.5v22.5l6 18q0 1 1 1q2 3 3 5t3 4t5.5 4.5t10.5 8.5h1l2 2q1 0 10 7.5t14 9.5h1q10 7 17.5 10.5t15.5 5.5q20 5 36 4.5t30 -5t26.5 -12.5t26.5 -20l4 -3.5t8.5 -8l8.5 -8.5t3 -3q0 -2 5.5 -9t7.5 -9q3 -5 5.5 -9.5t4.5 -8.5q1 -1 3.5 -7t5 -14t3.5 -16.5t0 -15.5
q0 -2 -2 -10.5t-6 -18.5t-10.5 -19.5t-14.5 -14.5q-4 -6 -17 -13t-16 -11q1 -3 4 -5q2 -2 3 -4t3 -3q-1 -1 2 -5t6.5 -8.5t6 -8t1.5 -2.5q5 -7 14 -21.5t17.5 -31t15 -33t6.5 -26.5q1 -4 2 -6.5t0 -4.5z" />
    <glyph glyph-name="four" unicode="4" horiz-adv-x="383" 
d="M417 524q0 -6 -5 -11q-6 -3 -11.5 -7.5t-11 -12t-12 -19t-13.5 -30.5q0 -2 -3 -2l-1 -1q0 -2 -0.5 -4t-0.5 -4q-1 0 -2 -5t-3 -12l-4 -18v-1q-4 -23 -5 -31.5t-3 -13.5q-1 -1 -1 -3v-3q2 -13 -1 -29.5t-3 -19.5q0 -11 -3 -28t-6.5 -34t-6 -31t-2.5 -18q-2 -8 -3 -24
t0 -20q1 -1 0 -8.5t-2.5 -15.5t-3.5 -15l-2 -7v-4v-9.5t-0.5 -15.5t-0.5 -15.5v-10.5q1 -5 1 -9t1 -8q3 -15 7.5 -27.5t9.5 -15.5l10 -11l11 -9q0 -1 1 -1q2 -4 6 -6q1 -3 0.5 -5t-0.5 -4q1 -2 -2 -1.5t-5 0.5h-14q-11 2 -15 3.5t-6 0.5q-11 2 -14.5 2.5t-5.5 3.5q-2 0 -3 3
t-3 3q-5 1 -11 7t-11.5 13.5t-10 15t-6.5 11.5q-3 5 -3.5 6t-2.5 7q0 1 -0.5 6.5t-0.5 12.5v13v8v2h1q2 37 5 63t5 31v8t0.5 13t1 12.5t0.5 6.5q-1 5 -0.5 11.5t0.5 11.5q-2 0 -4.5 -1t-4.5 -1h-9h-5q-5 -2 -9 -1t-9 1h-13q-9 0 -23 3t-19 3q-4 1 -6.5 0.5t-4.5 0.5
q-4 0 -6.5 1.5t-5.5 1.5q0 -1 -3.5 0t-7.5 3q-5 2 -11 4h-1q-4 -3 -5 -5l-2.5 -2.5t-1.5 -2.5q-4 -4 -8 -6t-9 -5q-2 -2 -6.5 -4t-12.5 -7q-1 1 -5 -2t-6 -3q-10 -3 -16.5 -3.5t-15.5 -3.5h-6q-4 0 -13 3q-5 1 -11 3l-11 11q-2 5 -4.5 9.5t-2.5 9.5t2 11.5t5 9.5
q5 6 10.5 11t13.5 5q16 2 22 2.5t10 0.5h2q3 -1 6 -1t5 -1q4 0 7 -0.5t5 -0.5q5 -3 5 3q0 2 5.5 11t6.5 11q3 7 6 12.5t6 11.5q12 22 24.5 55.5t18.5 62.5q3 10 4 18t3 18q0 5 2.5 13.5t5 17.5t5 17t2.5 13q2 17 -1 29.5t-4 16.5q1 2 4 1t5 -3q2 -1 8.5 -2.5t7.5 -3.5
l18 -12q0 -1 2 -1q2 -3 4.5 -5t3.5 -5q2 0 3.5 -8.5t2 -19t1 -19.5t0.5 -12q-1 -1 -1 -2.5t-1 -3.5t-1 -6q-3 -22 -8 -38.5t-10.5 -31t-11.5 -29t-10 -32.5q-2 -6 -6.5 -14.5t-7.5 -13.5q-2 -2 -7 -11t-10.5 -19t-10.5 -18.5l-5 -8.5l-1 -1q4 -4 9 -4q2 -1 4.5 -0.5
t4.5 -1.5q2 -1 5.5 -1t8.5 -2q1 0 1.5 -0.5t1.5 -0.5q8 -2 21.5 -4.5t17.5 -2.5h9q5 0 9.5 -0.5t9.5 -0.5h22q2 0 4 0.5t5 0.5h2q1 6 2 10l2 8q0 12 0.5 27.5t2 30.5t3 27t3.5 17l1 5t2.5 12t2.5 12.5t1 6.5l3 9t4 12.5t3.5 12.5t2.5 8q1 4 6 12q2 2 4 8q2 7 4 10.5t5 7.5
l39 45q9 6 15.5 9t13 3.5t13.5 -0.5t17 -2q8 0 9.5 -1t1.5 -3zM61 247h-4q-2 0 -7.5 0.5t-12 0.5h-12h-5.5h-6.5t-7.5 -1q-2 -2 -4 -2.5t-4 -3.5q-4 -5 -6 -6t-2 -6q0 -6 4 -12t8 -8q3 -2 7.5 -2t6.5 -1l4 1q15 9 20.5 11t7.5 7q5 7 6.5 9.5t5.5 10.5q1 0 1 2z" />
    <glyph glyph-name="five" unicode="5" horiz-adv-x="391" 
d="M362 187q1 -6 3 -19t3 -27.5t1 -28t-1 -20.5q-2 -9 -4.5 -26.5t-13.5 -37.5t-35 -40t-67 -35q-7 -1 -17 -4.5t-16 -5.5h-10.5t-16 0.5t-16.5 1t-12 0.5q-11 0 -29.5 9t-34.5 19q-41 18 -61 61t-17 98q-3 35 13 62t35 48q14 14 28 21.5t31 15.5q1 1 5 1t5 2q4 2 7 2.5
t10 2.5q2 -1 4 -1h1q6 -2 8 -5.5t1 -7t-3 -6t-3 -2.5l-4 1l-10 -1q-6 -1 -17.5 -5t-24 -11.5t-24.5 -19t-21 -26.5q-2 -6 -5.5 -11t-4.5 -11q-6 -15 -8 -23.5t-1 -19.5q0 -2 -0.5 -5t0.5 -6q-1 -2 -0.5 -3.5t0.5 -3.5v-11t2 -13q-3 3 1 -9t11.5 -29.5t16 -34t16.5 -21.5
l36 -20l6 -2t6 -1q6 0 6 -2q7 0 14.5 -1t15.5 -2q4 2 7 2t7 1t11 2.5t19 6.5q1 0 6.5 3t12.5 7.5l14 9t11 6.5q1 -2 2 1.5t1 5.5q1 0 7 5t19 25q0 2 1 7t2.5 13.5t3.5 22.5q0 1 -0.5 14.5t-1 28.5t-1 28t-0.5 15l-2 4q-1 2 -1 7q-2 10 -9.5 24.5t-16.5 28.5t-16.5 24.5
t-9.5 13.5q-1 2 -3 4h-1q0 1 -3.5 5t-8 9t-8 9t-3.5 5l-3 3q0 1 -4 6t-13.5 17t-27 34.5t-45.5 60.5v1v2h1q0 1 3.5 8t3.5 36q0 6 -1.5 23t-3.5 35.5t-4 34t-3 19.5q-2 5 3 2l23 -6q3 -1 10 -6t7 -6h1h8h15h6q5 0 10 0.5t19 2.5q-4 -1 3.5 0.5t18.5 3t22.5 3t15.5 0.5
q2 0 6 0.5t7 0.5h2h2h1h3h5h4h3h3q-1 0 4 -1t10 -4q2 0 7.5 -4t9.5 -8q3 -3 9 -12t8 -22q0 -2 -0.5 -9.5t-1.5 -16t-3 -16.5t-4 -11l-24 -30l-4 -4l-11 -3l-19 -3l-8 3l-3 1l-4 4l-6 6l-3 8l1 6l10 5l4 -12l5 -5l9 -1h1l16 3l8 6l12 18q2 3 7.5 17.5t3.5 31.5l-11 25
q-1 2 -4 4t-5 2l-5 2q-6 2 -11.5 2t-9.5 1h-5h-16q-2 0 -4.5 -0.5t-9 -1.5t-18 -2.5t-31.5 -4.5q-1 0 -5 -0.5t-9 -1l-10 -1t-6 -0.5q-5 0 -14 -1.5t-5 -5.5q1 -2 2 -4.5t1 -4.5l15 -46q2 -14 1 -33.5t-1 -27.5q0 -1 2.5 -4.5t3.5 -3.5q0 -1 -1 -0.5t0.5 -1t7 -7.5t18.5 -19
q3 -1 6.5 -4.5t9.5 -8.5q1 -2 3 -3.5t7 -5.5t13.5 -12.5t22.5 -24.5l16 -19q2 -3 12.5 -15t24.5 -38l11 -22q4 -9 7.5 -17t3.5 -11q0 -1 2 -3l8 -28v0z" />
    <glyph glyph-name="six" unicode="6" horiz-adv-x="345" 
d="M312 8q-15 -26 -34 -41t-40 -21t-44 -5.5t-46 5.5l-23 11.5t-8 2.5q-1 1 -1 2l-50 38q0 2 -1 2.5t-2 2.5q-14 21 -16.5 26.5t-4.5 8.5q-1 0 -1 4q-1 1 -3 9t-4.5 17t-4 16.5t-1.5 8.5q0 2 0.5 4t-1.5 5q1 0 -1 5q0 2 -1 3.5t-1 4.5l-8 50v14v1q-1 2 -0.5 3t0.5 3
q-1 3 -0.5 5t0.5 4v10v6v8v7q0 3 0.5 6t-0.5 5l1 7q5 34 9 55.5t4 17.5l2 12l2 7q3 9 9.5 23t12.5 27t11 23.5t6 12.5q0 1 3.5 6t7 11t6 10.5t2.5 5.5l1 1q9 14 12 17l5 5l13 13q1 0 1.5 1.5t1.5 1.5l19 14q8 6 13 7l4 2l27 13q1 0 7 2l12 4l20 2h36q1 0 8 -2.5t9 -4.5
q2 -1 4 -1t4 -2q16 -10 20.5 -25t4.5 -16q0 -9 -5 -21q-2 -5 -5 -8t-8 -6l-6 -3t-3 -2l-2 -1q-2 -1 -4 -1h-4q-4 -2 -9 -2q-1 0 -5.5 -0.5t-9.5 -0.5t-9.5 -0.5t-6.5 -0.5h-6q-2 0 -5.5 0.5t-6.5 0.5h-1h-2q-3 0 -5 1q-3 0 -5.5 1t-5.5 1q-2 1 -6 2.5t-7 1.5q-6 6 0 12h1
q8 2 11.5 1.5t6.5 -2.5h2q2 0 5 -1.5t6 -1.5t5 -1h13h4q6 -1 11 1t10 2l7 2l17 7q2 5 3.5 9t0.5 9q0 3 -2 7l-3 6q-2 4 -6 5.5t-7 2.5l-15 4l-10 -1q-8 -2 -14 -3t-8 -3q-1 0 -2 -1q-6 -3 -10 -7l-9 -7l-6 -4q-11 -8 -15 -13.5t-9 -12.5q-5 -8 -9 -13.5t-7 -10.5l-6 -9
q-11 -20 -17 -30.5t-8 -15.5q-1 -1 -3 -7t-4 -13t-3.5 -13t-1.5 -7l-1 -3.5t-2 -8t-2 -8.5t-1 -5v-5v-1v-6v-3q-1 -2 -1 -6q-1 -16 -2 -25t-1.5 -14t-1 -7t-0.5 -3q-1 -1 0 -1v-4q-2 -5 -1 -5v-3q1 -6 0 -11q-1 -25 -1 -31.5v-8.5v-2v-7l-1 -1h1q-1 -8 -0.5 -19t1.5 -21
t2 -17.5t1 -8.5v-1q0 -24 7 -44.5t15 -35.5t15.5 -23t9.5 -8q1 0 1 -3q3 -1 8 -5t10.5 -8.5t10.5 -8.5t7 -4q6 -1 15 0t17.5 3t15 4t8.5 3q20 6 27 14.5t16 22.5q1 2 2.5 3t1.5 3q3 2 4 5t4 5q11 14 14 47q3 7 2.5 13t1.5 12q2 40 -6.5 74.5t-22.5 70.5l-6 10l-11 9
q-6 3 -11.5 6t-10.5 4l-7 2h-9l-10 -2l-8 -4l-5 -3l-3 -4l-3 -8l-1 -5l-2 -4l-1 -9l3 -10l2 -5l6 -11l4 -6l1 -17l-20 15l-3 5l-4 9l-4 14l-1 5v3v9l4 9l2 5v1l4 5l7 8l20 14l10 3h9l5 -1l9 -2h2q3 -2 12.5 -5t11.5 -5l4 -2q3 -2 5 -3t4 -3q2 -4 6 -6q7 -10 11 -18.5
t3 -10.5l2 -1q8 -25 13.5 -48.5t8.5 -46.5q2 -16 2.5 -34t-2.5 -36t-9.5 -34.5t-16.5 -29.5z" />
    <glyph glyph-name="seven" unicode="7" horiz-adv-x="361" 
d="M352 554q2 0 -1.5 -10t-6.5 -32q-1 -2 -2.5 -6.5t-1.5 -6.5l-24 -61l-1 -2l-2 -6q-1 -2 -2.5 -3.5t-5 -7t-9 -15t-14.5 -26.5q-2 -6 -3 -6q-1 -3 -3 -6.5t-8 -14.5t-17.5 -32t-32.5 -60q-2 -2 -3 -4.5t-3.5 -7.5l-6.5 -13t-11 -21q0 -1 -1.5 -2t-1.5 -2q-2 -4 -5 -12.5
t-5 -11.5q0 -4 -6 -11.5t-17 -30.5v-4t-2 -2q-1 -2 -4 -7.5t-7 -12.5t-7.5 -14l-5.5 -11q0 -1 -1 -1q0 -5 -2 -5q-1 -2 -3 -9.5t-12 -38.5l-2 -7q-3 -7 -5 -8l-3 -18q1 -5 0.5 -12.5t-0.5 -16.5t3 -20.5t13 -23.5q0 -10 1 -15q-1 0 -1 0.5t-1 0.5h-1l-14 4q-5 0 -6 1
q-1 0 -2 1q-1 2 -2 2t-2 1q0 2 -2 2h-1q-1 1 -2 1t-3 2q1 0 -12.5 17t-27.5 44v9v21v6q0 10 3.5 23.5t8 27t9 25.5t5.5 20q1 1 1 2.5t1 3.5l23 48l4 14l5 5q1 5 2 7t3 5q0 1 6 9.5t14.5 23t17.5 32.5t15 37q5 10 8 13v3q0 1 2 4t8 12.5t17 27.5t28 50q2 3 8.5 17t14.5 25
l1 6q1 2 2 5t4 9.5t7 17t11 28.5l18 37q3 5 0.5 8t-7.5 4.5t-10.5 1.5h-8.5h-12q-3 -2 -5 0q-14 -2 -31 -2t-28 4h-6.5h-14t-14 1t-7.5 3q-1 0 -4 0.5t-5 -0.5h-4.5t-4.5 1l-34 4q-5 -1 -10.5 -1.5t-29.5 -2.5l-5 -1l-12 -9l-7 -15v-18q0 -6 -0.5 -18t12.5 -35l9 -6l7 -6
q0 -3 -0.5 -10.5t-0.5 -10.5l-7 2l-7 3l-10 10l-16 25l-8 42v7q-2 2 -1 4.5t1 4.5q0 4 0.5 10t8.5 21q1 4 4.5 6t5.5 4q1 1 7 4.5t8 5.5q4 2 7.5 2.5t12.5 3.5q1 0 10 1t18 -1q5 0 13 1.5t23 -2.5h1q2 0 4.5 -1t4.5 1h2q1 0 10 -1t20 -2.5t21.5 -2t13.5 -0.5q2 -2 4 -2h3h1
h7.5t34.5 2h15q5 0 16 -0.5t23.5 -5t24.5 -15.5t18 -32z" />
    <glyph glyph-name="eight" unicode="8" horiz-adv-x="403" 
d="M350 252q16 -24 28.5 -60t5.5 -73q-5 -59 -31.5 -100.5t-70.5 -54.5q-19 -9 -39 -15.5t-34 -4.5q-4 1 -12 1.5t-17 1.5t-17.5 2t-12.5 2q-5 2 -15 7t-18 7q-44 19 -66.5 41.5t-32 44t-10 39t-0.5 25.5v15q0 6 1.5 19t4.5 28t6 28.5t6 19.5l10 28q1 0 1.5 1.5t-0.5 1.5
q1 3 6 11l10 16q6 10 14 21q20 25 32 36.5t14 13.5l19 17l29 22l2 2l4 4l3 3l2 2q-2 4 -5 6.5t-5 7.5q-20 19 -32.5 41t-16.5 50q-1 5 -1 9v7v3v9v7l1 9l1 3q1 2 1 7q14 29 41.5 45.5t56.5 11.5l8 -1h6l18 -2q1 -1 2.5 -0.5t5.5 -1.5h1l3 -3h1q2 -1 10 -3t8 -5l19 -12
q1 -1 2.5 -1t1.5 -1q-2 -2 1 -2q1 -2 3 -5.5t3 -4.5q5 -3 14 -30l3 -6q2 -5 4 -15.5t3 -11.5q2 -5 -4 -27.5t-17 -46.5v-1v-1l-2 -2q-1 -1 -2 -1l-17 -24l-1 1q0 -1 -6 -7q-3 -3 -5 -7q-3 -4 -5 -4q-1 -2 -4 -5h-2l-4 -6l-3 -1v-1q-3 -3 -5 -4q-2 -3 -5 -6q-2 -2 -4.5 -4
t-3.5 -4l-4 -1l-3 -2l-4 -5q-3 -3 -8 -5q-2 -1 -4 -3t-5 -4q-4 -3 -7 -7l-6 -4l-4 -4t-9.5 -8t-9.5 -8l-4 -4q0 -1 -1 -1q-1 -1 -1.5 -2.5t-1.5 -1.5q-3 -2 -12.5 -12t-20 -23t-20 -27t-12.5 -25l-3 -6q-1 -2 -2 -3q0 -2 -2.5 -15.5t-5 -29.5t-4.5 -29.5t-2 -15.5l3 -21
q-1 -17 -0.5 -22t1.5 -7q9 -21 14.5 -26.5l7.5 -7.5q0 -2 1 -3l2 -2q4 -4 11 -10t14.5 -12t13 -10t6.5 -4q12 -6 19 -8.5t11 -3.5t7 -1.5t7 -2.5q25 0 43 2t47 15q2 0 6 3t8.5 6t7.5 5.5t3 1.5l3 3h2v2q6 1 10.5 12.5t6.5 13.5q-2 0 -1 1.5t2 1.5l1 1q0 1 1 2.5t3 9
t6.5 23.5t10.5 46q2 10 -0.5 27t-7.5 33q-1 7 -3 11t-4 11q-17 34 -34 55t-44 43l-11 2h-12q-7 0 -13.5 -0.5t-11.5 -4.5l-7 -4l-8 -6l-7 -7l-4 -28l1 -6l4 -6l6 -5q8 -9 6 -13.5t-10 -1.5l-9 3l-8 5l-2 3l-2 4l-5 8l-1 10l1 22l6 13l8 10l8 6l4 3l9 3l3 1q2 2 11.5 6.5
t11.5 4.5l5 1q5 1 10 1q2 -1 11 -1h2l2 -1l11 -4q0 -1 1 -1q1 -1 2 -1l3 -1.5l3 -1.5t4 -3q0 -1 1 -1q18 -14 30.5 -30t27.5 -33zM134 510q5 -21 18 -41t31 -40q1 -2 3 -2.5t5 -3.5l1 -2l6 2q7 5 10 5t5 2q16 13 21.5 17l5.5 4l-2.5 -2t-1.5 -1l4 6q2 2 4 5l1 2q3 2 5.5 8.5
t4.5 14.5t3.5 15t1.5 9l-5 39v4.5t-1 4.5l-1 1q0 2 -1 4t-3 3q1 0 -0.5 3.5t-3.5 8t-4 8l-2 3.5q-11 8 -26 7.5t-26 -2.5q-8 -1 -13.5 -1t-14.5 -8q-3 -2 -5.5 -5.5t-6.5 -7.5q-7 -10 -10 -12.5t-5 -13.5l1 -1q-1 0 -1 -1v-15.5t2 -16.5z" />
    <glyph glyph-name="nine" unicode="9" horiz-adv-x="360" 
d="M347 203h-2q-3 -28 -5 -43.5t-3 -23t-1.5 -9.5t-1.5 -3q0 -2 -1 -3t-1 -2q-11 -30 -17.5 -46.5t-9.5 -24t-3.5 -9t-1.5 -1.5q0 -2 -2 -2l-41 -54q-2 -2 -5 -2.5t-3 -4.5h-1q-4 -3 -6.5 -4t-5.5 -3l-45 -18q-3 -3 -6 -2q-5 -3 -7 -3t-4 -1q-2 0 -3 -1t-3 0h-31
q-11 2 -14 3.5t-6 3.5q-2 -1 -7 3t-10.5 9t-10.5 10t-6 7l-4 4l-4 4l-10 15q-5 9 -6 11t-3 11v29t2 7l9 11v2q5 0 8 3q5 2 8 1q0 -1 1 -1t1 -1q2 -4 4 -7l2 -4q0 -1 1 -2l-4 -2q-3 -2 -4 -3q-1 -2 -2 -1.5t-1 -3.5q-2 -2 -2.5 -3.5t-2.5 -4.5v-10q0 -4 0.5 -5t0.5 -5
q2 -8 9 -19t12 -11q3 -2 8.5 -5t8.5 -5h2q1 -1 3 0t4 -1l4 -1q6 1 14 3.5t15.5 5.5t13 5t6.5 3q10 6 17.5 13t12.5 12q6 6 11 12q3 3 4 5.5t2 4.5l13 24q8 21 10 27.5t4 9.5l1 4q5 28 8.5 44t5.5 24.5t3 13.5t1 13v7v9v72v1q2 26 2 39t-2 19v2q-1 3 -2 10.5t-1.5 15.5
t-0.5 15.5v10.5v6q0 2 -1 2t-1 1l2 3q-2 4 -3 6.5t0 5.5v1q-2 2 -1 4q-5 25 -8 39t-5 21.5t-3.5 9.5t-2.5 3q1 2 0 2.5t0 2.5q-13 20 -17 28.5t-4 10.5q-3 1 -10 8t-9 7v1q-2 1 -5.5 1t-5.5 2l-4 2q-2 1 -4 1q-2 1 -8 0.5t-13.5 -1.5t-14.5 -1.5t-11 -0.5q-2 -1 -5.5 -2
t-4.5 -2l-53 -34q-2 -2 -3 -2t-3 -2l-21 -35l-3 -7l-9 -18q0 -2 -1 -3t-2 -3v-1l-4 -31l3 -70l5 -20l5 -15l7 -13l10 -16l28 -34q9 -6 11 -7t3 -1l4 -1l13 -4l13 3l14 5l15 13l2 7l2 16l1 16l-1 8v1l-5 12l-6 10l-8 11v1v2l4 3l4 3l9 -5l4 -4l1 -1l2 -2l6 -8l5 -10l1 -8
l2 -11v-2l-2 -15l-1 -15l-2 -13l-7 -10l-8 -9l-10 -8l-12 -7l-13 -3h-12l-17 5l-19 12l-19 16l-1 1l-11 14l-9 15l-9 15l-7 15l-6 18l-4 15l-3 18l-1 6l1 63l7 31l3 6q2 2 2 4t1 4l2 7l3 8q8 11 12.5 17.5t6 10t2 5t1.5 1.5q3 2 9 8t7 8l6 4l5 5q8 7 11 7l3 2l8 6l7 2
q1 1 3 1q0 1 3 3q11 5 25.5 9.5t16.5 5.5l7 3.5t8 0.5q4 -2 7 -0.5t4 0.5q3 -2 5.5 -1t5.5 -1v1l1 -1h3q2 0 8.5 -0.5t8.5 -2.5q28 -9 33 -10.5t6 -2.5t5 -3h3q26 -26 30.5 -37.5t6.5 -11.5q5 -5 9 -17t6 -17h1q0 -2 0.5 -4t0.5 -4l16 -64v-2q2 0 1.5 -1.5t-0.5 -4.5
q1 -2 3.5 -12t4 -22t2.5 -21.5t0 -10.5q2 -12 2.5 -15.5t1.5 -3.5q1 -29 3 -43t-1 -17q0 -2 1 -2t1 -2z" />
    <glyph glyph-name="exclam" unicode="!" horiz-adv-x="160" 
d="M148 618v-2q0 -4 -1 -7t-2 -7q-1 -3 -1 -6.5v-6.5q0 -4 -3.5 -13t-4.5 -14q-2 -2 -2 -4.5t-2 -5.5q-1 -2 -1.5 -10t-1.5 -13q-1 0 -1 -1v-3q0 -8 -3 -20q0 -4 -1 -4q-1 -3 -1 -5t0.5 -3t0.5 -3v-15q0 -4 -1 -18.5t-3 -19.5v-7v-9v-3h1q-1 0 -1 -3l3 -67v-4q1 -2 0.5 -6
t-1.5 -13t-2 -25t-1 -43q-2 -4 -2 -13q0 -1 1 -1.5t-1 -2.5v-2q1 0 1.5 -12t1 -27.5t0.5 -31v-22.5q1 -2 0.5 -4t-0.5 -7v-15q-1 -4 0 -7q0 -1 -0.5 -3t-1 -8.5t-2 -19.5t-3.5 -35q0 -1 -0.5 -1t-0.5 -1l-1 -1q-2 -4 -3 -8t-3 -9q0 -1 -1 -4t-6 -14q-3 -3 -5 -6.5t-7 -5.5
q-5 -5 -8 -7q-4 0 -7 -2h-2q-8 -4 -17.5 -8.5t-18.5 -3.5h-3l-18 -3h-2h-3l-4 2q-2 1 -2 4t2 4v3q5 1 8 4q2 3 5 7t5 7q2 2 4 8t4 11q0 5 0.5 9.5t0.5 6.5v25q0 1 0.5 6t0.5 10t0.5 9.5t0.5 5.5q0 3 0.5 6.5t0.5 8.5v11v15.5t0.5 28.5t1 27t1.5 11v3q-2 2 -1 4.5t1 5.5v6
q0 2 0.5 8.5t0.5 13.5t0.5 12.5t0.5 6.5v5.5v22.5t-0.5 54t-1.5 102v4v6q1 4 0 8q0 4 1 7t1 10v7t2 10q1 4 2 9t3 10q0 1 1 9t2 17t2 16.5l1 7.5q0 2 -0.5 4t0.5 4v6v15q0 2 1 3t1 3t0.5 3.5t0.5 3.5q0 4 -0.5 5t-0.5 4q1 2 2 3h6h6q2 0 8.5 -1t9.5 0q1 1 5 1l8 2q5 0 9.5 2
t9.5 2q2 0 3.5 1t3.5 1t9 -2t12 -2zM83 -108q2 -3 5.5 -4.5t5.5 -5.5v-13q0 -6 -5 -16q-9 -6 -16.5 -13t-17.5 -11q-5 -2 -12.5 -2.5t-14.5 1.5q-3 1 -5.5 3t-6.5 4q-7 2 -11 7q-2 3 0 7t0 7q-4 8 -4 13q2 9 5.5 13t9.5 10q6 8 9 10q2 2 13 6t13 4q4 0 7.5 0.5t6.5 -0.5
q5 -4 10 -9t8 -11z" />
    <glyph glyph-name="quotedbl" unicode="&#x22;" horiz-adv-x="226" 
d="M101 525q5 0 7 -1q2 -2 2 -3.5t1 -3.5q0 -6 -1 -8t-1 -4.5t-1 -4.5q0 -2 -2.5 -6.5t-3.5 -6.5q-1 -5 -3 -8.5t-4 -7.5q-1 -2 -5 -6q-3 -3 -5 -3q-3 2 -3 4v7q0 3 -0.5 4t-0.5 4t0.5 7.5t0.5 7.5v8q0 2 -0.5 5.5t-0.5 5.5t-0.5 4.5t1.5 4.5zM146 524q1 0 1 -1t2 -1t3 1
t3 -1q1 0 3 -7q0 -5 -1 -8q-4 -8 -4 -15q-2 -5 -3.5 -8t-3.5 -8q0 -3 -3 -7q-1 -1 -2 -2.5t-2 -2.5q-3 -3 -5 -3t-3 1t-1 2q0 3 -1.5 3.5t-1.5 3.5t0.5 4.5t0.5 3.5v15v8q0 2 -0.5 6.5t-0.5 6.5q0 4 3 7q4 1 7.5 0.5t8.5 1.5z" />
    <glyph glyph-name="numbersign" unicode="#" horiz-adv-x="395" 
d="M64 226v17l1 7l4 2h4l8 -1l10 1l27 4l4 4l9 25l19 60l-14 3l-40 3h-11l-3 5v3l4 14v0l57 -3h13l8 9l6 22l19 61l5 27l6 22l8 3l14 -1l3 -4l1 -3l-1 -15l-7 -24l-8 -24l-7 -25l-5 -22l-12 -24h7l46 -3h7l5 12l18 49l7 25l9 31l1 1l5 7l7 -1h4l14 -5l3 -5l1 -5l-1 -2
l-23 -53l-10 -24l-11 -34l21 -3l13 -2l12 -1h13l2 -1l5 -7v-11l-1 -4l-4 -3h-13l-25 5l-28 4l-6 -3l-11 -30l-10 -36v-9l14 -1l15 -2h27l13 -1l2 -2l2 -4l-1 -15l-2 -2l-4 -1h-13l-27 1l-30 -1l-4 -4l-6 -12l-14 -51l-13 -49l-6 -9l-3 -3l-17 4v3l11 39l7 25l12 44l3 13
l-16 1l-26 2l-18 -5l-3 -2l-5 -12l-2 -6l-22 -73l-7 -26l-3 -2l-11 -1l-7 2l-3 7v5l3 5l7 24l13 51l7 24l-14 1l-6 -2h-6l-26 -4v1zM152 263h15l33 -2l15 3l4 7l1 9l10 32l9 30l-6 2l-31 1l-18 1l-5 -1l-5 -10l-18 -53z" />
    <glyph glyph-name="dollar" unicode="$" horiz-adv-x="421" 
d="M402 196q1 -7 2 -21t1 -29.5t-0.5 -29t-1.5 -19.5q0 -2 -0.5 -4.5t-0.5 -4.5q-1 -3 -1 -6q-1 -8 -3.5 -25t-15 -36.5t-38 -38.5t-73.5 -30l-2 -42v-17v-18l-2 -17l-2 -3l-11 -2v-2l-5 2l-3 4l1 8l-1 2l1 10v19l1 8l3 44q-7 -2 -13 -4t-10 -2q-3 -1 -2 -1t-3 0l-1 -37h-2
l2 -9l-3 -20v-9l-1 -2v-8l-10 -3l-3 -2l-3 2l-2 3l-2 3l1 16l2 19l1 17l1 31q-11 2 -21.5 2h-15.5q-13 1 -33.5 11.5t-37.5 20.5q-45 23 -65.5 70t-15.5 106q3 26 13 50t26.5 42.5t39 30t50.5 13.5q8 1 13.5 -0.5t6.5 -1.5h3q3 0 15.5 -3t17.5 -5q2 0 7 -3t8 -5q0 5 2 7v1
l4 78l-3.5 3.5l-3.5 3.5l-4 7l-3 2l-4 3q-1 1 -2.5 4t-3.5 5q-3 3 -5 6q-2 1 -3 2l-2 2v2l-2 2l-3 6q0 1 -1 1q-1 2 -4 5h-1q-2 0 -2 2t-1 4q-1 0 -7.5 12t-17.5 29q0 1 -1 2l-2 2v3q-3 3 -5 14t-5 32q0 1 1 11t4 22.5t7.5 24.5t11.5 17h-3l3 1v2h1l1 3q2 2 4.5 5t4.5 5h1
q-1 1 6.5 7.5t28.5 14.5q1 2 9 2.5t10 0.5l6 2h4l1 8l4 69l1 12h5h9l4 -3l1 -3l-1 -18v-17l-1 -19v-28v-1l8 -2h7q4 1 6.5 0.5t5.5 -0.5v4v10l2 1v18v17v18v17l2 4l3 2h3l11 -6l1 -6v-70l-1 -12q22 -10 36 -28.5t23 -44.5q-2 -2 -1 -3t1 -2v-4l-3 -24l-1 -3v-1q0 -1 -0.5 -2
t-0.5 -3l-1 -1q-2 -2 -7 -9.5t-9 -7.5l-15 -10q-1 1 -6 -2t-8 2q-2 4 0 7t2 4q2 2 3 2.5l3 1.5h1l2 2l4 4q4 1 8.5 7.5t4.5 7.5v4q0 2 0.5 3t0.5 2v3v5t-1 8l-2 6q-1 3 -3 11q-9 19 -15 27t-17 12v-3q-1 -4 -1 -11v-8v-18l-3 -47l-1 -8v-2l-4 -110v-1l21 -27l15 -21
q2 -2 13 -15.5t26 -42.5q6 -12 11 -23q5 -9 8 -17.5t4 -11.5q-1 -3 0 -5zM284 598q-9 2 -15 1.5t-16 -4.5l-1 -25l-3 -29q0 -1 -0.5 -7.5t-0.5 -29.5l-1 -18l-1 -6h1v-3q0 -3 -0.5 -11.5t-1.5 -19.5v-8q2 -2 1.5 -4t1.5 -4q2 -3 5.5 -7t11.5 -9q1 -3 4.5 -4t5.5 -3v-1v-1
q0 8 1 15t1 13v18q0 10 1 20t3 34l3 39v2v22v30zM222 457q0 -1 -2 0.5t4 -6.5l4 51v1v9l3 53l2 19v6q-4 -5 -7.5 -9t-1.5 -4q-2 -2 -2 -3.5t-2 -3.5v-3q-2 -4 -4 -6q1 -3 -3 -14.5t-7 -25.5q-1 -2 -1.5 -9t-0.5 -9v-4q0 -1 1 -2v-3q0 -1 1 -2l4 -12t3 -11v-1q1 0 4 -5.5
t5 -5.5zM178 -22q7 2 11 1t13 1q-1 2 -1 6q0 1 -0.5 2t-0.5 4q-1 6 -0.5 11.5t1.5 10.5q0 3 0.5 4t0.5 2q0 5 0.5 8.5t0.5 7.5q0 1 0.5 9.5t1 28t2.5 53.5t5 87v3l2 26q-2 1 -3 2t-2 1q-1 3 -3 3.5t-4 1.5q-4 3 -18 6.5t-18 3.5l-11 -1q-2 2 -10.5 0t-14.5 0q-2 0 -9.5 -2
t-9.5 -3q-16 -3 -29 -15t-22.5 -27t-14.5 -30t-5 -24q1 -4 0 -7t0 -7v-8q0 -4 -1 -12t1 -12l2 -8q1 -4 1 -7h1q-1 -2 0.5 -10t1.5 -10q0 -3 2 -7v-2q2 0 1 -3q1 0 2.5 -4.5t3.5 -9.5t4.5 -9.5t5.5 -5.5v-2q2 0 2 -1l2 -4q0 1 1.5 -1.5t4 -6t5.5 -7t6 -4.5l8 -7l1 -1
q1 -2 8.5 -4t10.5 -4q5 -4 6.5 -5t6.5 -3q2 -2 6 -2.5t7 -2.5h5q10 -2 18 -2.5t15 -1.5zM228 -14q2 0 9 4.5t17 9.5v1v23v10v16t2 16q0 3 1 9t2.5 25.5t3.5 58.5t6 109v1v4t1 4v7v4v8q-1 2 -1.5 2.5t-1.5 2.5q-2 1 -2 5h-2q-5 8 -9 14q-3 5 -6 9t-2 5l-2.5 2.5t-3.5 2.5
l-1 2q0 -14 -1 -27t-1 -28v2v-4q0 -4 -1 -7v-8v-1q-1 -17 -2 -31.5t-2 -33.5t-2 -46t-2 -68v2v-4v-21v-34v-9q-2 -5 -2 -11.5v-11.5v-8v-9q2 0 0.5 1t1.5 2zM323 98v16v30.5v31v16.5q0 1 -1 3l-3 6q-1 15 -9 37.5t-20 38.5v-1q3 -5 0 -8v-5v-1l-2 -46v-4q-1 -1 -1.5 -5
t-1 -19.5t-2 -47.5t-4.5 -89q2 -4 1 -8t-1 -8q0 -5 -0.5 -8.5t-0.5 -7.5q0 -1 0.5 -2t0.5 -3v-3l3 3h1q2 0 1.5 2.5t-0.5 3.5q2 0 7.5 5t19.5 25q1 1 2.5 7t4.5 25z" />
    <glyph glyph-name="percent" unicode="%" horiz-adv-x="531" 
d="M472 -5l-1 -1h-1q-2 -1 -2.5 -1.5t-2.5 -1.5v-1q-2 -2 -3 -2t-3 -1q-1 -1 -3.5 -2.5t-13.5 -6.5h-1q-2 0 -12 -5q-4 -2 -7 0q-1 0 -4 -3l-3 -18q-2 -5 -6 -17t-11 -24q-1 -2 -2 -3.5t-2 -3.5q3 3 -6.5 -8.5t-18.5 -22.5l-1 -1l-10 -4q-1 -1 -2 -1l-13 -4h-1q-2 0 -4 -2
q-1 0 -9 -1.5t-15 -3.5q-7 1 -15 4q-7 2 -16 6t-20 10l-8 10l-5 11l-3 7q-2 2 -4.5 10t-6.5 27v3.5t0.5 5t2 11t3.5 21.5q2 0 2 2v3l1 1.5t2.5 6l4.5 13.5t9 24q2 2 4 7t12 26l6 8q2 0 2 3q0 1 3 4l7 7t7 6.5l3 2.5h1l1 1q-1 1 16 8l12 4q5 0 7.5 1.5t9.5 -0.5q2 0 4 -1
l13 -1q4 0 4 -1q5 0 11 -2q4 0 4 -3h1q0 -1 1 -2h1h1l5 -3v-3q0 4 -30 -21l-7 -7t-4.5 -5.5t-6 -10t-12.5 -19.5l-3 -8l-29 -81v-1l-2 -7v-2q0 -3 -1 -3q0 -2 -0.5 -4.5t-1.5 -15.5q-1 -2 -0.5 -6t6.5 -20l1 -1h1l2 -2l1.5 -1.5t2.5 -1.5l22 3l9 2h2q8 0 9.5 3.5t9.5 7.5
q2 2 7 8t7 7q0 1 1 1l1 1q1 1 3 4q2 2 3 5t3 6l11 28q-1 2 0.5 5.5t2.5 13.5q0 1 0.5 1.5t0.5 1.5q-2 0 -3 0.5t-2 0.5h-2q-2 0 -2 1q-1 -1 -8 5q-4 3 -7 7q-1 2 -1.5 2t-1.5 2q-2 1 -2.5 4t-5.5 14q0 2 -0.5 4.5t-0.5 8.5q0 2 0.5 5t3.5 12t8 16t13 15q2 2 2.5 1.5
t1.5 -0.5h2h2h1h2q3 0 4 -1l5 -4l1 -1q0 -1 0.5 -1.5t0.5 -1.5q2 -2 3 -5t2 -5l3 -19v-1q2 -3 0.5 -8.5t-1.5 -19.5v-3q0 -3 -1 -9t1 -7q2 0 7.5 1.5t7.5 2.5q1 0 2.5 0.5t8.5 5.5q1 0 2.5 0.5t7.5 3.5h1q2 -1 3 -1t2 -1q2 -1 2.5 -1.5t2.5 -0.5v-3h1v1zM411 11q1 3 1 5.5
t-1 10.5q-1 5 -0.5 9.5t-0.5 14.5q-1 1 -1 2t-0.5 2.5t-4.5 4.5q-2 0 -4 -1q-5 -2 -6 -5q-3 -3 -3 -5q-1 -2 -3 -4l-4 -13v-4l-1 -13l1 -5q1 -4 4.5 -7t14.5 -14q2 0 4 -0.5t3 2.5v3.5t1 15.5v1zM503 521q0 -1 -0.5 -1.5t-0.5 -1.5l-1 -2v-1q-2 -4 -3.5 -8t-5.5 -7
q-3 -5 -7 -6l-4 -2q-4 -2 -6 -4h-1q-2 -1 -6 -1.5t-15 -3.5q-5 -2 -22.5 -6t-37.5 -9h-2h-1l-4 -2q-1 0 -1 -0.5t-1 -0.5l-11 -20q-3 -5 -6 -9.5t-5 -6.5q-2 -3 -2.5 -6t-2.5 -6q-1 -7 -6.5 -14.5t-15.5 -31.5v-4l-3 -6q0 -3 -3 -11t-9 -25q-2 -2 -3 -4.5t-2.5 -9t-5 -18.5
t-9.5 -32l-3.5 -10.5t-11.5 -33.5q0 1 -4.5 -8.5t-10.5 -23.5t-12 -28.5t-9 -21.5l-3.5 -7l-3.5 -7l-57 -130l1 -1h-1l-2 -4v-1l-18 -48l-4 -11h-1q-1 0 -1 -3q0 -2 -1 -3t-3 -5t-6 -11.5t-11 -21.5l-2 -2q0 -1 -1 -1q-2 -2 -6 -6.5t-9 -9.5q-2 -2 -3 -2q-2 -2 -4.5 -4
t-7.5 -2q-1 0 -3 -0.5t-4 -0.5t-4.5 0.5t-11.5 0.5h-1h-2h-4q-2 0 -7 2t-15 4q-2 0 -4 1l-3 1l-5 4v1q0 3 2 5l1 1l2 2l6 1q3 2 5.5 4t10.5 8l1 1l1 1q0 2 2 2q1 2 2 3t2 3l2 4l7 16q0 2 1.5 4.5t4.5 11.5q1 2 1.5 3.5t1.5 2.5t1 1.5t1 1.5q2 8 3 11q0 1 0.5 3t2.5 7.5
t6.5 15.5t12.5 28q2 2 2 4.5t2 4.5q1 2 1 4q3 5 5.5 9.5t5.5 9.5q1 1 2.5 4.5t6 13.5t12 28.5t19.5 49.5q2 8 5 11l23 55q3 14 9 24t8 26q0 2 1 5t3 10t6 19.5t10 33.5q2 2 2 4t1 4q2 5 4 10.5t9 18.5l21 57q2 3 5 8t11 19q2 2 2 3t2 3h-5q-5 -2 -10 -3t-10 -3
q-2 -1 -14 -4.5t-40 -13.5q-3 0 -3 -3q-1 -4 -2 -11.5t-4 -12.5q0 -2 -2 -8.5t-4 -7.5q0 -2 -2 -6q-1 -1 -1 -2t-1 -2l-2 -4l-3 -6q-1 -4 -4 -8q-1 -1 -1.5 -2t-1.5 -2t-2 -3t-4 -4l-1 -3l-6 -6q1 -2 -2.5 -3.5t-13.5 -8.5q0 -1 -2 -1q0 -2 -3 -2q-4 -2 -6 -2q-4 -2 -7.5 -2
t-12.5 -3h-2q-1 0 -2 -1q-2 0 -3.5 -0.5t-2.5 -0.5v-1h-1q-5 -2 -13 2h-2l-4 2h-3l-33 16l-1 1l-1 1q-2 2 -4.5 5.5t-7.5 11.5q0 1 -1 1q-8 14 -10 27.5t-4 30.5l0.5 3.5t1.5 7t1.5 6l0.5 2.5l2.5 7.5l3.5 10.5v1q1 1 5 15q0 2 2 5q1 2 3 5.5t4 8.5v1q0 1 1 2l-1 1l6 8l2 3
q0 1 1 2q-1 1 2.5 6t18.5 31l5 5l21 15v1q2 1 6 1l2 1l2 2l10 3q2 1 7 1h1h2h2h1q1 -1 3 -1h3h2h3q2 0 7.5 -1.5t28.5 -9.5h1v-1q2 -3 1 -4l-2 -1v-1v-1l-4 -2q-1 -4 -4 -4q-6 -1 -10 -5q-1 0 -2 -1t-3 -1t-5.5 -4t-11.5 -10q-2 -2 -5 -6t-8 -13q-2 -3 -3.5 -6.5t-2.5 -5.5
q1 2 -1.5 -3.5t-6 -14t-8 -17t-6.5 -12.5v-1l-4 -18q0 -1 -0.5 -1t-0.5 -1v-2q0 -1 -1 -6t-8 -33v-4v-9v-1q-1 -2 -0.5 -6t3.5 -15q-2 -2 2 -4.5t10 -4t12 -2t9 2.5q6 0 10 1q1 1 4 1q2 1 4.5 2t6.5 4q1 0 1.5 1t2.5 2v1l23 30q1 1 1.5 2t4.5 8q4 8 8.5 21.5t2.5 21.5l-1 1
h-2h-2h-1q-2 0 -4.5 1t-7.5 6q-1 2 -9 10t-10 19q0 3 0.5 5.5t0.5 4.5q0 4 2 8q1 4 3 10t5 14q1 2 2 3q2 2 3.5 4t8.5 10h1q2 2 6 2h1h1h1h2q2 0 3.5 -2t6.5 -4q1 -2 3 -4q1 -2 2 -4.5t1 -4.5v-2.5t2 -9.5q1 -1 1 -5.5t1 -20.5q-1 -2 -1 -6q0 -2 -0.5 -9t-1.5 -8q0 -2 -1 -6
h1h1h1q1 0 3.5 0.5t10 3t21.5 7.5t39 14q3 2 9 4l20 32q0 2 3 5q3 1 4 4h1l27 28l21 15l4 2t5 2q2 2 6.5 3t14.5 5q2 0 3 0.5t2 0.5q8 2 12 2h6h1h4h19h1q7 -2 11 -3t11 -5q1 0 2 -1q1 0 1 -1l10 -11v-1h1q2 -6 4.5 -12t2.5 -11zM209 488q0 -1 0 5.5t-1 8.5v2l-1 1l-2 2
l-1 1q0 3 -7 0q1 0 -5 -5.5t-9 -19.5q-1 -2 -1 -4.5v-13.5v-5q2 -3 4 -5.5t8 -8.5l1 -1q1 -1 2.5 -2l4.5 -3q2 0 2.5 -0.5t1.5 -0.5l1 3q1 2 1 6t1 12v28zM486 521v3q-1 0 -1 1v2v1q0 4 -2.5 7.5t-12.5 14.5l-1 1q-6 3 -11 3h-3h-2h-1q-4 -1 -5.5 -2t-3.5 -2l-2 -2h-1h-1
q-2 -3 -3 -3q-3 -4 -6.5 -7t-6.5 -7q-5 -10 -11 -19q0 -1 -0.5 -1t-1.5 -1.5t-3.5 -5.5t-7.5 -13l-2 -4q0 -2 -2 -2q0 -1 -1 -1q2 0 4.5 0.5t4.5 0.5h1q1 0 2 1h1l5 2h1q-2 0 6.5 1.5t13.5 2.5q1 2 4.5 2t10.5 3l14 4q2 0 6.5 1.5t5.5 3.5q3 2 7 5t5 9v1z" />
    <glyph glyph-name="ampersand" unicode="&#x26;" horiz-adv-x="432" 
d="M498 542v-6l-1 -12v-1l-6 -49l-8 -19l-8 -22l-4 -11l-23 -38l-15 -17l-47 -44l-21 -15v-1q-2 -1 -4 -3q-4 -2 -11 -7t-32 -21l-17 -14l-25 -23q8 -1 11 -2.5t10 -4.5h-1q16 -2 29 -14.5t22 -30t14 -36.5t5 -33q0 -11 -3.5 -25.5t-9 -30.5t-12.5 -32t-15 -29
q-5 -10 -7 -12l-5 -5q-2 -2 -4 -5t-13 -14q-2 -1 -4.5 -3.5t-4.5 -3.5l-2 -2h-1q-4 -2 -6.5 -4.5t-5.5 -4.5q-1 -1 -6 -2t-11 -2t-11 -1.5t-6 -0.5q-2 0 -3 -0.5t-2 -0.5h-1h-10t-9 -1h-18.5t-18.5 2q-9 1 -17 2.5t-16 5.5h-3q-3 2 -7 3.5t-6 3.5q-15 6 -29 14t-28 17
q0 2 -1 2q-2 2 -3 4t-4 4l-1 2q0 2 -3.5 7.5t-8 11.5t-7.5 10.5t-3 6.5l-1 2q-6 6 -9.5 17.5t-4.5 24.5t-1 24.5v19.5v15v4v7.5t1 15.5t3 27q3 10 11 28.5t15 32.5q11 20 26.5 35t26.5 22q2 3 6 7.5t15 16.5l6 6t5 4q-1 3 -6 8.5t-10.5 11.5t-10.5 12t-6 12q0 4 -2 8
q-5 0 -12.5 2.5t-9.5 4.5q-5 2 -14 8q-1 0 -3 2l-11 10q-7 9 -8 11l-5 9l-4 19v9q0 8 2 18.5t4 18.5q3 12 9 19t10 11q0 1 1.5 1t7.5 1q1 -1 4.5 -2.5t4.5 -4.5v-1q0 -1 -3 -4q-2 0 -3 -1.5t-5 -3.5q-2 -2 -4 -5q-2 -2 -3.5 -5t-2.5 -6q-2 -12 -4.5 -18.5t-2.5 -13.5v-10.5
t6 -21.5q1 0 1 -1q0 -2 1 -2q8 -9 18 -16.5t18 -11.5q2 9 -1 16.5t-3 16.5q-2 5 0 7q0 3 1.5 6t2.5 7q0 1 5.5 10t12 18.5t11.5 16t4 4.5q2 2 2 3t2 2q0 1 3.5 4t8 6.5t8.5 7t5 4.5q3 3 8.5 5t7.5 6q30 20 64.5 28t71.5 -9q15 -7 36 -27q7 -6 20 -18t13 -28q-1 -15 -3 -31.5
t-5 -21.5l-7 -11q-3 -4 -10 -10t-16 -12.5t-18.5 -12t-16.5 -9.5q-6 -4 -10 -4q-2 -1 -11.5 -3t-14.5 -4t-6 -1.5t-5 -1.5h-4q0 -1 -1 -1h-4h-8.5t-12 0.5t-12.5 0.5h-8h-3h-2h-8q-2 0 -6 0.5t-9 1.5q5 -13 17 -26.5t21 -27.5q-8 -3 -9.5 -6t-8.5 -8l-5 -5l-8.5 -8.5
t-8 -8.5t-4.5 -5l-7.5 -7.5t-6.5 -9.5l-8.5 -8.5t-7.5 -8.5q1 4 -3.5 -3t-10.5 -16.5t-11 -18t-5 -7.5q0 -1 -1 -5t-2.5 -8.5t-2.5 -8.5t-2 -5q-1 -2 -1.5 -4t-1 -6t-0.5 -11.5t1 -20.5q0 -2 0.5 -3t0.5 -3l2 -10t1 -11q0 -2 1 -2.5t1 -2.5q2 -4 2 -10v-2q2 -1 2 -12.5
v-13.5t1.5 -7t4 -11t4.5 -10.5t3 -4.5l1 -3q7 -12 18 -22t23.5 -18t25.5 -13.5t24 -8.5q11 -4 17.5 -1t16.5 4q4 -1 12.5 3t13.5 4q1 0 2 1t2 1q2 2 3.5 4.5t3.5 2.5q0 1 1 2q2 2 3 2q11 12 18.5 27.5t16.5 30.5q8 20 12 42t4 34q0 14 -4 29.5t-11 28t-17 21.5t-23 9h-2
q-7 4 -17 4h-15t-11 -8l-7 -13l-1 -2l-1 1q-4 -9 -4 -21q0 -14 6 -25.5t16 -18.5l18 -10l19 -6l-3 -6l-6 -3l-6 -1l-9 2l-19 8l-5 4h-2q-11 6 -19 17.5t-10 25.5q0 9 -1 13v4q0 3 -1 4h1q0 14 7.5 27t21.5 24h1l30 28l7 8l35 27l36 22l19 13l17 12l33 33l9 8l7 9l24 40l8 23
l8 20l7 51l-2 37l-8 24l-13 20l-17 16l-20 13l-20 4l-2 3l5 9h1h5h10l14 -5l13 -7l25 -21l12 -17l4 -10l7 -21zM173 498q-8 -12 -12 -23t-4 -22.5t3.5 -25.5t11.5 -33h1h6q8 -1 13 -1t22 -2q2 -1 6.5 -1h6.5q2 1 7.5 0t17.5 1q8 2 19.5 5t16.5 5q5 1 13.5 5.5t18 9.5
t17.5 11t11 10q2 3 3 5.5t3 5.5l2 5q2 2 3 11.5t3 23.5q0 5 -2.5 16t-11.5 17l-26 23q-20 13 -44.5 15t-48.5 -9q-3 -3 -7 -5t-8 -6q-12 -8 -24 -21q-4 -3 -7 -6.5t-6 -6.5q-2 -5 -4 -7z" />
    <glyph glyph-name="quotesingle" unicode="'" horiz-adv-x="97" 
d="M56 525q5 0 7 -1q2 -2 2 -3.5t1 -3.5q0 -6 -1 -8t-1 -4.5t-1 -4.5q0 -2 -2.5 -6.5t-3.5 -6.5q-1 -5 -3 -8.5t-4 -7.5q-1 -2 -5 -6q-3 -3 -5 -3q-3 2 -3 4v7q0 3 -0.5 4t-0.5 4t0.5 7.5t0.5 7.5v8q0 2 -0.5 5.5t-0.5 5.5t-0.5 4.5t1.5 4.5z" />
    <glyph glyph-name="parenleft" unicode="(" horiz-adv-x="206" 
d="M161 548l8 2q1 -1 1 -5v-6q-27 -24 -33 -39q-4 -2 -6.5 -8.5t-5.5 -15.5q0 -6 -7 -22.5t-12 -43.5l-12 -104q0 -2 -0.5 -11t-0.5 -28v-50.5t-1 -78.5q2 -23 5 -47.5t14 -47.5q2 -4 5.5 -12t8.5 -18.5t11 -21t13 -19.5q0 -9 43 -45q-2 0 -2.5 -1t-2.5 -1q-9 5 -16.5 5.5
t-15.5 9.5q-5 0 -17 11.5t-24 25.5q-28 25 -44.5 44.5t-18.5 34.5q-14 19 -32 85l-5 65q0 25 2 52t6 51.5t8 44.5t9 31q6 18 10 29.5t8.5 21t9 19.5t12.5 25q10 15 25 26t17 11q2 3 5 6t8 4q16 21 27 21z" />
    <glyph glyph-name="parenright" unicode=")" horiz-adv-x="211" 
d="M48 -74l-8 -2q-1 1 -1 5v6q27 24 33 39q4 2 6.5 8.5t5.5 15.5q0 6 7 22.5t12 43.5l12 104q0 2 0.5 11t0.5 28v50.5t1 78.5q-2 23 -5 47.5t-14 47.5q-2 4 -5.5 12t-8.5 18.5t-11 21t-13 19.5q0 9 -43 45q2 0 2.5 1t2.5 1q9 -5 16.5 -5.5t15.5 -9.5q5 0 17 -11.5t24 -25.5
q28 -25 44.5 -44.5t18.5 -34.5q14 -19 32 -85l5 -65q0 -25 -2 -52t-6 -51.5t-8.5 -44.5t-8.5 -31q-6 -18 -10 -29.5t-8.5 -21t-9.5 -19.5t-12 -25q-10 -15 -25 -26t-17 -11q-2 -3 -5 -6t-8 -4q-16 -21 -27 -21z" />
    <glyph glyph-name="asterisk" unicode="*" horiz-adv-x="222" 
d="M180 483q5 -3 7 -3.5t7 -3.5v-1q-1 -1 -1 -2q-4 -2 -7 -4.5t-6 -4.5q-2 0 -2.5 -1.5t-1.5 -1.5q-4 2 -4 2.5t-2 1.5q-4 3 -5 3.5t-4 2.5q-2 1 -9.5 5t-12.5 6q-3 2 -6 4.5t-4 2.5v-4t-1 -7q-3 -8 -4.5 -16t-0.5 -19q-1 -3 -0.5 -4t0.5 -5v-10q-1 -1 -2 -1t-2 -2
q-4 -1 -6.5 -1t-5.5 -1q-2 1 -3.5 1t-3.5 1q0 3 1 4t1 6q2 8 2.5 15.5t0.5 16.5q0 4 -0.5 5t-0.5 5q0 5 0.5 6t-0.5 5q-6 6 -10 -2q-1 -1 -3 -2t-3.5 -2.5t-3.5 -2.5q-2 -2 -3.5 -2.5t-3.5 -2.5q-5 -5 -9.5 -10.5t-9.5 -10.5q-2 -3 -3 -4t-5 -3h-8q-1 1 -2 1q-1 4 -2 6t-2 5
q-1 0 -1 2q3 3 4.5 3.5t4.5 4.5q3 5 11 11t10 14q2 5 2 6t2 4l2.5 5t2.5 6q-1 0 -1.5 2.5t-2.5 2.5q-2 8 -10.5 10t-14.5 6q-4 4 -8 5.5t-7 6.5q-3 3 -5 8q-1 3 0 5q3 3 5 3q2 1 2.5 0.5t2.5 -0.5q3 0 5 -1q4 -2 5.5 -3.5t6.5 -3.5q0 -2 8.5 -6t13.5 -6q4 -1 10 -3
q3 -1 5 -1.5t5 0.5q1 1 3 8q2 2 2.5 4.5t2.5 4.5q4 11 3.5 18.5t1.5 14.5v5q0 2 -1 2.5t-1 1.5q4 2 5 4h9q3 1 6 1q1 0 2 -1q-2 -4 -1 -5t1 -5q-2 -2 -1 -3t-1 -6v-10.5t-1 -11.5q0 -3 3 -9q1 -3 1 -6t1 -3q1 -1 4 1l6 4q12 6 23 15q5 2 6 2.5t3 2.5q4 3 4.5 4.5t2.5 4.5
l1 1h1q2 -2 2.5 -4t2.5 -4q0 -3 4 -7l2 -2q-5 -4 -6 -5t-5 -4q-2 -3 -3 -3.5t-4 -3.5q-2 -1 -9.5 -7t-9.5 -8l-6 -6q-3 -4 -5.5 -5.5t-2.5 -3.5q0 2 10 -4.5t13 -9.5q4 -2 8.5 -6.5l6.5 -6.5q0 1 2 -1z" />
    <glyph glyph-name="plus" unicode="+" horiz-adv-x="300" 
d="M189 352v-3t0.5 -4t0.5 -9.5v-19.5v-16l0.5 0.5t4 0.5t11 -0.5t22.5 -2.5q17 -2 19.5 -3t6.5 -2q5 -2 7 -9t2 -10q-2 -2 -5.5 -2.5t-8.5 -0.5l-13 4q-3 1 -9.5 1.5t-15.5 -0.5q-9 2 -8 0t-4 -1l-10 -1q-2 -18 -1.5 -36t2.5 -27q-1 -7 -41 -2q0 -2 -10 -4.5t-20 4.5
q-3 1 -3 12v23t-0.5 22t-3.5 10q-26 0 -40.5 -0.5t-21 -0.5t-7.5 0.5t-1 2.5l1 19q0 2 12 2h12.5h20t18.5 0.5l8 0.5l-1 5q2 13 3.5 27.5t-0.5 18.5q-3 6 9.5 6t33.5 -2q2 0 7 0.5t10.5 1t9 0t3.5 -4.5z" />
    <glyph glyph-name="comma" unicode="," horiz-adv-x="99" 
d="M67 90v-3v-5q-1 -5 -2 -7.5t-3 -6.5q-2 -3 -3.5 -6t-2.5 -3q-2 0 -2.5 -0.5t-2.5 -0.5q-4 1 -4 2.5t-1 2.5q0 1 2 1q2 2 4 10q0 1 1 3.5t-1 3.5h-6h-3q-3 0 -5.5 3t-4.5 6q0 2 -0.5 7.5t-0.5 7.5q1 1 1 3q0 4 1 5v1q1 1 1 2q2 2 5 3q2 2 7 2.5t8 0.5q-1 -1 3.5 0.5
t4.5 -1.5q2 0 2 -1q2 -6 2 -5v-25z" />
    <glyph glyph-name="hyphen" unicode="-" horiz-adv-x="308" 
d="M249 253q-6 0 -17.5 -1t-44.5 0l-20 1h-16q-23 2 -46 1.5t-34 -1.5l-2.5 6.5t-4 15.5t-1.5 17.5t5 11.5q5 4 21 4.5t33 0t30.5 -1.5t14.5 1h7q8 0 19 -1t22 -1h19.5t11.5 1q8 2 7.5 -7t-2.5 -25q0 -2 1 -6t1.5 -7.5t0 -6t-4.5 -2.5z" />
    <glyph glyph-name="period" unicode="." horiz-adv-x="106" 
d="M33 110v4q0 2 3 5q5 3 10 2.5t10 -0.5h3q2 0 6 -4q4 -1 7 -5q1 -3 1 -9v-4q0 -6 -2 -10q-1 -1 -1 -2q-2 -3 -6.5 -4t-7.5 -1q-2 0 -5 -1t-7 -1h-1q-4 0 -6 2q-3 3 -3 6z" />
    <glyph glyph-name="slash" unicode="/" horiz-adv-x="511" 
d="M492 530l-1 -2q-6 -14 -12.5 -20t-23.5 -9l-21 -6q-10 -5 -17 -6t-21 -4h-2q-2 0 -8 -2q-2 0 -5 -1l-9 -3l-11 -21q-3 -5 -6.5 -10t-5.5 -7q-3 -7 -4 -12.5t-7 -11.5q-2 -2 -4.5 -7.5t-10.5 -27.5q0 -1 -0.5 -1.5t-0.5 -2.5l-3 -6q0 -2 -1 -5.5t-4.5 -14l-10 -30
t-16.5 -52.5q-1 -1 -2.5 -4.5t-6 -15l-13.5 -34.5t-25 -64q-1 -4 -6 -10l-3.5 -7l-3.5 -7l-11 -29l-3 -6q-1 0 -1 -1t-3 -8t-11.5 -26t-23 -54t-37.5 -91q-1 -2 -2 -5t-9 -16q-1 -4 -12.5 -15.5t-25.5 -18.5q-1 -1 -3 -1h-20h-2h-1h-5q-2 0 -7 2t-19 5l-3 1l-5 5q0 2 2 6
l1 1q1 0 2 1l6 2q2 0 4 2q-2 -1 1 1t6.5 5t7.5 7t5 7q1 1 3 5.5t13 30.5q2 2 9 21.5t21 53.5q2 2 2.5 5t1.5 5l2 4q2 5 5 9.5t5 9.5q2 4 4.5 7t4.5 7v1q1 -2 4.5 10.5t17.5 46.5q2 5 3.5 9t3.5 8q1 3 2.5 6.5t4.5 11t9 21.5t16 37l2 8t3 9.5t4.5 13.5t7.5 21q0 3 2 9
q1 3 3 7l1 5q0 1 0.5 3.5t3.5 11t9 25t17 45.5l4 15q0 4 3 9q0 1 2 6t14 29q2 2 4 6t9 15v1q2 2 2 4q3 4 4.5 6.5t3.5 7.5t6 13.5t12 23.5q4 5 5 7t2.5 4t5.5 7.5t14 17.5q3 1 4 4q1 1 2.5 1.5t7.5 4.5l5 4q7 8 17 10q2 2 10 5q2 1 6 2.5t15 4.5q4 2 5 2q5 2 11 1.5t23 1.5
h7t4.5 -0.5t6.5 -2t13 -4.5q2 0 4 -3.5t10 -12.5v-1h1q2 -5 4 -11.5t2 -11.5v-3zM473 537v3q0 1 -0.5 5t-14.5 15q-4 3 -9 2.5t-18 -2.5l-2 -2t-5 -4q-3 -3 -6 -4.5t-6 -5.5q-3 -5 -5.5 -10t-6.5 -10q-1 -2 -1 -3t-11 -18l-4 -8q6 2 8 2q1 0 5.5 2t31.5 6l20 7q3 1 6.5 3
t5.5 4q3 2 7 6.5t5 10.5v1z" />
    <glyph glyph-name="colon" unicode=":" horiz-adv-x="123" 
d="M43 100v4q0 1 0.5 3t0.5 4v4v5q10 1 12.5 1.5t10.5 0.5h3q2 0 6 -4q6 -1 7 -6q2 -7 1 -12.5t-3 -12.5q-2 -2 -5 -3q-9 -3 -18 -3q0 -1 -1 -1h-3h-1q-9 2 -9 8t-1 9v3zM51 168q-4 0 -4 1q-2 5 -1.5 10.5t0.5 10.5v1q0 1 0.5 1t0.5 1q0 3 4.5 6t6.5 6q4 0 7 -0.5t6 0.5h2
q2 0 4 -2t5 -2q3 -3 3 -5q2 -8 1.5 -13.5t-3.5 -13.5v-1q-3 -1 -4 -1.5t-2 -0.5z" />
    <glyph glyph-name="semicolon" unicode=";" horiz-adv-x="116" 
d="M59 165h-2q-1 0 -1 1q-4 0 -10 2h-3q-5 0 -5 1q-3 8 -0.5 8.5t0.5 4.5q2 1 1 4t-1 5v4q0 2 2 3t4 3q2 4 6 6h11h2h2h3q2 0 3.5 -1.5t2.5 -1.5q0 -1 1 -1h3q2 0 2 -5q2 -6 1 -11q1 -4 0 -8v-1q0 -1 0.5 -2t0.5 -2h-1q0 -4 -1 -4v-2q-5 -1 -5.5 -1.5t-1.5 -0.5q-2 0 -5 0.5
t-4 -1.5h-5zM80 100v-3q0 -2 -0.5 -4t-0.5 -3v-4q0 -4 -1 -5q0 -2 -0.5 -2.5t-0.5 -1.5q1 -2 0.5 -2.5t-0.5 -1.5q-1 -3 -4 -6v-3l-5 -2q0 -3 -4 -3l-2 -2q-2 1 -3 1q-1 1 -1 3v1q0 1 1 2q1 0 1 4q3 1 4 5v6v2h-6h-3q-8 0 -10 2q-6 1 -7 6q-1 2 -1 8v4v4v2q0 1 0.5 2t0.5 2
l1 1q0 1 0.5 1t0.5 2q2 2 5 3q2 1 11 1q2 1 8 1h1q1 0 1.5 0.5t1.5 0.5h2q2 0 4 -2h2q2 -6 2 -5q0 -7 2 -9v-5z" />
    <glyph glyph-name="less" unicode="&#x3c;" horiz-adv-x="237" 
d="M175 161q-3 2 -6 3.5t-5 3.5q-5 5 -12.5 12t-11.5 10l-1 1q-5 3 -8.5 6.5l-8.5 8.5q-1 0 -5 4q-3 3 -9.5 8.5t-14 12t-13.5 11.5t-8 6l-3 3l-3.5 3.5t-3.5 2.5q-2 2 -4.5 4t-4.5 4q-2 3 -1 5v1q2 3 8 13t7 13q2 3 8 11q2 2 3 4l6 9q3 5 5.5 9t5.5 9q0 1 0.5 1t0.5 1
q2 1 6.5 7.5t9 14t8.5 13.5t4 8q2 4 5 7t5.5 9t6.5 10q2 2 4 6t4 4h3q5 -3 16 -6.5t14 -5.5q1 -1 5 -3.5t7.5 -5.5t6.5 -5.5t3 -4.5v-1v-2q0 -2 -2 -2q-1 0 -1.5 -1t-1.5 -1q-5 -2 -9 -6q-5 -8 -12 -17q-3 -5 -8.5 -13t-7.5 -11q-2 -2 -2 -3t-2 -2q-2 -3 -6 -8.5t-8.5 -11.5
t-7.5 -11t-4 -6q-2 -2 -2.5 -3.5t-2.5 -2.5q0 -1 -3 -5t-7 -9t-8 -9l-5 -5h1q2 -3 5 -5t7 -5q4 -2 4 -5q1 -3 6.5 -7.5t11.5 -9t11 -9t6 -6.5q8 -3 16 -12t11 -14l2 -2l5 -5q3 0 1 -4q0 -2 -5 -5.5t-6 -4.5q-1 -3 -4 -4h-1z" />
    <glyph glyph-name="equal" unicode="=" horiz-adv-x="447" 
d="M293 323q-6 0 -17.5 -1t-44.5 0l-20 1h-16q-23 2 -46 1.5t-34 -1.5l-2.5 6.5t-4 15.5t-1.5 17.5t5 11.5q5 4 21 4.5t33 0t30.5 -1.5t14.5 1h7q8 0 19 -1t22 -1h19.5t11.5 1q8 2 7.5 -7t-2.5 -25q0 -2 1 -6t1.5 -7.5t0 -6t-4.5 -2.5zM293 229q-6 0 -17.5 -1t-44.5 0l-20 1
h-16q-23 2 -46 1.5t-34 -1.5l-2.5 6.5t-4 15.5t-1.5 17.5t5 11.5q5 4 21 4.5t33 0t30.5 -1.5t14.5 1h7q8 0 19 -1t22 -1h19.5t11.5 1q8 2 7.5 -7t-2.5 -25q0 -2 1 -6t1.5 -7.5t0 -6t-4.5 -2.5z" />
    <glyph glyph-name="greater" unicode="&#x3e;" horiz-adv-x="272" 
d="M83 416q3 -2 6 -3.5t5 -3.5q5 -5 12.5 -12t11.5 -10l1 -1q5 -3 8.5 -6.5l8.5 -8.5q1 0 5 -4q3 -3 9.5 -8.5t14 -12t13.5 -11.5t8 -6l3 -3l3.5 -3.5t3.5 -2.5q2 -2 4.5 -4t4.5 -4q2 -4 1 -5v-1q-2 -3 -8 -13t-7 -13q-2 -3 -8 -11q-2 -2 -3 -4l-6 -9q-3 -5 -5.5 -9t-5.5 -9
q0 -1 -0.5 -1t-0.5 -1q-2 -1 -6.5 -7.5t-9 -14t-8.5 -14t-4 -7.5q-2 -4 -5 -7t-5.5 -9t-6.5 -10q-2 -2 -4 -6t-4 -4h-3q-5 3 -16 6.5t-14 5.5q-1 1 -5 3.5t-7.5 5.5t-6.5 5.5t-3 4.5v1v2q0 2 2 2q1 0 1.5 1t1.5 1q4 1 9 6q5 8 12 17q3 5 8.5 13t7.5 11q2 2 2 3t2 2
q2 3 6 8.5t8.5 11.5t7.5 11t4 6q2 2 2.5 3.5t2.5 2.5q0 1 3 5t7 9t8 9l5 5h-1q-2 3 -5 5t-7 5q-4 2 -4 5q-2 3 -7 7.5t-11 9t-11 9t-6 6.5q-8 3 -16 12t-11 14l-2 2l-5 5q-3 0 -1 4q0 2 5 5.5t6 4.5q1 3 4 4h1z" />
    <glyph glyph-name="question" unicode="?" horiz-adv-x="366" 
d="M326 425q4 -15 0 -31v-12q-1 -6 -1.5 -12.5t-1.5 -12.5q0 -2 -2 -4q-2 -5 -4 -10.5t-3 -10.5q-1 -8 -5 -17q-2 -6 -7 -12l-1 -1q-3 -3 -5 -7q0 -6 -9 -14.5t-12 -12.5q-2 -2 -10 -11t-13 -12q-13 -8 -30 -24t-32 -31q-8 -8 -18 -16l-20 -16q-5 -5 -5.5 -9t-5.5 -6
q-1 -1 -1 -2h-1q0 -1 1 -1q-2 -2 -3 -5t-3 -6q-2 -5 -3.5 -11.5t-1.5 -4.5q-1 -3 -0.5 -5t-1.5 -4v-4q2 -5 2.5 -9.5t3.5 -9.5q2 -3 3.5 -6t3.5 -4l4 -3l2 -2h3l4 -2q-1 -2 -4 -7t-5 -6q-1 -2 -3 0q-1 1 -2 3q-2 0 -2 1t-1 1q-2 2 -7 4t-7 6q-1 0 -1 1l-1 1l-2 1
q-2 2 -2.5 3.5t-2.5 3.5v1q-5 14 -6 31.5t1 26.5q1 2 1 4q1 4 2.5 6t3.5 5q2 4 4.5 7t4.5 7q2 2 3 3.5t2 2.5q5 5 7 9q4 10 14 20q4 5 8.5 11t9.5 12q4 2 15.5 16t24 31t22.5 31t11 16q2 4 3 7.5t3 5.5q2 4 3 7t2 7q2 2 2 4t1 4q1 6 2.5 19t3 27t2.5 25t0 12l-9 47
q-3 11 -10 20q-1 2 -1.5 3.5t-1.5 3.5q-1 1 -3 4q-1 0 -2.5 3t-2.5 3q-5 4 -19.5 15t-26.5 17q-8 3 -16 5t-18 2q-5 0 -10.5 -0.5t-10.5 -1.5q-7 -2 -13 -4l-12 -4q-1 -1 -1.5 -1t-1.5 -1t-2 -1l-7 -3.5t-6 -3.5q-7 -8 -13.5 -14.5t-13.5 -14.5q-1 -2 -3.5 -5t-3.5 -6
q-2 -2 -2 -5q-5 -4 -5.5 -15.5t-3.5 -15.5q-2 -12 -2.5 -22t1.5 -19q1 -2 3 -11t3 -12q2 -4 4 -13.5t4 -9.5l5 -13q1 -2 3.5 -6.5t6 -9.5t6.5 -9t5 -5q4 -6 6 -6t-3 -7t-4 -9t-1.5 0.5l-3.5 3.5q0 1 -6.5 6.5t-7.5 7.5q-2 3 -6.5 10t-10 15t-9.5 15.5t-4 11.5
q-6 9 -7.5 26.5t-1 35.5t2.5 33t4 20t3.5 9t4.5 9l4 8q2 3 4.5 6t5.5 6q5 6 10 12.5t11 10.5q15 15 33 22q5 0 9 4q4 2 7.5 2.5t7.5 2.5q5 0 9.5 1t9.5 2q2 1 5 1h16q2 0 4 -0.5t4 -0.5q16 -2 29 -6q5 0 7.5 -1.5t6.5 -3.5q1 -1 3 -1q35 -14 54.5 -31.5t29 -35t11.5 -33.5
t3 -27v-3q1 -5 1.5 -10.5t1.5 -11.5zM187 -21v-6q0 -9 -3 -13q-2 -2 -3 -2q-1 -3 -6 -5q-3 -2 -5 -3l-4 -2q-1 0 -11.5 -1t-13.5 0q-1 1 -1.5 1t-1.5 1q-2 1 -3 1t-3 1q-3 1 -3 6q-2 2 -2 9t1 14.5t3 13.5t5 7h2q1 1 2 1.5t2 1.5q2 2 4 1q3 0 6 1t4 1q3 1 6 0t5 -2t3.5 -2
t3.5 -2v-1q2 -3 4 -5.5t4 -4.5q1 0 2.5 -4.5t2.5 -6.5z" />
    <glyph glyph-name="at" unicode="@" horiz-adv-x="632" 
d="M579 268q0 -2 0.5 -2t0.5 -2l-9 -47l-13 -61l-10 -22q-5 -9 -16 -27t-24 -36.5t-27 -33.5t-26 -18q-8 -3 -14 -6.5t-14 -4.5l-4 -2q-15 -5 -35 -2q-4 2 -8 3.5t-9 3.5q-3 2 -5.5 4.5l-4.5 4.5q-4 6 -7 9q-6 8 -6 15t-5 15l-5 6q-4 6 -9 4q-11 -4 -22 -4.5t-22 -0.5
q-13 -1 -19 2.5t-16 8.5q-8 4 -15 9l-14 10q-18 14 -20 23.5t-7 18.5q-4 9 -5 16q-2 11 -0.5 20.5t-0.5 20.5q-2 15 -1 22.5t2 22.5q0 18 4.5 35.5t12.5 34.5q4 10 5.5 15t3 8t4.5 7t11 12q3 2 6.5 6.5t6.5 6.5q5 2 8.5 5.5t8.5 5.5q11 5 17 7t17 5q7 2 13.5 1.5t13.5 -5.5
q8 -5 10 -5.5t10 -5.5q4 -2 7.5 -5.5t8.5 -6.5l4 -2q2 2 2 3q3 5 5.5 10.5t4.5 10.5l3 5q5 6 6 7t7 5q7 5 15 8.5t16 5.5q6 3 21 2t26 -4q8 -4 9 -12q2 -6 -4 -10q-8 -5 -14 -12.5t-12 -15.5t-7 -12.5t-4 -15.5q-2 -6 -3.5 -13t-3.5 -13v-2q-4 -17 -4 -26.5t-2 -20.5l-5 -38
q-1 -9 -1.5 -10.5t-0.5 -10.5l-2 -57q-2 -25 4 -49q2 -6 3 -13t6 -13q2 -5 10 -8q2 -1 8 -3q5 0 9 -1t9 3q30 26 46 53.5t22 43.5q2 2 2.5 5t2.5 6q1 4 3 8q0 -1 2.5 10t5.5 27t5.5 34t3.5 30v32q0 73 -57 136q-13 9 -31 17t-37 14l-26 5q-2 0 -3 0.5t-3 0.5h-2
q-2 0 -3.5 0.5t-3.5 0.5q-8 2 -16.5 2t-31.5 1l-35 -3h-4t-3 -1q6 2 -1 0t-19 -5.5t-26.5 -9t-23.5 -9.5q-2 2 -9.5 -3t-18.5 -13l-28 -19q-3 -2 -6.5 -4.5t-17.5 -15.5l-12 -15l-15 -18l-14 -24l-8 -17q-2 -2 -2 -5.5t-4 -13.5l-3 -7l-11 -54l4 -73l10 -36
q5 -19 14.5 -36.5t24.5 -43.5q0 -2 3 -5t13 -14l13 -13l14 -17l32 -24l57 -30l29 -8q1 0 1 -1t2 -1l12 -3h5t6 -1h2q6 0 15 -1t15 -1h3h11l28 2l76 14l23 8l18 10q4 5 7 5q4 0 6.5 -2t13.5 -8q5 -5 -13 -14l-20 -13l-22 -10l-70 -12l-43 -4l-60 5l-46 12l-54 25q-9 8 -16 11
t-20 14l-25 20l-8 9l-30 38l-18 31q0 1 -3.5 7.5t-6.5 15.5l-15 34q0 1 -0.5 3t-1.5 7.5t-3 16t-6 29.5l-2 36l4 34v4l8 30l8 25l3 10l5 9l26 44l19 22q2 2 9 8t7 8l8 9l46 32h1l7 3.5t28 12.5q-2 -1 0.5 0.5t6.5 3l8 3t7 1.5q2 1 6.5 1.5t24.5 5.5q2 1 5 2t5 1t6.5 0.5
t18.5 4.5h25h16.5t25.5 -0.5t24.5 -1.5t14.5 -3q4 0 6 -2l66 -26q2 0 4 -2.5t4 -2.5q71 -70 71 -174v-22zM350 317q2 11 1.5 14t-6.5 13q-2 3 -8 7q-8 7 -12 9.5t-14 5.5q-5 0 -8 -4q-8 -11 -9 -21t-8 -23q-3 -5 -5 -12.5t-4 -12.5l-9 -32q-8 -22 -10 -51.5t3 -53.5
q1 -4 2 -15t3 -14q5 -5 5.5 -10t5.5 -10q11 -8 20 -12.5t21 -6.5q3 -1 4.5 -2t5.5 0q6 2 5 6q-2 5 -1.5 9.5t1.5 9.5q2 9 0.5 25.5t-0.5 27.5q2 8 1.5 14.5t0.5 13.5q2 8 2.5 8.5t1.5 8.5l3 19l2 25l2 19q0 26 4 45z" />
    <glyph glyph-name="bracketleft" unicode="[" horiz-adv-x="324" 
d="M248 642q5 -2 8 -10.5t3 -13.5q0 -2 -13 -1t-31 -3q-8 -1 -17.5 -1t-21.5 -2v-2q-2 -6 -1.5 -18.5t2 -25t3 -23t1.5 -13.5q0 -2 -0.5 -19t-1 -41.5t-1 -52t-1 -51.5t-1 -40.5t-0.5 -17.5v-30q0 -14 -3 -26q0 -9 -1.5 -25.5t-3.5 -33.5t-3.5 -30.5t-0.5 -16.5
q-2 -8 -3 -22.5t-2 -28.5t-1.5 -25.5t-0.5 -13.5q0 -6 1 -11.5t-1 -10.5q0 -6 1 -12t-1 -11q14 1 22.5 1h15.5h10.5t11.5 2q21 4 30 4.5t11 -1t0.5 -4t-1.5 -5.5q-1 -24 -11 -24q-16 2 -28.5 0t-20.5 -2q-12 -2 -16 -2.5t-17 -1.5q-7 0 -11 -0.5t-7 -0.5h-6.5h-9.5
q-7 0 -11 -0.5t-7 -1l-6 -1t-9 -0.5q-5 2 -9.5 4t-4.5 7q0 6 1 12.5t1 13.5t0.5 13t0.5 14q-2 4 -1.5 20t1.5 34q1 21 2 46q0 5 1 21.5t1.5 34.5t1.5 34t1 19q0 7 -1 14t-1 14t-0.5 14t-0.5 14q0 6 -1 13t-1 13q1 3 2 18t1.5 36t0.5 44.5t1 43.5t2.5 33.5t3.5 15.5
q0 8 0.5 14t0.5 13q1 14 0.5 27t-3.5 27q-1 8 -2.5 21t-2.5 19q0 5 3.5 1.5t9.5 -3.5q17 -3 27.5 -1t15.5 2t19.5 1t30.5 3q9 2 24 -0.5t26 -0.5z" />
    <glyph glyph-name="backslash" unicode="\" horiz-adv-x="487" 
d="M6 530q0 5 2 11.5t4 11.5h1v1q8 9 10 12.5t4 3.5q9 3 13 4.5t6.5 2t4.5 0.5h7q17 -2 23 -1.5t11 -1.5q1 0 5 -2q11 -3 15 -4.5t6 -2.5q8 -3 10 -5q10 -2 17 -10l5 -4l10 -6q1 -3 4 -4q10 -12 14 -17.5t5.5 -7.5t2 -4t5.5 -7q7 -15 11.5 -23.5t6.5 -13.5t3.5 -7.5
t4.5 -6.5q0 -2 2 -4v-1l13 -21q12 -24 14 -29t2 -6q3 -5 3 -9l4 -15q10 -29 16 -45.5t9 -25t4 -11t1 -3.5l1 -5l3 -7q2 -6 2 -9q4 -13 7 -21t5 -13.5t3 -9.5l2 -8q10 -23 16 -37t9 -21.5t4 -11t3 -6.5q2 -4 3.5 -8t3.5 -9q14 -34 17.5 -46.5t4.5 -10.5v-1l9 -14q2 -5 5 -9.5
t5 -9.5l2 -4q1 -2 1.5 -5t2.5 -5q14 -34 21 -53.5t9 -21.5q11 -26 13 -30.5t3 -5.5q1 -3 5 -7t7.5 -7t6 -5t1.5 -1q2 -2 4 -2l6 -2l2 -1q0 -1 1 -1q2 -4 2 -6l-5 -5l-3 -1q-14 -3 -19 -5t-7 -2h-5h-1h-2h-20q-2 0 -3 1q-14 7 -25.5 18.5t-12.5 15.5q-8 13 -9 16t-2 5
q-23 56 -37.5 91t-23 54t-11.5 26t-3 8l-1 1l-3 6l-11 29l-7 14q-5 6 -6 10q-16 41 -25 64l-13.5 34.5t-6 15t-2.5 4.5q-11 33 -17 52.5t-9.5 30t-4.5 14t-1 5.5l-3 6q0 2 -0.5 2.5t-0.5 1.5q-8 22 -10.5 27.5t-4.5 7.5q-6 6 -7 11.5t-4 12.5l-12 17l-11 21l-9 3q-3 1 -5 1
q-6 2 -8 2h-2q-14 3 -21 4t-17 6l-21 6q-17 3 -23.5 9t-12.5 20l-1 2v3zM25 537v-3v-1q1 -6 5 -10.5t7 -6.5q2 -2 5.5 -4t6.5 -3l20 -7q27 -4 31.5 -6t5.5 -2q2 0 8 -2l-4 8q-11 17 -11 18t-1 3q-4 5 -6.5 10t-5.5 10q-3 4 -6 5.5t-6 4.5l-7 6q-13 2 -18 2.5t-9 -2.5
q-14 -11 -14.5 -15t-0.5 -5z" />
    <glyph glyph-name="bracketright" unicode="]" horiz-adv-x="305" 
d="M56 -28q-5 2 -8 10.5t-3 13.5q0 2 13 1t31 3q8 1 17.5 1t21.5 2v2q2 6 1.5 18.5t-2 25t-3 23t-1.5 13.5q0 2 0.5 19t1 41.5t1 52t1 51.5t1 40.5t0.5 17.5v30q0 14 3 26q0 9 1.5 25.5t3.5 33.5t3.5 30.5t0.5 16.5q1 8 2.5 22.5t2.5 28.5t1.5 25.5t0.5 13.5q0 6 -1 11.5
t1 10.5q0 6 -1 12t1 11q-14 -1 -22.5 -1h-15.5h-10.5t-11.5 -2q-21 -4 -30 -4.5t-11 1t-0.5 4t1.5 5.5q1 24 11 24q16 -2 28.5 0t20.5 2q12 2 16 2.5t17 1.5t17.5 0.5t16.5 0.5q13 1 17.5 2t15.5 1q5 -2 9.5 -4t4.5 -7q0 -6 -1 -12.5t-1 -13.5t-0.5 -13t-0.5 -14
q1 -5 1 -20.5t-1 -33.5q-1 -21 -2 -46q0 -5 -1 -21.5t-1.5 -34.5t-1.5 -34t-1 -19q0 -7 1 -14t1 -14t0.5 -14t0.5 -14q0 -6 1 -13t1 -13q-1 -3 -2 -18t-1.5 -36t-0.5 -44.5t-1 -43.5t-2.5 -33.5t-3.5 -15.5q0 -8 -0.5 -14t-0.5 -13q-1 -14 -0.5 -27t3.5 -27q1 -8 2.5 -21
t2.5 -19q0 -5 -3.5 -1.5t-9.5 3.5q-17 3 -27.5 1t-15.5 -2t-19.5 -1t-30.5 -3q-9 -2 -24 0.5t-26 0.5z" />
    <glyph glyph-name="asciicircum" unicode="^" horiz-adv-x="416" 
d="M174 614q-3 2 -10.5 5t-5.5 9q1 2 6.5 1.5t7.5 1.5q1 0 5 2l2 1l6 1q1 0 2.5 1t3.5 2t5 2q5 3 9 8.5t14 17.5q4 2 5.5 11.5t3.5 12.5v1q2 2 3.5 5.5t3.5 5.5t3 1t3 0q4 3 8 -1q1 -1 3 -5v-3q1 -2 2 -5t2 -5l2 -4l2 -4t2 -5l2 -6q1 -2 7.5 -10t8.5 -10q7 -5 17 -3
q2 0 2 -5.5t-1 -8.5t1 -5t1 -4q-3 -6 -7 -6q-5 -2 -9 0q-7 0 -10 1q-4 2 -9 7l-8 8q-2 2 -3 4t-3 4t-3 4.5t-3 4.5t-2 3t-2 3l-2 4l-4 1h-2q-2 -3 -3 -3q-1 -2 -2 -3.5t-2 -5.5q0 -2 -4 -4.5t-5 -4.5t-7 -6.5t-14 -9.5q-4 -3 -11 -3.5t-11 -2.5z" />
    <glyph glyph-name="underscore" unicode="_" horiz-adv-x="532" 
d="M445 -196h-14h-21.5h-34.5h-55h-40h-34q-49 2 -94.5 1.5t-67.5 -1.5q-20 0 -6 24q-2 0 -5.5 2t-5.5 4.5t0 5.5t11 6q4 1 20 1t33 -0.5t31 0t14 2.5q49 1 74 2t30 -2h13q16 0 38.5 -0.5l45 -1t40 -0.5t22.5 1q16 2 15.5 -5t-4.5 -21q-1 -2 1.5 -5t4 -6t0 -5t-10.5 -2z" />
    <glyph glyph-name="grave" unicode="`" horiz-adv-x="186" 
d="M70 655q-2 4 -2 8q-2 4 -2 9q1 2 1 4t1 5q0 7 7.5 15.5t12.5 11.5q2 2 3.5 -1.5t3.5 -6.5q1 -2 1 -1.5t2 -2.5q1 -2 1.5 -4t2.5 -4q1 -2 2.5 -4.5t2.5 -4.5l5.5 -11t4.5 -11q1 -3 5 -7q-1 -3 4.5 -11t6.5 -13q2 -5 -5 -9.5t-10 -6.5q-5 -2 -7 0q-3 3 -5 7q-3 3 -6.5 6
t-6.5 6t-9 8.5t-10 10.5q-2 2 -2 3.5t-2 3.5z" />
    <glyph glyph-name="braceleft" unicode="{" horiz-adv-x="296" 
d="M224 -17q2 -4 -3 -4h-13h-15q-5 0 -6 -2q-2 0 -4 1t-4 -1h-1q-1 2 -4 1t-5 1t-4.5 1.5t-4.5 -0.5q-2 1 -5 1t-6 2q-5 2 -10.5 5t-8.5 8q-3 0 -4 1.5t-3 3.5q-2 7 -5 8q-4 4 -9 7t-7 8q-2 1 -2 2t-1 2q-4 6 -7.5 22.5t-3.5 27.5q0 4 -1 7t1 6q-2 11 2 18.5t2 18.5
q4 8 4 14q-2 4 -3 6.5t-1 6.5q2 1 2 6q1 1 1.5 12t1 24t0 23.5l-0.5 10.5q0 7 -4 17q-2 7 -3.5 12.5t-3.5 11.5q-3 5 -4.5 5.5t-6.5 5.5q-6 6 -18 11q0 1 -1 1q-2 2 -8 6l-9 6q-2 1 -1 5.5t0 6.5q0 2 -1 2v3q3 5 7 7t9 4q0 1 1 1t2 1q7 0 10 3q4 2 5 5q7 7 10 18
q1 3 1.5 7.5t1.5 9.5q2 2 2 10q1 3 1 7t2 8v4q1 2 1 8v13v13v8v15.5t0.5 29t1 28t1.5 12.5q2 4 2 8v7q-2 5 -0.5 10t3.5 10t12.5 17.5t15.5 19.5l4 4t3 4t2.5 3.5t2.5 3.5q3 2 8.5 2.5t9.5 2.5q6 5 15 7t17 2q6 0 10 1h6q4 0 5 -1q10 -2 17 -3t15 -6l-3 -5l-8 -2q-5 2 -18 2
h-3h-1q-1 0 -1.5 -1t-2.5 -1q-4 -1 -6.5 -2t-6.5 -2q-2 -3 -4.5 -6.5t-6.5 -5.5q-3 0 -5 -5.5t-4 -12.5t-4 -13.5t-4 -8.5v-5v-8.5t-1 -8.5t-1 -9v-10v-6q0 -1 1 -13t2 -26.5t2 -27t1 -14.5v-14v-9v-14q0 -7 -0.5 -11.5t-2.5 -10.5q-1 -6 -3.5 -11.5t-4.5 -12.5
q-2 -2 -3.5 -4.5t-2.5 -4.5q-2 -8 -6 -10q-2 -2 -2.5 -3.5t-1.5 -3.5q-4 -3 -5.5 -4t-2.5 -3q2 -2 3 -5t5 -5q6 -8 9 -11l3.5 -3.5t1.5 -2.5q2 -2 2 -4.5t2 -3.5q2 -5 3 -9l2 -8q1 -6 2.5 -12t3.5 -11q1 -2 1 -5t2 -6q0 -3 -1 -6.5t1 -7.5q1 -3 1 -13t-0.5 -21.5t-1.5 -22.5
t-2 -15q0 -7 -2 -10q0 -4 -0.5 -8t-2.5 -9q1 -8 -2 -15.5t-1 -15.5q-1 -2 0 -14t2.5 -25.5t4 -25t4.5 -12.5q2 -2 4 -4.5t3 -5.5q1 -2 1.5 -2t2.5 -1q0 -1 1 -1.5t1 -1.5q3 -2 4 -2q4 0 7 -1t8 -1q2 0 4 -1.5t6 -1.5q5 2 11 -4v-4z" />
    <glyph glyph-name="bar" unicode="|" horiz-adv-x="234" 
d="M166 738q-2 -7 -3 -12q-1 -2 -1 -4.5v-4.5q0 -3 -1 -4q2 -8 0.5 -21t-0.5 -22q2 -8 2.5 -25t0.5 -34v-31v-17q1 -11 1 -19.5t2 -16.5q-1 -12 -2 -37.5t-1.5 -53t-0.5 -49.5v-26v-11t-0.5 -7.5t-0.5 -7.5v-11q0 -9 -0.5 -30t-1.5 -43.5t-2 -40.5t-1 -21q-1 -9 -2 -17
l-2 -16q-1 -10 -2 -31t-2 -42.5t-1.5 -39t-0.5 -20.5q0 -17 0.5 -30t-0.5 -29q0 -8 0.5 -14.5t-0.5 -13.5q3 -15 0.5 -21t-7 -6.5t-9 1t-7.5 1.5q-11 -1 -14.5 -1.5t-12.5 -0.5q-12 2 -12 13q0 8 0.5 16.5t0.5 16.5v66q0 4 0.5 21.5t1.5 38.5t1.5 40t-0.5 26q1 7 1 15t1 17
q1 10 1.5 31.5t-0.5 44t-1.5 40.5t-0.5 22q0 9 -0.5 17t-0.5 16q0 10 0.5 37t1.5 55.5t1.5 51.5t0.5 26q0 8 1 16.5t0 16.5q1 8 2 23.5t1.5 32t0.5 30v16.5q-1 10 -1 17.5v15.5q-2 10 -3 26.5t-2 23.5q0 7 3.5 2t8.5 -5q14 -2 22 0t12 2z" />
    <glyph glyph-name="braceright" unicode="}" horiz-adv-x="280" 
d="M51 634q-2 4 3 4h13h15q5 0 6 2q2 0 4 -1t4 1h1q1 -2 4 -1t5 -1t4.5 -1.5t4.5 0.5q2 -1 5 -1t6 -2q5 -2 10.5 -5t8.5 -8q3 0 4 -1.5t3 -3.5q2 -7 5 -8q4 -4 9 -7t7 -8q2 -1 2 -2t1 -2q4 -6 7.5 -22.5t3.5 -27.5q0 -4 1 -7t-1 -6q2 -11 -2 -18.5t-2 -18.5q-4 -8 -4 -14
q2 -4 3 -6.5t1 -6.5q-2 -1 -2 -6q-1 -2 -1.5 -12.5t-1 -23.5t0 -23.5l0.5 -10.5q0 -7 4 -17q2 -7 3.5 -12.5t3.5 -11.5q3 -5 4.5 -5.5t6.5 -5.5q6 -6 18 -11q0 -1 1 -1q2 -2 8 -6l9 -6q2 -1 1 -5.5t0 -6.5q0 -2 1 -2v-3q-3 -5 -7 -7t-9 -4q0 -1 -1 -1t-2 -1q-7 0 -10 -3
q-4 -3 -5 -5q-7 -7 -10 -18q-1 -3 -1.5 -7.5t-1.5 -9.5q-2 -2 -2 -10q-1 -3 -1 -7t-2 -8v-4q-1 -2 -1 -8v-13v-13.5v-7.5v-15.5t-0.5 -29t-1 -28t-1.5 -12.5q-2 -4 -2 -8v-7q2 -5 0.5 -10t-3.5 -10t-12.5 -17.5t-15.5 -19.5l-4 -4t-3 -4t-2.5 -3.5t-2.5 -3.5
q-3 -2 -8.5 -2.5t-9.5 -2.5q-6 -5 -15 -7t-17 -2q-6 0 -10 -1h-6q-4 0 -5 1q-10 2 -17 3t-15 6q2 5 3 5l8 2q5 -2 18 -2h3h1q1 0 1.5 1t2.5 1q4 1 6.5 2t6.5 2q2 3 4.5 6.5t6.5 5.5q3 0 5 5.5t4 12.5t4 13.5t4 8.5v5v8.5t1 8.5t1 9v10v6q0 1 -1 13t-2 26.5t-2 27t-1 14.5v14
v9v14q0 7 0.5 11.5t2.5 10.5q1 6 3.5 11.5t4.5 12.5q2 2 3.5 4.5t2.5 4.5q2 8 6 10q2 2 2.5 3.5t1.5 3.5q4 3 5.5 4t2.5 3q-2 2 -3 5t-5 5q-6 8 -9 11q-5 5 -5 6q-2 2 -2 4.5t-2 3.5q-2 5 -3 9l-2 8q-1 6 -2.5 12t-3.5 11q-1 2 -1 5t-2 6q0 3 1 6.5t-1 7.5q-1 3 -1 13
t0.5 21.5t1.5 22.5t2 15q0 7 2 10q0 4 0.5 8t2.5 9q-1 8 2 15.5t1 15.5q1 2 0 14t-2.5 25.5t-4 25t-4.5 12.5q-2 2 -4 4.5t-3 5.5q-1 2 -1.5 2t-2.5 1q0 1 -1 1.5t-1 1.5q-3 2 -4 2q-4 0 -7 1t-8 1q-2 0 -4 1.5t-6 1.5q-5 -2 -11 4v4z" />
    <glyph glyph-name="asciitilde" unicode="~" horiz-adv-x="377" 
d="M118 304v3q0 2 2 4q5 2 8.5 -1t5.5 -5q1 -1 1.5 -2t2.5 -3h3q2 0 3 -0.5t3 -0.5q2 -2 6 0q2 -2 10 2.5t9 3.5q3 1 6.5 1.5t7.5 2.5q3 0 11.5 1.5t11.5 0.5q2 0 14.5 -1t14.5 0h1q1 0 5 -3t6 -6q3 -3 7 -9q1 -1 1 -4v-3v-3v-1v-1q-1 -2 -0.5 -3t0.5 -2h-3l-3 2l-3 1.5
l-3 1.5t-6 1q-5 0 -7 1t-12 0t-12 -1q-4 0 -6 -1t-11.5 -3t-12.5 -4l-9 -3h-6q-2 0 -3.5 -0.5t-2.5 -0.5l-3 -1q-1 1 -2 1q-2 0 -9.5 2t-10.5 4q-5 4 -7 6q-3 4 -4 4.5t-3 5.5q-1 1 -1 5v1v3v4z" />
    <glyph glyph-name="NULL" horiz-adv-x="0" 
 />
    <glyph glyph-name="NULL" horiz-adv-x="0" 
 />
    </font>
</defs>
</svg>
